<?xml version="1.0" encoding="UTF-8" standalone="no"?><svg xmlns="http://www.w3.org/2000/svg" xmlns:xlink="http://www.w3.org/1999/xlink" contentScriptType="application/ecmascript" contentStyleType="text/css" height="3109px" preserveAspectRatio="none" style="width:954px;height:3109px;" version="1.1" viewBox="0 0 954 3109" width="954px" zoomAndPan="magnify"><defs><filter height="300%" id="fqyqz0a" width="300%" x="-1" y="-1"><feGaussianBlur result="blurOut" stdDeviation="2.0"/><feColorMatrix in="blurOut" result="blurOut2" type="matrix" values="0 0 0 0 0 0 0 0 0 0 0 0 0 0 0 0 0 0 .4 0"/><feOffset dx="4.0" dy="4.0" in="blurOut2" result="blurOut3"/><feBlend in="SourceGraphic" in2="blurOut3" mode="normal"/></filter></defs><g><text fill="#000000" font-family="sans-serif" font-size="14" font-weight="bold" lengthAdjust="spacingAndGlyphs" textLength="511" x="220.75" y="22.9951">cascading conference creation sequence (2 participants, 2 RMS)</text><rect fill="#FFFFFF" filter="url(#fqyqz0a)" height="253.5938" style="stroke: #000000; stroke-width: 2.0;" width="858.5" x="13" y="529.7188"/><rect fill="#FFFFFF" filter="url(#fqyqz0a)" height="223.3281" style="stroke: #000000; stroke-width: 2.0;" width="858.5" x="13" y="1224.8359"/><rect fill="#FFFFFF" filter="url(#fqyqz0a)" height="223.3281" style="stroke: #000000; stroke-width: 2.0;" width="829.5" x="110" y="1916.5547"/><line style="stroke: #A80036; stroke-width: 1.0; stroke-dasharray: 5.0,5.0;" x1="66" x2="66" y1="116.5938" y2="3024.7969"/><line style="stroke: #A80036; stroke-width: 1.0; stroke-dasharray: 5.0,5.0;" x1="163" x2="163" y1="116.5938" y2="3024.7969"/><line style="stroke: #A80036; stroke-width: 1.0; stroke-dasharray: 5.0,5.0;" x1="351" x2="351" y1="116.5938" y2="3024.7969"/><line style="stroke: #A80036; stroke-width: 1.0; stroke-dasharray: 5.0,5.0;" x1="832.5" x2="832.5" y1="116.5938" y2="3024.7969"/><line style="stroke: #A80036; stroke-width: 1.0; stroke-dasharray: 5.0,5.0;" x1="900.5" x2="900.5" y1="116.5938" y2="3024.7969"/><text fill="#000000" font-family="sans-serif" font-size="14" lengthAdjust="spacingAndGlyphs" textLength="81" x="23" y="113.292">Participant1</text><ellipse cx="66.5" cy="43.2969" fill="#FEFECE" filter="url(#fqyqz0a)" rx="8" ry="8" style="stroke: #A80036; stroke-width: 2.0;"/><path d="M66.5,51.2969 L66.5,78.2969 M53.5,59.2969 L79.5,59.2969 M66.5,78.2969 L53.5,93.2969 M66.5,78.2969 L79.5,93.2969 " fill="#FEFECE" filter="url(#fqyqz0a)" style="stroke: #A80036; stroke-width: 2.0;"/><text fill="#000000" font-family="sans-serif" font-size="14" lengthAdjust="spacingAndGlyphs" textLength="81" x="23" y="3036.792">Participant1</text><ellipse cx="66.5" cy="3050.0938" fill="#FEFECE" filter="url(#fqyqz0a)" rx="8" ry="8" style="stroke: #A80036; stroke-width: 2.0;"/><path d="M66.5,3058.0938 L66.5,3085.0938 M53.5,3066.0938 L79.5,3066.0938 M66.5,3085.0938 L53.5,3100.0938 M66.5,3085.0938 L79.5,3100.0938 " fill="#FEFECE" filter="url(#fqyqz0a)" style="stroke: #A80036; stroke-width: 2.0;"/><text fill="#000000" font-family="sans-serif" font-size="14" lengthAdjust="spacingAndGlyphs" textLength="81" x="120" y="113.292">Participant2</text><ellipse cx="163.5" cy="43.2969" fill="#FEFECE" filter="url(#fqyqz0a)" rx="8" ry="8" style="stroke: #A80036; stroke-width: 2.0;"/><path d="M163.5,51.2969 L163.5,78.2969 M150.5,59.2969 L176.5,59.2969 M163.5,78.2969 L150.5,93.2969 M163.5,78.2969 L176.5,93.2969 " fill="#FEFECE" filter="url(#fqyqz0a)" style="stroke: #A80036; stroke-width: 2.0;"/><text fill="#000000" font-family="sans-serif" font-size="14" lengthAdjust="spacingAndGlyphs" textLength="81" x="120" y="3036.792">Participant2</text><ellipse cx="163.5" cy="3050.0938" fill="#FEFECE" filter="url(#fqyqz0a)" rx="8" ry="8" style="stroke: #A80036; stroke-width: 2.0;"/><path d="M163.5,3058.0938 L163.5,3085.0938 M150.5,3066.0938 L176.5,3066.0938 M163.5,3085.0938 L150.5,3100.0938 M163.5,3085.0938 L176.5,3100.0938 " fill="#FEFECE" filter="url(#fqyqz0a)" style="stroke: #A80036; stroke-width: 2.0;"/><rect fill="#FEFECE" filter="url(#fqyqz0a)" height="30.2969" style="stroke: #A80036; stroke-width: 1.5;" width="89" x="305" y="81.2969"/><text fill="#000000" font-family="sans-serif" font-size="14" lengthAdjust="spacingAndGlyphs" textLength="75" x="312" y="101.292">Restcomm</text><rect fill="#FEFECE" filter="url(#fqyqz0a)" height="30.2969" style="stroke: #A80036; stroke-width: 1.5;" width="89" x="305" y="3023.7969"/><text fill="#000000" font-family="sans-serif" font-size="14" lengthAdjust="spacingAndGlyphs" textLength="75" x="312" y="3043.792">Restcomm</text><rect fill="#FEFECE" filter="url(#fqyqz0a)" height="30.2969" style="stroke: #A80036; stroke-width: 1.5;" width="54" x="803.5" y="81.2969"/><text fill="#000000" font-family="sans-serif" font-size="14" lengthAdjust="spacingAndGlyphs" textLength="40" x="810.5" y="101.292">RMS1</text><rect fill="#FEFECE" filter="url(#fqyqz0a)" height="30.2969" style="stroke: #A80036; stroke-width: 1.5;" width="54" x="803.5" y="3023.7969"/><text fill="#000000" font-family="sans-serif" font-size="14" lengthAdjust="spacingAndGlyphs" textLength="40" x="810.5" y="3043.792">RMS1</text><rect fill="#FEFECE" filter="url(#fqyqz0a)" height="30.2969" style="stroke: #A80036; stroke-width: 1.5;" width="54" x="871.5" y="81.2969"/><text fill="#000000" font-family="sans-serif" font-size="14" lengthAdjust="spacingAndGlyphs" textLength="40" x="878.5" y="101.292">RMS2</text><rect fill="#FEFECE" filter="url(#fqyqz0a)" height="30.2969" style="stroke: #A80036; stroke-width: 1.5;" width="54" x="871.5" y="3023.7969"/><text fill="#000000" font-family="sans-serif" font-size="14" lengthAdjust="spacingAndGlyphs" textLength="40" x="878.5" y="3043.792">RMS2</text><polygon fill="#A80036" points="339.5,143.5938,349.5,147.5938,339.5,151.5938,343.5,147.5938" style="stroke: #A80036; stroke-width: 1.0;"/><line style="stroke: #A80036; stroke-width: 1.0;" x1="66.5" x2="345.5" y1="147.5938" y2="147.5938"/><text fill="#000000" font-family="sans-serif" font-size="13" lengthAdjust="spacingAndGlyphs" textLength="80" x="73.5" y="142.6606">sip/sdp Call1</text><polygon fill="#A80036" points="77.5,172.7266,67.5,176.7266,77.5,180.7266,73.5,176.7266" style="stroke: #A80036; stroke-width: 1.0;"/><line style="stroke: #A80036; stroke-width: 1.0; stroke-dasharray: 2.0,2.0;" x1="71.5" x2="350.5" y1="176.7266" y2="176.7266"/><text fill="#000000" font-family="sans-serif" font-size="13" lengthAdjust="spacingAndGlyphs" textLength="88" x="83.5" y="171.7935">sip 100/Trying</text><polygon fill="#A80036" points="820.5,231.8594,830.5,235.8594,820.5,239.8594,824.5,235.8594" style="stroke: #A80036; stroke-width: 1.0;"/><line style="stroke: #A80036; stroke-width: 1.0;" x1="351.5" x2="826.5" y1="235.8594" y2="235.8594"/><text fill="#000000" font-family="sans-serif" font-size="13" lengthAdjust="spacingAndGlyphs" textLength="78" x="358.5" y="200.9263">mgcp CRCX:</text><text fill="#000000" font-family="sans-serif" font-size="13" lengthAdjust="spacingAndGlyphs" textLength="273" x="358.5" y="216.0591">{Primary: mobicents/bridge/$@RMS1:2427</text><text fill="#000000" font-family="sans-serif" font-size="13" lengthAdjust="spacingAndGlyphs" textLength="261" x="358.5" y="231.1919">secondary mobicents/ivr/$@RMS1:2427}</text><polygon fill="#A80036" points="362.5,291.2578,352.5,295.2578,362.5,299.2578,358.5,295.2578" style="stroke: #A80036; stroke-width: 1.0;"/><line style="stroke: #A80036; stroke-width: 1.0;" x1="356.5" x2="831.5" y1="295.2578" y2="295.2578"/><text fill="#000000" font-family="sans-serif" font-size="13" lengthAdjust="spacingAndGlyphs" textLength="97" x="368.5" y="260.3247">mgcp Success:</text><text fill="#000000" font-family="sans-serif" font-size="13" lengthAdjust="spacingAndGlyphs" textLength="216" x="368.5" y="275.4575">{mobicents/bridge/1@RMS1:2427</text><text fill="#000000" font-family="sans-serif" font-size="13" lengthAdjust="spacingAndGlyphs" textLength="261" x="368.5" y="290.5903">secondary mobicents/ivr/1@RMS1:2427}</text><polygon fill="#A80036" points="820.5,350.6563,830.5,354.6563,820.5,358.6563,824.5,354.6563" style="stroke: #A80036; stroke-width: 1.0;"/><line style="stroke: #A80036; stroke-width: 1.0;" x1="351.5" x2="826.5" y1="354.6563" y2="354.6563"/><text fill="#000000" font-family="sans-serif" font-size="13" lengthAdjust="spacingAndGlyphs" textLength="397" x="358.5" y="319.7231">mgcp/sdp CRCX: sendrcv: callID1: notification entity restcomm</text><text fill="#000000" font-family="sans-serif" font-size="13" lengthAdjust="spacingAndGlyphs" textLength="204" x="358.5" y="334.856">mobicents/bridge1@RMS1:2427</text><text fill="#000000" font-family="sans-serif" font-size="13" lengthAdjust="spacingAndGlyphs" textLength="177" x="358.5" y="349.9888">SDP (sip client's info, IP etc)</text><polygon fill="#A80036" points="362.5,380.0547,352.5,384.0547,362.5,388.0547,358.5,384.0547" style="stroke: #A80036; stroke-width: 1.0;"/><line style="stroke: #A80036; stroke-width: 1.0;" x1="356.5" x2="831.5" y1="384.0547" y2="384.0547"/><text fill="#000000" font-family="sans-serif" font-size="13" lengthAdjust="spacingAndGlyphs" textLength="457" x="368.5" y="379.1216">mgcp/sdp Success: SDP (media server info, connection and media info)</text><polygon fill="#A80036" points="77.5,409.1875,67.5,413.1875,77.5,417.1875,73.5,413.1875" style="stroke: #A80036; stroke-width: 1.0;"/><line style="stroke: #A80036; stroke-width: 1.0;" x1="71.5" x2="350.5" y1="413.1875" y2="413.1875"/><text fill="#000000" font-family="sans-serif" font-size="13" lengthAdjust="spacingAndGlyphs" textLength="167" x="83.5" y="408.2544">sip/sdp 200|OK (SIP invite)</text><polygon fill="#A80036" points="339.5,438.3203,349.5,442.3203,339.5,446.3203,343.5,442.3203" style="stroke: #A80036; stroke-width: 1.0;"/><line style="stroke: #A80036; stroke-width: 1.0;" x1="66.5" x2="345.5" y1="442.3203" y2="442.3203"/><text fill="#000000" font-family="sans-serif" font-size="13" lengthAdjust="spacingAndGlyphs" textLength="48" x="73.5" y="437.3872">sip ACK</text><rect fill="#EEEEEE" filter="url(#fqyqz0a)" height="3" style="stroke: #EEEEEE; stroke-width: 1.0;" width="946.5" x="3" y="471.0195"/><line style="stroke: #000000; stroke-width: 1.0;" x1="3" x2="949.5" y1="471.0195" y2="471.0195"/><line style="stroke: #000000; stroke-width: 1.0;" x1="3" x2="949.5" y1="474.0195" y2="474.0195"/><rect fill="#EEEEEE" filter="url(#fqyqz0a)" height="23.1328" style="stroke: #000000; stroke-width: 2.0;" width="150" x="401.25" y="460.4531"/><text fill="#000000" font-family="sans-serif" font-size="13" font-weight="bold" lengthAdjust="spacingAndGlyphs" textLength="131" x="407.25" y="476.52">call is in progress</text><polygon fill="#A80036" points="77.5,510.5859,67.5,514.5859,77.5,518.5859,73.5,514.5859" style="stroke: #A80036; stroke-width: 1.0;"/><polygon fill="#A80036" points="820.5,510.5859,830.5,514.5859,820.5,518.5859,824.5,514.5859" style="stroke: #A80036; stroke-width: 1.0;"/><line style="stroke: #A80036; stroke-width: 1.0; stroke-dasharray: 2.0,2.0;" x1="71.5" x2="826.5" y1="514.5859" y2="514.5859"/><text fill="#000000" font-family="sans-serif" font-size="13" lengthAdjust="spacingAndGlyphs" textLength="23" x="83.5" y="509.6528">RTP</text><rect fill="none" height="253.5938" style="stroke: #000000; stroke-width: 2.0;" width="858.5" x="13" y="529.7188"/><polygon fill="#EEEEEE" points="13,529.7188,77,529.7188,77,536.7188,67,546.7188,13,546.7188,13,529.7188" style="stroke: #000000; stroke-width: 2.0;"/><text fill="#000000" font-family="sans-serif" font-size="13" font-weight="bold" lengthAdjust="spacingAndGlyphs" textLength="19" x="28" y="542.7856">alt</text><text fill="#000000" font-family="sans-serif" font-size="11" font-weight="bold" lengthAdjust="spacingAndGlyphs" textLength="136" x="92" y="541.9292">[Play Announcement]</text><polygon fill="#A80036" points="820.5,593.8516,830.5,597.8516,820.5,601.8516,824.5,597.8516" style="stroke: #A80036; stroke-width: 1.0;"/><line style="stroke: #A80036; stroke-width: 1.0;" x1="351.5" x2="826.5" y1="597.8516" y2="597.8516"/><text fill="#000000" font-family="sans-serif" font-size="13" lengthAdjust="spacingAndGlyphs" textLength="263" x="358.5" y="562.9185">mgcp RQNT: notification entity restcomm</text><text fill="#000000" font-family="sans-serif" font-size="13" lengthAdjust="spacingAndGlyphs" textLength="183" x="358.5" y="578.0513">mobicents/ivr/1@RMS1:2427</text><text fill="#000000" font-family="sans-serif" font-size="13" lengthAdjust="spacingAndGlyphs" textLength="77" x="358.5" y="593.1841">audio file url</text><polygon fill="#A80036" points="362.5,623.25,352.5,627.25,362.5,631.25,358.5,627.25" style="stroke: #A80036; stroke-width: 1.0;"/><line style="stroke: #A80036; stroke-width: 1.0;" x1="356.5" x2="831.5" y1="627.25" y2="627.25"/><text fill="#000000" font-family="sans-serif" font-size="13" lengthAdjust="spacingAndGlyphs" textLength="93" x="368.5" y="622.3169">mgcp Success</text><polygon fill="#A80036" points="77.5,652.3828,67.5,656.3828,77.5,660.3828,73.5,656.3828" style="stroke: #A80036; stroke-width: 1.0;"/><line style="stroke: #A80036; stroke-width: 1.0; stroke-dasharray: 2.0,2.0;" x1="71.5" x2="831.5" y1="656.3828" y2="656.3828"/><text fill="#000000" font-family="sans-serif" font-size="13" lengthAdjust="spacingAndGlyphs" textLength="150" x="83.5" y="651.4497">playing announcement.</text><polygon fill="#A80036" points="362.5,726.5156,352.5,730.5156,362.5,734.5156,358.5,730.5156" style="stroke: #A80036; stroke-width: 1.0;"/><line style="stroke: #A80036; stroke-width: 1.0;" x1="356.5" x2="831.5" y1="730.5156" y2="730.5156"/><text fill="#000000" font-family="sans-serif" font-size="13" lengthAdjust="spacingAndGlyphs" textLength="259" x="368.5" y="680.5825">mgcp NTFY: notification entity restcomm</text><text fill="#000000" font-family="sans-serif" font-size="13" lengthAdjust="spacingAndGlyphs" textLength="183" x="368.5" y="695.7153">mobicents/ivr/1@RMS1:2427</text><text fill="#000000" font-family="sans-serif" font-size="13" lengthAdjust="spacingAndGlyphs" textLength="212" x="368.5" y="710.8481">ObservedEvents AUC/oc(rc=100)</text><text fill="#000000" font-family="sans-serif" font-size="13" lengthAdjust="spacingAndGlyphs" textLength="104" x="368.5" y="725.981">transactionID=7</text><polygon fill="#A80036" points="820.5,771.0469,830.5,775.0469,820.5,779.0469,824.5,775.0469" style="stroke: #A80036; stroke-width: 1.0;"/><line style="stroke: #A80036; stroke-width: 1.0;" x1="351.5" x2="826.5" y1="775.0469" y2="775.0469"/><text fill="#000000" font-family="sans-serif" font-size="13" lengthAdjust="spacingAndGlyphs" textLength="250" x="358.5" y="755.1138">mgcp Transaction executed succesfully</text><text fill="#000000" font-family="sans-serif" font-size="13" lengthAdjust="spacingAndGlyphs" textLength="104" x="358.5" y="770.2466">transactionID=7</text><rect fill="#EEEEEE" filter="url(#fqyqz0a)" height="3" style="stroke: #EEEEEE; stroke-width: 1.0;" width="946.5" x="3" y="810.8789"/><line style="stroke: #000000; stroke-width: 1.0;" x1="3" x2="949.5" y1="810.8789" y2="810.8789"/><line style="stroke: #000000; stroke-width: 1.0;" x1="3" x2="949.5" y1="813.8789" y2="813.8789"/><rect fill="#EEEEEE" filter="url(#fqyqz0a)" height="23.1328" style="stroke: #000000; stroke-width: 2.0;" width="133" x="409.75" y="800.3125"/><text fill="#000000" font-family="sans-serif" font-size="13" font-weight="bold" lengthAdjust="spacingAndGlyphs" textLength="114" x="415.75" y="816.3794">dial conference</text><polygon fill="#A80036" points="820.5,880.4453,830.5,884.4453,820.5,888.4453,824.5,884.4453" style="stroke: #A80036; stroke-width: 1.0;"/><line style="stroke: #A80036; stroke-width: 1.0;" x1="351.5" x2="826.5" y1="884.4453" y2="884.4453"/><text fill="#000000" font-family="sans-serif" font-size="13" lengthAdjust="spacingAndGlyphs" textLength="74" x="358.5" y="849.5122">mgcp CRCX</text><text fill="#000000" font-family="sans-serif" font-size="13" lengthAdjust="spacingAndGlyphs" textLength="183" x="358.5" y="864.645">mobicents/cnf$@RMS1:2427</text><text fill="#000000" font-family="sans-serif" font-size="13" lengthAdjust="spacingAndGlyphs" textLength="313" x="358.5" y="879.7778">secondaryEndpoint: mobicents/ivr/$@RMS1:2427</text><polygon fill="#A80036" points="362.5,939.8438,352.5,943.8438,362.5,947.8438,358.5,943.8438" style="stroke: #A80036; stroke-width: 1.0;"/><line style="stroke: #A80036; stroke-width: 1.0;" x1="356.5" x2="831.5" y1="943.8438" y2="943.8438"/><text fill="#000000" font-family="sans-serif" font-size="13" lengthAdjust="spacingAndGlyphs" textLength="93" x="368.5" y="908.9106">mgcp Success</text><text fill="#000000" font-family="sans-serif" font-size="13" lengthAdjust="spacingAndGlyphs" textLength="183" x="368.5" y="924.0435">mobicents/cnf1@RMS1:2427</text><text fill="#000000" font-family="sans-serif" font-size="13" lengthAdjust="spacingAndGlyphs" textLength="313" x="368.5" y="939.1763">secondaryEndpoint: mobicents/ivr/2@RMS1:2427</text><polygon fill="#A80036" points="820.5,1014.2422,830.5,1018.2422,820.5,1022.2422,824.5,1018.2422" style="stroke: #A80036; stroke-width: 1.0;"/><line style="stroke: #A80036; stroke-width: 1.0;" x1="351.5" x2="826.5" y1="1018.2422" y2="1018.2422"/><text fill="#000000" font-family="sans-serif" font-size="13" lengthAdjust="spacingAndGlyphs" textLength="74" x="358.5" y="968.3091">mgcp CRCX</text><text fill="#000000" font-family="sans-serif" font-size="13" lengthAdjust="spacingAndGlyphs" textLength="272" x="362.5" y="983.4419">endpoint: mobicents/bridge/1@RMS1:2427</text><text fill="#000000" font-family="sans-serif" font-size="13" lengthAdjust="spacingAndGlyphs" textLength="173" x="358.5" y="998.5747">connectionMode=Confrnce</text><text fill="#000000" font-family="sans-serif" font-size="13" lengthAdjust="spacingAndGlyphs" textLength="264" x="358.5" y="1013.7075">2ndaryEP: mobicents/cnf/1@RMS1@2427</text><polygon fill="#A80036" points="362.5,1058.7734,352.5,1062.7734,362.5,1066.7734,358.5,1062.7734" style="stroke: #A80036; stroke-width: 1.0;"/><line style="stroke: #A80036; stroke-width: 1.0;" x1="356.5" x2="831.5" y1="1062.7734" y2="1062.7734"/><text fill="#000000" font-family="sans-serif" font-size="13" lengthAdjust="spacingAndGlyphs" textLength="93" x="368.5" y="1042.8403">mgcp Success</text><text fill="#000000" font-family="sans-serif" font-size="13" lengthAdjust="spacingAndGlyphs" textLength="388" x="372.5" y="1057.9731">provides Connection identifier for both endpoint connections.</text><polygon fill="#A80036" points="820.5,1118.0391,830.5,1122.0391,820.5,1126.0391,824.5,1122.0391" style="stroke: #A80036; stroke-width: 1.0;"/><line style="stroke: #A80036; stroke-width: 1.0;" x1="351.5" x2="826.5" y1="1122.0391" y2="1122.0391"/><text fill="#000000" font-family="sans-serif" font-size="13" lengthAdjust="spacingAndGlyphs" textLength="82" x="358.5" y="1087.106">mgcp MDCX:</text><text fill="#000000" font-family="sans-serif" font-size="13" lengthAdjust="spacingAndGlyphs" textLength="187" x="358.5" y="1102.2388">mobicents/cnf/1@RMS1:2427</text><text fill="#000000" font-family="sans-serif" font-size="13" lengthAdjust="spacingAndGlyphs" textLength="245" x="358.5" y="1117.3716">{CallID:1, ConnectionMode: sendrecv}</text><polygon fill="#A80036" points="362.5,1162.4375,352.5,1166.4375,362.5,1170.4375,358.5,1166.4375" style="stroke: #A80036; stroke-width: 1.0;"/><line style="stroke: #A80036; stroke-width: 1.0;" x1="356.5" x2="831.5" y1="1166.4375" y2="1166.4375"/><text fill="#000000" font-family="sans-serif" font-size="13" lengthAdjust="spacingAndGlyphs" textLength="93" x="368.5" y="1146.5044">mgcp Success</text><text fill="#000000" font-family="sans-serif" font-size="13" lengthAdjust="spacingAndGlyphs" textLength="131" x="372.5" y="1161.6372">Connection identifier</text><rect fill="#EEEEEE" filter="url(#fqyqz0a)" height="3" style="stroke: #EEEEEE; stroke-width: 1.0;" width="946.5" x="3" y="1195.2695"/><line style="stroke: #000000; stroke-width: 1.0;" x1="3" x2="949.5" y1="1195.2695" y2="1195.2695"/><line style="stroke: #000000; stroke-width: 1.0;" x1="3" x2="949.5" y1="1198.2695" y2="1198.2695"/><rect fill="#EEEEEE" filter="url(#fqyqz0a)" height="23.1328" style="stroke: #000000; stroke-width: 2.0;" width="168" x="392.25" y="1184.7031"/><text fill="#000000" font-family="sans-serif" font-size="13" font-weight="bold" lengthAdjust="spacingAndGlyphs" textLength="149" x="398.25" y="1200.77">conference is joined</text><rect fill="none" height="223.3281" style="stroke: #000000; stroke-width: 2.0;" width="858.5" x="13" y="1224.8359"/><polygon fill="#EEEEEE" points="13,1224.8359,77,1224.8359,77,1231.8359,67,1241.8359,13,1241.8359,13,1224.8359" style="stroke: #000000; stroke-width: 2.0;"/><text fill="#000000" font-family="sans-serif" font-size="13" font-weight="bold" lengthAdjust="spacingAndGlyphs" textLength="19" x="28" y="1237.9028">alt</text><text fill="#000000" font-family="sans-serif" font-size="11" font-weight="bold" lengthAdjust="spacingAndGlyphs" textLength="112" x="92" y="1237.0464">[Play Wait Music]</text><polygon fill="#A80036" points="820.5,1288.9688,830.5,1292.9688,820.5,1296.9688,824.5,1292.9688" style="stroke: #A80036; stroke-width: 1.0;"/><line style="stroke: #A80036; stroke-width: 1.0;" x1="351.5" x2="826.5" y1="1292.9688" y2="1292.9688"/><text fill="#000000" font-family="sans-serif" font-size="13" lengthAdjust="spacingAndGlyphs" textLength="42" x="358.5" y="1258.0356">MDCX:</text><text fill="#000000" font-family="sans-serif" font-size="13" lengthAdjust="spacingAndGlyphs" textLength="208" x="358.5" y="1273.1685">mobicents/bridge/1@RMS1:2427</text><text fill="#000000" font-family="sans-serif" font-size="13" lengthAdjust="spacingAndGlyphs" textLength="244" x="358.5" y="1288.3013">{CallID:1, ConnectionMode: sendonly}</text><polygon fill="#A80036" points="362.5,1333.3672,352.5,1337.3672,362.5,1341.3672,358.5,1337.3672" style="stroke: #A80036; stroke-width: 1.0;"/><line style="stroke: #A80036; stroke-width: 1.0; stroke-dasharray: 2.0,2.0;" x1="356.5" x2="831.5" y1="1337.3672" y2="1337.3672"/><text fill="#000000" font-family="sans-serif" font-size="13" lengthAdjust="spacingAndGlyphs" textLength="24" x="368.5" y="1317.4341">200</text><text fill="#000000" font-family="sans-serif" font-size="13" lengthAdjust="spacingAndGlyphs" textLength="212" x="368.5" y="1332.5669">SDP {conn &amp; media info of RMS}</text><polygon fill="#A80036" points="820.5,1377.6328,830.5,1381.6328,820.5,1385.6328,824.5,1381.6328" style="stroke: #A80036; stroke-width: 1.0;"/><line style="stroke: #A80036; stroke-width: 1.0;" x1="351.5" x2="826.5" y1="1381.6328" y2="1381.6328"/><text fill="#000000" font-family="sans-serif" font-size="13" lengthAdjust="spacingAndGlyphs" textLength="222" x="358.5" y="1361.6997">RQNT mobicents/ivr/2@RMS1:2427</text><text fill="#000000" font-family="sans-serif" font-size="13" lengthAdjust="spacingAndGlyphs" textLength="174" x="362.5" y="1376.8325">signalRequest: audio file url</text><polygon fill="#A80036" points="362.5,1406.8984,352.5,1410.8984,362.5,1414.8984,358.5,1410.8984" style="stroke: #A80036; stroke-width: 1.0;"/><line style="stroke: #A80036; stroke-width: 1.0;" x1="356.5" x2="831.5" y1="1410.8984" y2="1410.8984"/><text fill="#000000" font-family="sans-serif" font-size="13" lengthAdjust="spacingAndGlyphs" textLength="51" x="368.5" y="1405.9653">success</text><polygon fill="#A80036" points="77.5,1436.0313,67.5,1440.0313,77.5,1444.0313,73.5,1440.0313" style="stroke: #A80036; stroke-width: 1.0;"/><line style="stroke: #A80036; stroke-width: 1.0; stroke-dasharray: 2.0,2.0;" x1="71.5" x2="831.5" y1="1440.0313" y2="1440.0313"/><text fill="#000000" font-family="sans-serif" font-size="13" lengthAdjust="spacingAndGlyphs" textLength="75" x="83.5" y="1435.0981">music (RTP)</text><rect fill="#EEEEEE" filter="url(#fqyqz0a)" height="3" style="stroke: #EEEEEE; stroke-width: 1.0;" width="946.5" x="3" y="1475.7305"/><line style="stroke: #000000; stroke-width: 1.0;" x1="3" x2="949.5" y1="1475.7305" y2="1475.7305"/><line style="stroke: #000000; stroke-width: 1.0;" x1="3" x2="949.5" y1="1478.7305" y2="1478.7305"/><rect fill="#EEEEEE" filter="url(#fqyqz0a)" height="23.1328" style="stroke: #000000; stroke-width: 2.0;" width="285" x="333.75" y="1465.1641"/><text fill="#000000" font-family="sans-serif" font-size="13" font-weight="bold" lengthAdjust="spacingAndGlyphs" textLength="266" x="339.75" y="1481.231">second participants call sip number</text><polygon fill="#A80036" points="339.5,1530.2969,349.5,1534.2969,339.5,1538.2969,343.5,1534.2969" style="stroke: #A80036; stroke-width: 1.0;"/><line style="stroke: #A80036; stroke-width: 1.0;" x1="163.5" x2="345.5" y1="1534.2969" y2="1534.2969"/><text fill="#000000" font-family="sans-serif" font-size="13" lengthAdjust="spacingAndGlyphs" textLength="31" x="170.5" y="1514.3638">Call2</text><text fill="#000000" font-family="sans-serif" font-size="13" lengthAdjust="spacingAndGlyphs" textLength="95" x="170.5" y="1529.4966">SIP/SDP INVITE</text><polygon fill="#A80036" points="174.5,1559.5625,164.5,1563.5625,174.5,1567.5625,170.5,1563.5625" style="stroke: #A80036; stroke-width: 1.0;"/><line style="stroke: #A80036; stroke-width: 1.0; stroke-dasharray: 2.0,2.0;" x1="168.5" x2="350.5" y1="1563.5625" y2="1563.5625"/><text fill="#000000" font-family="sans-serif" font-size="13" lengthAdjust="spacingAndGlyphs" textLength="66" x="180.5" y="1558.6294">100/Trying</text><polygon fill="#A80036" points="888.5,1618.6953,898.5,1622.6953,888.5,1626.6953,892.5,1622.6953" style="stroke: #A80036; stroke-width: 1.0;"/><line style="stroke: #A80036; stroke-width: 1.0;" x1="351.5" x2="894.5" y1="1622.6953" y2="1622.6953"/><text fill="#000000" font-family="sans-serif" font-size="13" lengthAdjust="spacingAndGlyphs" textLength="38" x="358.5" y="1587.7622">CRCX:</text><text fill="#000000" font-family="sans-serif" font-size="13" lengthAdjust="spacingAndGlyphs" textLength="273" x="358.5" y="1602.895">{Primary: mobicents/bridge/$@RMS2:2427</text><text fill="#000000" font-family="sans-serif" font-size="13" lengthAdjust="spacingAndGlyphs" textLength="261" x="358.5" y="1618.0278">secondary mobicents/ivr/$@RMS2:2427}</text><polygon fill="#A80036" points="362.5,1678.0938,352.5,1682.0938,362.5,1686.0938,358.5,1682.0938" style="stroke: #A80036; stroke-width: 1.0;"/><line style="stroke: #A80036; stroke-width: 1.0;" x1="356.5" x2="899.5" y1="1682.0938" y2="1682.0938"/><text fill="#000000" font-family="sans-serif" font-size="13" lengthAdjust="spacingAndGlyphs" textLength="57" x="368.5" y="1647.1606">Success:</text><text fill="#000000" font-family="sans-serif" font-size="13" lengthAdjust="spacingAndGlyphs" textLength="216" x="368.5" y="1662.2935">{mobicents/bridge/2@RMS2:2427</text><text fill="#000000" font-family="sans-serif" font-size="13" lengthAdjust="spacingAndGlyphs" textLength="261" x="368.5" y="1677.4263">secondary mobicents/ivr/3@RMS2:2427}</text><polygon fill="#A80036" points="888.5,1737.4922,898.5,1741.4922,888.5,1745.4922,892.5,1741.4922" style="stroke: #A80036; stroke-width: 1.0;"/><line style="stroke: #A80036; stroke-width: 1.0;" x1="351.5" x2="894.5" y1="1741.4922" y2="1741.4922"/><text fill="#000000" font-family="sans-serif" font-size="13" lengthAdjust="spacingAndGlyphs" textLength="322" x="358.5" y="1706.5591">CRCX: sendrcv: callID: notification entity restcomm</text><text fill="#000000" font-family="sans-serif" font-size="13" lengthAdjust="spacingAndGlyphs" textLength="204" x="358.5" y="1721.6919">mobicents/bridge2@RMS2:2427</text><text fill="#000000" font-family="sans-serif" font-size="13" lengthAdjust="spacingAndGlyphs" textLength="177" x="358.5" y="1736.8247">SDP (sip client's info, IP etc)</text><polygon fill="#A80036" points="362.5,1766.8906,352.5,1770.8906,362.5,1774.8906,358.5,1770.8906" style="stroke: #A80036; stroke-width: 1.0;"/><line style="stroke: #A80036; stroke-width: 1.0;" x1="356.5" x2="899.5" y1="1770.8906" y2="1770.8906"/><text fill="#000000" font-family="sans-serif" font-size="13" lengthAdjust="spacingAndGlyphs" textLength="261" x="368.5" y="1765.9575">Success: SDP (RMS2 media session info)</text><polygon fill="#A80036" points="174.5,1796.0234,164.5,1800.0234,174.5,1804.0234,170.5,1800.0234" style="stroke: #A80036; stroke-width: 1.0;"/><line style="stroke: #A80036; stroke-width: 1.0;" x1="168.5" x2="350.5" y1="1800.0234" y2="1800.0234"/><text fill="#000000" font-family="sans-serif" font-size="13" lengthAdjust="spacingAndGlyphs" textLength="164" x="180.5" y="1795.0903">sip/sdp 200|OK (SIP, SDP)</text><polygon fill="#A80036" points="339.5,1825.1563,349.5,1829.1563,339.5,1833.1563,343.5,1829.1563" style="stroke: #A80036; stroke-width: 1.0;"/><line style="stroke: #A80036; stroke-width: 1.0;" x1="163.5" x2="345.5" y1="1829.1563" y2="1829.1563"/><text fill="#000000" font-family="sans-serif" font-size="13" lengthAdjust="spacingAndGlyphs" textLength="26" x="170.5" y="1824.2231">ACK</text><rect fill="#EEEEEE" filter="url(#fqyqz0a)" height="3" style="stroke: #EEEEEE; stroke-width: 1.0;" width="946.5" x="3" y="1857.8555"/><line style="stroke: #000000; stroke-width: 1.0;" x1="3" x2="949.5" y1="1857.8555" y2="1857.8555"/><line style="stroke: #000000; stroke-width: 1.0;" x1="3" x2="949.5" y1="1860.8555" y2="1860.8555"/><rect fill="#EEEEEE" filter="url(#fqyqz0a)" height="23.1328" style="stroke: #000000; stroke-width: 2.0;" width="511" x="220.75" y="1847.2891"/><text fill="#000000" font-family="sans-serif" font-size="13" font-weight="bold" lengthAdjust="spacingAndGlyphs" textLength="492" x="226.75" y="1863.356">second particpants call is in progress and it is connected to RMS2</text><polygon fill="#A80036" points="174.5,1897.4219,164.5,1901.4219,174.5,1905.4219,170.5,1901.4219" style="stroke: #A80036; stroke-width: 1.0;"/><polygon fill="#A80036" points="888.5,1897.4219,898.5,1901.4219,888.5,1905.4219,892.5,1901.4219" style="stroke: #A80036; stroke-width: 1.0;"/><line style="stroke: #A80036; stroke-width: 1.0; stroke-dasharray: 2.0,2.0;" x1="168.5" x2="894.5" y1="1901.4219" y2="1901.4219"/><text fill="#000000" font-family="sans-serif" font-size="13" lengthAdjust="spacingAndGlyphs" textLength="23" x="180.5" y="1896.4888">RTP</text><rect fill="none" height="223.3281" style="stroke: #000000; stroke-width: 2.0;" width="829.5" x="110" y="1916.5547"/><polygon fill="#EEEEEE" points="110,1916.5547,174,1916.5547,174,1923.5547,164,1933.5547,110,1933.5547,110,1916.5547" style="stroke: #000000; stroke-width: 2.0;"/><text fill="#000000" font-family="sans-serif" font-size="13" font-weight="bold" lengthAdjust="spacingAndGlyphs" textLength="19" x="125" y="1929.6216">alt</text><text fill="#000000" font-family="sans-serif" font-size="11" font-weight="bold" lengthAdjust="spacingAndGlyphs" textLength="136" x="189" y="1928.7651">[Play Announcement]</text><polygon fill="#A80036" points="888.5,1980.6875,898.5,1984.6875,888.5,1988.6875,892.5,1984.6875" style="stroke: #A80036; stroke-width: 1.0;"/><line style="stroke: #A80036; stroke-width: 1.0;" x1="351.5" x2="894.5" y1="1984.6875" y2="1984.6875"/><text fill="#000000" font-family="sans-serif" font-size="13" lengthAdjust="spacingAndGlyphs" textLength="223" x="358.5" y="1949.7544">RQNT: notification entity restcomm</text><text fill="#000000" font-family="sans-serif" font-size="13" lengthAdjust="spacingAndGlyphs" textLength="183" x="358.5" y="1964.8872">mobicents/ivr/3@RMS2:2427</text><text fill="#000000" font-family="sans-serif" font-size="13" lengthAdjust="spacingAndGlyphs" textLength="77" x="358.5" y="1980.02">audio file url</text><polygon fill="#A80036" points="362.5,2010.0859,352.5,2014.0859,362.5,2018.0859,358.5,2014.0859" style="stroke: #A80036; stroke-width: 1.0;"/><line style="stroke: #A80036; stroke-width: 1.0;" x1="356.5" x2="899.5" y1="2014.0859" y2="2014.0859"/><text fill="#000000" font-family="sans-serif" font-size="13" lengthAdjust="spacingAndGlyphs" textLength="53" x="368.5" y="2009.1528">Success</text><polygon fill="#A80036" points="174.5,2039.2188,164.5,2043.2188,174.5,2047.2188,170.5,2043.2188" style="stroke: #A80036; stroke-width: 1.0;"/><line style="stroke: #A80036; stroke-width: 1.0; stroke-dasharray: 2.0,2.0;" x1="168.5" x2="899.5" y1="2043.2188" y2="2043.2188"/><text fill="#000000" font-family="sans-serif" font-size="13" lengthAdjust="spacingAndGlyphs" textLength="150" x="180.5" y="2038.2856">playing announcement.</text><polygon fill="#A80036" points="362.5,2098.3516,352.5,2102.3516,362.5,2106.3516,358.5,2102.3516" style="stroke: #A80036; stroke-width: 1.0;"/><line style="stroke: #A80036; stroke-width: 1.0;" x1="356.5" x2="899.5" y1="2102.3516" y2="2102.3516"/><text fill="#000000" font-family="sans-serif" font-size="13" lengthAdjust="spacingAndGlyphs" textLength="219" x="368.5" y="2067.4185">NTFY: notification entity restcomm</text><text fill="#000000" font-family="sans-serif" font-size="13" lengthAdjust="spacingAndGlyphs" textLength="183" x="368.5" y="2082.5513">mobicents/ivr/3@RMS2:2427</text><text fill="#000000" font-family="sans-serif" font-size="13" lengthAdjust="spacingAndGlyphs" textLength="212" x="368.5" y="2097.6841">ObservedEvents AUC/oc(rc=100)</text><polygon fill="#A80036" points="888.5,2127.75,898.5,2131.75,888.5,2135.75,892.5,2131.75" style="stroke: #A80036; stroke-width: 1.0;"/><line style="stroke: #A80036; stroke-width: 1.0;" x1="351.5" x2="894.5" y1="2131.75" y2="2131.75"/><text fill="#000000" font-family="sans-serif" font-size="13" lengthAdjust="spacingAndGlyphs" textLength="210" x="358.5" y="2126.8169">Transaction executed succesfully</text><rect fill="#EEEEEE" filter="url(#fqyqz0a)" height="3" style="stroke: #EEEEEE; stroke-width: 1.0;" width="946.5" x="3" y="2167.4492"/><line style="stroke: #000000; stroke-width: 1.0;" x1="3" x2="949.5" y1="2167.4492" y2="2167.4492"/><line style="stroke: #000000; stroke-width: 1.0;" x1="3" x2="949.5" y1="2170.4492" y2="2170.4492"/><rect fill="#EEEEEE" filter="url(#fqyqz0a)" height="23.1328" style="stroke: #000000; stroke-width: 2.0;" width="351" x="300.75" y="2156.8828"/><text fill="#000000" font-family="sans-serif" font-size="13" font-weight="bold" lengthAdjust="spacingAndGlyphs" textLength="332" x="306.75" y="2172.9497">time to create conference endpoint on RMS2</text><polygon fill="#A80036" points="888.5,2237.0156,898.5,2241.0156,888.5,2245.0156,892.5,2241.0156" style="stroke: #A80036; stroke-width: 1.0;"/><line style="stroke: #A80036; stroke-width: 1.0;" x1="351.5" x2="894.5" y1="2241.0156" y2="2241.0156"/><text fill="#000000" font-family="sans-serif" font-size="13" lengthAdjust="spacingAndGlyphs" textLength="34" x="358.5" y="2206.0825">CRCX</text><text fill="#000000" font-family="sans-serif" font-size="13" lengthAdjust="spacingAndGlyphs" textLength="183" x="358.5" y="2221.2153">mobicents/cnf$@RMS2:2427</text><text fill="#000000" font-family="sans-serif" font-size="13" lengthAdjust="spacingAndGlyphs" textLength="313" x="358.5" y="2236.3481">secondaryEndpoint: mobicents/ivr/$@RMS2:2427</text><polygon fill="#A80036" points="362.5,2296.4141,352.5,2300.4141,362.5,2304.4141,358.5,2300.4141" style="stroke: #A80036; stroke-width: 1.0;"/><line style="stroke: #A80036; stroke-width: 1.0;" x1="356.5" x2="899.5" y1="2300.4141" y2="2300.4141"/><text fill="#000000" font-family="sans-serif" font-size="13" lengthAdjust="spacingAndGlyphs" textLength="53" x="368.5" y="2265.481">Success</text><text fill="#000000" font-family="sans-serif" font-size="13" lengthAdjust="spacingAndGlyphs" textLength="183" x="368.5" y="2280.6138">mobicents/cnf2@RMS2:2427</text><text fill="#000000" font-family="sans-serif" font-size="13" lengthAdjust="spacingAndGlyphs" textLength="313" x="368.5" y="2295.7466">secondaryEndpoint: mobicents/ivr/4@RMS2:2427</text><polygon fill="#A80036" points="888.5,2370.8125,898.5,2374.8125,888.5,2378.8125,892.5,2374.8125" style="stroke: #A80036; stroke-width: 1.0;"/><line style="stroke: #A80036; stroke-width: 1.0;" x1="351.5" x2="894.5" y1="2374.8125" y2="2374.8125"/><text fill="#000000" font-family="sans-serif" font-size="13" lengthAdjust="spacingAndGlyphs" textLength="34" x="358.5" y="2324.8794">CRCX</text><text fill="#000000" font-family="sans-serif" font-size="13" lengthAdjust="spacingAndGlyphs" textLength="272" x="362.5" y="2340.0122">endpoint: mobicents/bridge/2@RMS2:2427</text><text fill="#000000" font-family="sans-serif" font-size="13" lengthAdjust="spacingAndGlyphs" textLength="173" x="358.5" y="2355.145">connectionMode=Confrnce</text><text fill="#000000" font-family="sans-serif" font-size="13" lengthAdjust="spacingAndGlyphs" textLength="264" x="358.5" y="2370.2778">2ndaryEP: mobicents/cnf/2@RMS2@2427</text><polygon fill="#A80036" points="362.5,2415.3438,352.5,2419.3438,362.5,2423.3438,358.5,2419.3438" style="stroke: #A80036; stroke-width: 1.0;"/><line style="stroke: #A80036; stroke-width: 1.0;" x1="356.5" x2="899.5" y1="2419.3438" y2="2419.3438"/><text fill="#000000" font-family="sans-serif" font-size="13" lengthAdjust="spacingAndGlyphs" textLength="53" x="368.5" y="2399.4106">Success</text><text fill="#000000" font-family="sans-serif" font-size="13" lengthAdjust="spacingAndGlyphs" textLength="388" x="372.5" y="2414.5435">provides Connection identifier for both endpoint connections.</text><polygon fill="#A80036" points="888.5,2474.6094,898.5,2478.6094,888.5,2482.6094,892.5,2478.6094" style="stroke: #A80036; stroke-width: 1.0;"/><line style="stroke: #A80036; stroke-width: 1.0;" x1="351.5" x2="894.5" y1="2478.6094" y2="2478.6094"/><text fill="#000000" font-family="sans-serif" font-size="13" lengthAdjust="spacingAndGlyphs" textLength="42" x="358.5" y="2443.6763">MDCX:</text><text fill="#000000" font-family="sans-serif" font-size="13" lengthAdjust="spacingAndGlyphs" textLength="187" x="358.5" y="2458.8091">mobicents/cnf/2@RMS2:2427</text><text fill="#000000" font-family="sans-serif" font-size="13" lengthAdjust="spacingAndGlyphs" textLength="189" x="358.5" y="2473.9419">{ConnectionMode: sendrecv}</text><polygon fill="#A80036" points="362.5,2519.0078,352.5,2523.0078,362.5,2527.0078,358.5,2523.0078" style="stroke: #A80036; stroke-width: 1.0;"/><line style="stroke: #A80036; stroke-width: 1.0;" x1="356.5" x2="899.5" y1="2523.0078" y2="2523.0078"/><text fill="#000000" font-family="sans-serif" font-size="13" lengthAdjust="spacingAndGlyphs" textLength="53" x="368.5" y="2503.0747">Success</text><text fill="#000000" font-family="sans-serif" font-size="13" lengthAdjust="spacingAndGlyphs" textLength="131" x="372.5" y="2518.2075">Connection identifier</text><rect fill="#EEEEEE" filter="url(#fqyqz0a)" height="3" style="stroke: #EEEEEE; stroke-width: 1.0;" width="946.5" x="3" y="2551.8398"/><line style="stroke: #000000; stroke-width: 1.0;" x1="3" x2="949.5" y1="2551.8398" y2="2551.8398"/><line style="stroke: #000000; stroke-width: 1.0;" x1="3" x2="949.5" y1="2554.8398" y2="2554.8398"/><rect fill="#EEEEEE" filter="url(#fqyqz0a)" height="23.1328" style="stroke: #000000; stroke-width: 2.0;" width="437" x="257.75" y="2541.2734"/><text fill="#000000" font-family="sans-serif" font-size="13" font-weight="bold" lengthAdjust="spacingAndGlyphs" textLength="418" x="263.75" y="2557.3403">create a connection with conference1 endpoint on RMS1</text><polygon fill="#A80036" points="820.5,2606.4063,830.5,2610.4063,820.5,2614.4063,824.5,2610.4063" style="stroke: #A80036; stroke-width: 1.0;"/><line style="stroke: #A80036; stroke-width: 1.0;" x1="351.5" x2="826.5" y1="2610.4063" y2="2610.4063"/><text fill="#000000" font-family="sans-serif" font-size="13" lengthAdjust="spacingAndGlyphs" textLength="108" x="358.5" y="2590.4731">CRCX: {sendrcv}</text><text fill="#000000" font-family="sans-serif" font-size="13" lengthAdjust="spacingAndGlyphs" textLength="260" x="358.5" y="2605.606">{Primary: mobicents/cnf/1@RMS1:2427}</text><polygon fill="#A80036" points="362.5,2650.6719,352.5,2654.6719,362.5,2658.6719,358.5,2654.6719" style="stroke: #A80036; stroke-width: 1.0;"/><line style="stroke: #A80036; stroke-width: 1.0;" x1="356.5" x2="831.5" y1="2654.6719" y2="2654.6719"/><text fill="#000000" font-family="sans-serif" font-size="13" lengthAdjust="spacingAndGlyphs" textLength="53" x="368.5" y="2634.7388">Success</text><text fill="#000000" font-family="sans-serif" font-size="13" lengthAdjust="spacingAndGlyphs" textLength="128" x="372.5" y="2649.8716">and SDP offer RMS1</text><rect fill="#EEEEEE" filter="url(#fqyqz0a)" height="3" style="stroke: #EEEEEE; stroke-width: 1.0;" width="946.5" x="3" y="2683.5039"/><line style="stroke: #000000; stroke-width: 1.0;" x1="3" x2="949.5" y1="2683.5039" y2="2683.5039"/><line style="stroke: #000000; stroke-width: 1.0;" x1="3" x2="949.5" y1="2686.5039" y2="2686.5039"/><rect fill="#EEEEEE" filter="url(#fqyqz0a)" height="23.1328" style="stroke: #000000; stroke-width: 2.0;" width="282" x="335.25" y="2672.9375"/><text fill="#000000" font-family="sans-serif" font-size="13" font-weight="bold" lengthAdjust="spacingAndGlyphs" textLength="263" x="341.25" y="2689.0044">pass SDP offer from RMS1 to RMS2</text><polygon fill="#A80036" points="888.5,2753.0703,898.5,2757.0703,888.5,2761.0703,892.5,2757.0703" style="stroke: #A80036; stroke-width: 1.0;"/><line style="stroke: #A80036; stroke-width: 1.0;" x1="351.5" x2="894.5" y1="2757.0703" y2="2757.0703"/><text fill="#000000" font-family="sans-serif" font-size="13" lengthAdjust="spacingAndGlyphs" textLength="108" x="358.5" y="2722.1372">CRCX: {sendrcv}</text><text fill="#000000" font-family="sans-serif" font-size="13" lengthAdjust="spacingAndGlyphs" textLength="260" x="358.5" y="2737.27">{Primary: mobicents/cnf/2@RMS2:2427}</text><text fill="#000000" font-family="sans-serif" font-size="13" lengthAdjust="spacingAndGlyphs" textLength="162" x="362.5" y="2752.4028">and SDP offer from RMS1</text><polygon fill="#A80036" points="362.5,2797.4688,352.5,2801.4688,362.5,2805.4688,358.5,2801.4688" style="stroke: #A80036; stroke-width: 1.0;"/><line style="stroke: #A80036; stroke-width: 1.0;" x1="356.5" x2="899.5" y1="2801.4688" y2="2801.4688"/><text fill="#000000" font-family="sans-serif" font-size="13" lengthAdjust="spacingAndGlyphs" textLength="53" x="368.5" y="2781.5356">Success</text><text fill="#000000" font-family="sans-serif" font-size="13" lengthAdjust="spacingAndGlyphs" textLength="128" x="372.5" y="2796.6685">and SDP offer RMS2</text><rect fill="#EEEEEE" filter="url(#fqyqz0a)" height="3" style="stroke: #EEEEEE; stroke-width: 1.0;" width="946.5" x="3" y="2830.3008"/><line style="stroke: #000000; stroke-width: 1.0;" x1="3" x2="949.5" y1="2830.3008" y2="2830.3008"/><line style="stroke: #000000; stroke-width: 1.0;" x1="3" x2="949.5" y1="2833.3008" y2="2833.3008"/><rect fill="#EEEEEE" filter="url(#fqyqz0a)" height="23.1328" style="stroke: #000000; stroke-width: 2.0;" width="276" x="338.25" y="2819.7344"/><text fill="#000000" font-family="sans-serif" font-size="13" font-weight="bold" lengthAdjust="spacingAndGlyphs" textLength="257" x="344.25" y="2835.8013">pass sdp msg from RMS2 to RMS1</text><polygon fill="#A80036" points="820.5,2899.8672,830.5,2903.8672,820.5,2907.8672,824.5,2903.8672" style="stroke: #A80036; stroke-width: 1.0;"/><line style="stroke: #A80036; stroke-width: 1.0;" x1="351.5" x2="826.5" y1="2903.8672" y2="2903.8672"/><text fill="#000000" font-family="sans-serif" font-size="13" lengthAdjust="spacingAndGlyphs" textLength="42" x="358.5" y="2868.9341">MDCX:</text><text fill="#000000" font-family="sans-serif" font-size="13" lengthAdjust="spacingAndGlyphs" textLength="187" x="358.5" y="2884.0669">mobicents/cnf/1@RMS1:2427</text><text fill="#000000" font-family="sans-serif" font-size="13" lengthAdjust="spacingAndGlyphs" textLength="162" x="358.5" y="2899.1997">and SDP offer from RMS2</text><polygon fill="#A80036" points="362.5,2944.2656,352.5,2948.2656,362.5,2952.2656,358.5,2948.2656" style="stroke: #A80036; stroke-width: 1.0;"/><line style="stroke: #A80036; stroke-width: 1.0;" x1="356.5" x2="831.5" y1="2948.2656" y2="2948.2656"/><text fill="#000000" font-family="sans-serif" font-size="13" lengthAdjust="spacingAndGlyphs" textLength="24" x="368.5" y="2928.3325">200</text><text fill="#000000" font-family="sans-serif" font-size="13" lengthAdjust="spacingAndGlyphs" textLength="200" x="372.5" y="2943.4653">SDP (RMS1 media session info)</text><polygon fill="#A80036" points="843.5,2973.5313,833.5,2977.5313,843.5,2981.5313,839.5,2977.5313" style="stroke: #A80036; stroke-width: 1.0;"/><polygon fill="#A80036" points="888.5,2973.5313,898.5,2977.5313,888.5,2981.5313,892.5,2977.5313" style="stroke: #A80036; stroke-width: 1.0;"/><line style="stroke: #A80036; stroke-width: 1.0; stroke-dasharray: 2.0,2.0;" x1="837.5" x2="894.5" y1="2977.5313" y2="2977.5313"/><text fill="#000000" font-family="sans-serif" font-size="13" lengthAdjust="spacingAndGlyphs" textLength="23" x="849.5" y="2972.5981">RTP</text><polygon fill="#A80036" points="77.5,3002.6641,67.5,3006.6641,77.5,3010.6641,73.5,3006.6641" style="stroke: #A80036; stroke-width: 1.0;"/><polygon fill="#A80036" points="151.5,3002.6641,161.5,3006.6641,151.5,3010.6641,155.5,3006.6641" style="stroke: #A80036; stroke-width: 1.0;"/><line style="stroke: #A80036; stroke-width: 1.0; stroke-dasharray: 2.0,2.0;" x1="71.5" x2="157.5" y1="3006.6641" y2="3006.6641"/><text fill="#000000" font-family="sans-serif" font-size="13" lengthAdjust="spacingAndGlyphs" textLength="50" x="83.5" y="3001.731">talk talk</text></g></svg>