<?xml version="1.0" encoding="UTF-8" standalone="no"?><svg xmlns="http://www.w3.org/2000/svg" xmlns:xlink="http://www.w3.org/1999/xlink" contentScriptType="application/ecmascript" contentStyleType="text/css" height="1110px" preserveAspectRatio="none" style="width:638px;height:1110px;" version="1.1" viewBox="0 0 638 1110" width="638px" zoomAndPan="magnify"><defs><filter height="300%" id="fowyuf8" width="300%" x="-1" y="-1"><feGaussianBlur result="blurOut" stdDeviation="2.0"/><feColorMatrix in="blurOut" result="blurOut2" type="matrix" values="0 0 0 0 0 0 0 0 0 0 0 0 0 0 0 0 0 0 .4 0"/><feOffset dx="4.0" dy="4.0" in="blurOut2" result="blurOut3"/><feBlend in="SourceGraphic" in2="blurOut3" mode="normal"/></filter></defs><g><text fill="#000000" font-family="sans-serif" font-size="14" font-weight="bold" lengthAdjust="spacingAndGlyphs" textLength="367" x="134.5" y="22.9951">cascading conference cleanup (2 participants)</text><rect fill="#FFFFFF" filter="url(#fowyuf8)" height="468.125" style="stroke: #000000; stroke-width: 2.0;" width="329.5" x="192" y="541.4531"/><line style="stroke: #A80036; stroke-width: 1.0; stroke-dasharray: 5.0,5.0;" x1="51" x2="51" y1="116.5938" y2="1026.5781"/><line style="stroke: #A80036; stroke-width: 1.0; stroke-dasharray: 5.0,5.0;" x1="148" x2="148" y1="116.5938" y2="1026.5781"/><line style="stroke: #A80036; stroke-width: 1.0; stroke-dasharray: 5.0,5.0;" x1="248" x2="248" y1="116.5938" y2="1026.5781"/><line style="stroke: #A80036; stroke-width: 1.0; stroke-dasharray: 5.0,5.0;" x1="482.5" x2="482.5" y1="116.5938" y2="1026.5781"/><text fill="#000000" font-family="sans-serif" font-size="14" lengthAdjust="spacingAndGlyphs" textLength="81" x="8" y="113.292">Participant1</text><ellipse cx="51.5" cy="43.2969" fill="#FEFECE" filter="url(#fowyuf8)" rx="8" ry="8" style="stroke: #A80036; stroke-width: 2.0;"/><path d="M51.5,51.2969 L51.5,78.2969 M38.5,59.2969 L64.5,59.2969 M51.5,78.2969 L38.5,93.2969 M51.5,78.2969 L64.5,93.2969 " fill="#FEFECE" filter="url(#fowyuf8)" style="stroke: #A80036; stroke-width: 2.0;"/><text fill="#000000" font-family="sans-serif" font-size="14" lengthAdjust="spacingAndGlyphs" textLength="81" x="8" y="1038.5732">Participant1</text><ellipse cx="51.5" cy="1051.875" fill="#FEFECE" filter="url(#fowyuf8)" rx="8" ry="8" style="stroke: #A80036; stroke-width: 2.0;"/><path d="M51.5,1059.875 L51.5,1086.875 M38.5,1067.875 L64.5,1067.875 M51.5,1086.875 L38.5,1101.875 M51.5,1086.875 L64.5,1101.875 " fill="#FEFECE" filter="url(#fowyuf8)" style="stroke: #A80036; stroke-width: 2.0;"/><text fill="#000000" font-family="sans-serif" font-size="14" lengthAdjust="spacingAndGlyphs" textLength="81" x="105" y="113.292">Participant2</text><ellipse cx="148.5" cy="43.2969" fill="#FEFECE" filter="url(#fowyuf8)" rx="8" ry="8" style="stroke: #A80036; stroke-width: 2.0;"/><path d="M148.5,51.2969 L148.5,78.2969 M135.5,59.2969 L161.5,59.2969 M148.5,78.2969 L135.5,93.2969 M148.5,78.2969 L161.5,93.2969 " fill="#FEFECE" filter="url(#fowyuf8)" style="stroke: #A80036; stroke-width: 2.0;"/><text fill="#000000" font-family="sans-serif" font-size="14" lengthAdjust="spacingAndGlyphs" textLength="81" x="105" y="1038.5732">Participant2</text><ellipse cx="148.5" cy="1051.875" fill="#FEFECE" filter="url(#fowyuf8)" rx="8" ry="8" style="stroke: #A80036; stroke-width: 2.0;"/><path d="M148.5,1059.875 L148.5,1086.875 M135.5,1067.875 L161.5,1067.875 M148.5,1086.875 L135.5,1101.875 M148.5,1086.875 L161.5,1101.875 " fill="#FEFECE" filter="url(#fowyuf8)" style="stroke: #A80036; stroke-width: 2.0;"/><rect fill="#FEFECE" filter="url(#fowyuf8)" height="30.2969" style="stroke: #A80036; stroke-width: 1.5;" width="89" x="202" y="81.2969"/><text fill="#000000" font-family="sans-serif" font-size="14" lengthAdjust="spacingAndGlyphs" textLength="75" x="209" y="101.292">Restcomm</text><rect fill="#FEFECE" filter="url(#fowyuf8)" height="30.2969" style="stroke: #A80036; stroke-width: 1.5;" width="89" x="202" y="1025.5781"/><text fill="#000000" font-family="sans-serif" font-size="14" lengthAdjust="spacingAndGlyphs" textLength="75" x="209" y="1045.5732">Restcomm</text><rect fill="#FEFECE" filter="url(#fowyuf8)" height="30.2969" style="stroke: #A80036; stroke-width: 1.5;" width="54" x="453.5" y="81.2969"/><text fill="#000000" font-family="sans-serif" font-size="14" lengthAdjust="spacingAndGlyphs" textLength="40" x="460.5" y="101.292">RMS1</text><rect fill="#FEFECE" filter="url(#fowyuf8)" height="30.2969" style="stroke: #A80036; stroke-width: 1.5;" width="54" x="453.5" y="1025.5781"/><text fill="#000000" font-family="sans-serif" font-size="14" lengthAdjust="spacingAndGlyphs" textLength="40" x="460.5" y="1045.5732">RMS1</text><polygon fill="#A80036" points="236.5,143.5938,246.5,147.5938,236.5,151.5938,240.5,147.5938" style="stroke: #A80036; stroke-width: 1.0;"/><line style="stroke: #A80036; stroke-width: 1.0;" x1="51.5" x2="242.5" y1="147.5938" y2="147.5938"/><text fill="#000000" font-family="sans-serif" font-size="13" lengthAdjust="spacingAndGlyphs" textLength="50" x="58.5" y="142.6606">sip: BYE</text><polygon fill="#A80036" points="62.5,172.7266,52.5,176.7266,62.5,180.7266,58.5,176.7266" style="stroke: #A80036; stroke-width: 1.0;"/><line style="stroke: #A80036; stroke-width: 1.0;" x1="56.5" x2="247.5" y1="176.7266" y2="176.7266"/><text fill="#000000" font-family="sans-serif" font-size="13" lengthAdjust="spacingAndGlyphs" textLength="72" x="68.5" y="171.7935">sip: 200|OK</text><rect fill="#EEEEEE" filter="url(#fowyuf8)" height="3" style="stroke: #EEEEEE; stroke-width: 1.0;" width="630" x="3" y="205.4258"/><line style="stroke: #000000; stroke-width: 1.0;" x1="3" x2="633" y1="205.4258" y2="205.4258"/><line style="stroke: #000000; stroke-width: 1.0;" x1="3" x2="633" y1="208.4258" y2="208.4258"/><rect fill="#EEEEEE" filter="url(#fowyuf8)" height="23.1328" style="stroke: #000000; stroke-width: 2.0;" width="365" x="135.5" y="194.8594"/><text fill="#000000" font-family="sans-serif" font-size="13" font-weight="bold" lengthAdjust="spacingAndGlyphs" textLength="346" x="141.5" y="210.9263">delete local connection b/w cnf/1 and bridge/1</text><polygon fill="#A80036" points="470.5,259.9922,480.5,263.9922,470.5,267.9922,474.5,263.9922" style="stroke: #A80036; stroke-width: 1.0;"/><line style="stroke: #A80036; stroke-width: 1.0; stroke-dasharray: 2.0,2.0;" x1="248.5" x2="476.5" y1="263.9922" y2="263.9922"/><text fill="#000000" font-family="sans-serif" font-size="13" lengthAdjust="spacingAndGlyphs" textLength="210" x="255.5" y="244.0591">DLCX mobicents/bridge/1@RMS1</text><text fill="#000000" font-family="sans-serif" font-size="13" lengthAdjust="spacingAndGlyphs" textLength="187" x="255.5" y="259.1919">callid=xyz, connectionid=abc</text><polygon fill="#A80036" points="259.5,289.2578,249.5,293.2578,259.5,297.2578,255.5,293.2578" style="stroke: #A80036; stroke-width: 1.0;"/><line style="stroke: #A80036; stroke-width: 1.0; stroke-dasharray: 2.0,2.0;" x1="253.5" x2="481.5" y1="293.2578" y2="293.2578"/><text fill="#000000" font-family="sans-serif" font-size="13" lengthAdjust="spacingAndGlyphs" textLength="159" x="265.5" y="288.3247">tx was executed normaly</text><polygon fill="#A80036" points="470.5,333.3906,480.5,337.3906,470.5,341.3906,474.5,337.3906" style="stroke: #A80036; stroke-width: 1.0;"/><line style="stroke: #A80036; stroke-width: 1.0; stroke-dasharray: 2.0,2.0;" x1="248.5" x2="476.5" y1="337.3906" y2="337.3906"/><text fill="#000000" font-family="sans-serif" font-size="13" lengthAdjust="spacingAndGlyphs" textLength="189" x="255.5" y="317.4575">DLCX mobicents/cnf/1@RMS1</text><text fill="#000000" font-family="sans-serif" font-size="13" lengthAdjust="spacingAndGlyphs" textLength="187" x="255.5" y="332.5903">callid=xyz, connectionid=abc</text><polygon fill="#A80036" points="259.5,362.6563,249.5,366.6563,259.5,370.6563,255.5,366.6563" style="stroke: #A80036; stroke-width: 1.0;"/><line style="stroke: #A80036; stroke-width: 1.0; stroke-dasharray: 2.0,2.0;" x1="253.5" x2="481.5" y1="366.6563" y2="366.6563"/><text fill="#000000" font-family="sans-serif" font-size="13" lengthAdjust="spacingAndGlyphs" textLength="159" x="265.5" y="361.7231">tx was executed normaly</text><rect fill="#EEEEEE" filter="url(#fowyuf8)" height="3" style="stroke: #EEEEEE; stroke-width: 1.0;" width="630" x="3" y="395.3555"/><line style="stroke: #000000; stroke-width: 1.0;" x1="3" x2="633" y1="395.3555" y2="395.3555"/><line style="stroke: #000000; stroke-width: 1.0;" x1="3" x2="633" y1="398.3555" y2="398.3555"/><rect fill="#EEEEEE" filter="url(#fowyuf8)" height="23.1328" style="stroke: #000000; stroke-width: 2.0;" width="199" x="218.5" y="384.7891"/><text fill="#000000" font-family="sans-serif" font-size="13" font-weight="bold" lengthAdjust="spacingAndGlyphs" textLength="185" x="224.5" y="400.856">delete bridge/1 and ivr/1</text><polygon fill="#A80036" points="470.5,434.9219,480.5,438.9219,470.5,442.9219,474.5,438.9219" style="stroke: #A80036; stroke-width: 1.0;"/><line style="stroke: #A80036; stroke-width: 1.0;" x1="248.5" x2="476.5" y1="438.9219" y2="438.9219"/><text fill="#000000" font-family="sans-serif" font-size="13" lengthAdjust="spacingAndGlyphs" textLength="185" x="255.5" y="433.9888">DLCX mobicents/ivr/1@RMS1</text><polygon fill="#A80036" points="259.5,464.0547,249.5,468.0547,259.5,472.0547,255.5,468.0547" style="stroke: #A80036; stroke-width: 1.0;"/><line style="stroke: #A80036; stroke-width: 1.0;" x1="253.5" x2="481.5" y1="468.0547" y2="468.0547"/><text fill="#000000" font-family="sans-serif" font-size="13" lengthAdjust="spacingAndGlyphs" textLength="159" x="265.5" y="463.1216">tx was executed normaly</text><polygon fill="#A80036" points="470.5,493.1875,480.5,497.1875,470.5,501.1875,474.5,497.1875" style="stroke: #A80036; stroke-width: 1.0;"/><line style="stroke: #A80036; stroke-width: 1.0;" x1="248.5" x2="476.5" y1="497.1875" y2="497.1875"/><text fill="#000000" font-family="sans-serif" font-size="13" lengthAdjust="spacingAndGlyphs" textLength="210" x="255.5" y="492.2544">DLCX mobicents/bridge/1@RMS1</text><polygon fill="#A80036" points="259.5,522.3203,249.5,526.3203,259.5,530.3203,255.5,526.3203" style="stroke: #A80036; stroke-width: 1.0;"/><line style="stroke: #A80036; stroke-width: 1.0;" x1="253.5" x2="481.5" y1="526.3203" y2="526.3203"/><text fill="#000000" font-family="sans-serif" font-size="13" lengthAdjust="spacingAndGlyphs" textLength="159" x="265.5" y="521.3872">tx was executed normaly</text><rect fill="none" height="468.125" style="stroke: #000000; stroke-width: 2.0;" width="329.5" x="192" y="541.4531"/><polygon fill="#EEEEEE" points="192,541.4531,256,541.4531,256,548.4531,246,558.4531,192,558.4531,192,541.4531" style="stroke: #000000; stroke-width: 2.0;"/><text fill="#000000" font-family="sans-serif" font-size="13" font-weight="bold" lengthAdjust="spacingAndGlyphs" textLength="19" x="207" y="554.52">alt</text><text fill="#000000" font-family="sans-serif" font-size="11" font-weight="bold" lengthAdjust="spacingAndGlyphs" textLength="243" x="271" y="553.6636">[If this is last participant on this RMS]</text><rect fill="#EEEEEE" filter="url(#fowyuf8)" height="3" style="stroke: #EEEEEE; stroke-width: 1.0;" width="630" x="3" y="579.1523"/><line style="stroke: #000000; stroke-width: 1.0;" x1="3" x2="633" y1="579.1523" y2="579.1523"/><line style="stroke: #000000; stroke-width: 1.0;" x1="3" x2="633" y1="582.1523" y2="582.1523"/><rect fill="#EEEEEE" filter="url(#fowyuf8)" height="23.1328" style="stroke: #000000; stroke-width: 2.0;" width="606" x="15" y="568.5859"/><text fill="#000000" font-family="sans-serif" font-size="13" font-weight="bold" lengthAdjust="spacingAndGlyphs" textLength="587" x="21" y="584.6528">delete local connection b/w cnf/1 and bridge/3 (the one connecting with RMS2)</text><polygon fill="#A80036" points="470.5,633.7188,480.5,637.7188,470.5,641.7188,474.5,637.7188" style="stroke: #A80036; stroke-width: 1.0;"/><line style="stroke: #A80036; stroke-width: 1.0; stroke-dasharray: 2.0,2.0;" x1="248.5" x2="476.5" y1="637.7188" y2="637.7188"/><text fill="#000000" font-family="sans-serif" font-size="13" lengthAdjust="spacingAndGlyphs" textLength="210" x="255.5" y="617.7856">DLCX mobicents/bridge/3@RMS1</text><text fill="#000000" font-family="sans-serif" font-size="13" lengthAdjust="spacingAndGlyphs" textLength="187" x="255.5" y="632.9185">callid=xyz, connectionid=abc</text><polygon fill="#A80036" points="259.5,662.9844,249.5,666.9844,259.5,670.9844,255.5,666.9844" style="stroke: #A80036; stroke-width: 1.0;"/><line style="stroke: #A80036; stroke-width: 1.0; stroke-dasharray: 2.0,2.0;" x1="253.5" x2="481.5" y1="666.9844" y2="666.9844"/><text fill="#000000" font-family="sans-serif" font-size="13" lengthAdjust="spacingAndGlyphs" textLength="159" x="265.5" y="662.0513">tx was executed normaly</text><polygon fill="#A80036" points="470.5,707.1172,480.5,711.1172,470.5,715.1172,474.5,711.1172" style="stroke: #A80036; stroke-width: 1.0;"/><line style="stroke: #A80036; stroke-width: 1.0; stroke-dasharray: 2.0,2.0;" x1="248.5" x2="476.5" y1="711.1172" y2="711.1172"/><text fill="#000000" font-family="sans-serif" font-size="13" lengthAdjust="spacingAndGlyphs" textLength="189" x="255.5" y="691.1841">DLCX mobicents/cnf/1@RMS1</text><text fill="#000000" font-family="sans-serif" font-size="13" lengthAdjust="spacingAndGlyphs" textLength="187" x="255.5" y="706.3169">callid=xyz, connectionid=abc</text><polygon fill="#A80036" points="259.5,736.3828,249.5,740.3828,259.5,744.3828,255.5,740.3828" style="stroke: #A80036; stroke-width: 1.0;"/><line style="stroke: #A80036; stroke-width: 1.0; stroke-dasharray: 2.0,2.0;" x1="253.5" x2="481.5" y1="740.3828" y2="740.3828"/><text fill="#000000" font-family="sans-serif" font-size="13" lengthAdjust="spacingAndGlyphs" textLength="159" x="265.5" y="735.4497">tx was executed normaly</text><rect fill="#EEEEEE" filter="url(#fowyuf8)" height="3" style="stroke: #EEEEEE; stroke-width: 1.0;" width="630" x="3" y="769.082"/><line style="stroke: #000000; stroke-width: 1.0;" x1="3" x2="633" y1="769.082" y2="769.082"/><line style="stroke: #000000; stroke-width: 1.0;" x1="3" x2="633" y1="772.082" y2="772.082"/><rect fill="#EEEEEE" filter="url(#fowyuf8)" height="23.1328" style="stroke: #000000; stroke-width: 2.0;" width="421" x="107.5" y="758.5156"/><text fill="#000000" font-family="sans-serif" font-size="13" font-weight="bold" lengthAdjust="spacingAndGlyphs" textLength="402" x="113.5" y="774.5825">delete bridge/3 (the one connecting RMS1 with RMS2)</text><polygon fill="#A80036" points="470.5,808.6484,480.5,812.6484,470.5,816.6484,474.5,812.6484" style="stroke: #A80036; stroke-width: 1.0;"/><line style="stroke: #A80036; stroke-width: 1.0; stroke-dasharray: 2.0,2.0;" x1="248.5" x2="476.5" y1="812.6484" y2="812.6484"/><text fill="#000000" font-family="sans-serif" font-size="13" lengthAdjust="spacingAndGlyphs" textLength="210" x="255.5" y="807.7153">DLCX mobicents/bridge/3@RMS1</text><polygon fill="#A80036" points="259.5,837.7813,249.5,841.7813,259.5,845.7813,255.5,841.7813" style="stroke: #A80036; stroke-width: 1.0;"/><line style="stroke: #A80036; stroke-width: 1.0; stroke-dasharray: 2.0,2.0;" x1="253.5" x2="481.5" y1="841.7813" y2="841.7813"/><text fill="#000000" font-family="sans-serif" font-size="13" lengthAdjust="spacingAndGlyphs" textLength="159" x="265.5" y="836.8481">tx was executed normaly</text><rect fill="#EEEEEE" filter="url(#fowyuf8)" height="3" style="stroke: #EEEEEE; stroke-width: 1.0;" width="630" x="3" y="870.4805"/><line style="stroke: #000000; stroke-width: 1.0;" x1="3" x2="633" y1="870.4805" y2="870.4805"/><line style="stroke: #000000; stroke-width: 1.0;" x1="3" x2="633" y1="873.4805" y2="873.4805"/><rect fill="#EEEEEE" filter="url(#fowyuf8)" height="23.1328" style="stroke: #000000; stroke-width: 2.0;" width="205" x="215.5" y="859.9141"/><text fill="#000000" font-family="sans-serif" font-size="13" font-weight="bold" lengthAdjust="spacingAndGlyphs" textLength="186" x="221.5" y="875.981">delete cnf/1 and it's ivr/2</text><polygon fill="#A80036" points="470.5,910.0469,480.5,914.0469,470.5,918.0469,474.5,914.0469" style="stroke: #A80036; stroke-width: 1.0;"/><line style="stroke: #A80036; stroke-width: 1.0; stroke-dasharray: 2.0,2.0;" x1="248.5" x2="476.5" y1="914.0469" y2="914.0469"/><text fill="#000000" font-family="sans-serif" font-size="13" lengthAdjust="spacingAndGlyphs" textLength="185" x="255.5" y="909.1138">DLCX mobicents/ivr/2@RMS1</text><polygon fill="#A80036" points="259.5,939.1797,249.5,943.1797,259.5,947.1797,255.5,943.1797" style="stroke: #A80036; stroke-width: 1.0;"/><line style="stroke: #A80036; stroke-width: 1.0; stroke-dasharray: 2.0,2.0;" x1="253.5" x2="481.5" y1="943.1797" y2="943.1797"/><text fill="#000000" font-family="sans-serif" font-size="13" lengthAdjust="spacingAndGlyphs" textLength="159" x="265.5" y="938.2466">tx was executed normaly</text><polygon fill="#A80036" points="470.5,968.3125,480.5,972.3125,470.5,976.3125,474.5,972.3125" style="stroke: #A80036; stroke-width: 1.0;"/><line style="stroke: #A80036; stroke-width: 1.0; stroke-dasharray: 2.0,2.0;" x1="248.5" x2="476.5" y1="972.3125" y2="972.3125"/><text fill="#000000" font-family="sans-serif" font-size="13" lengthAdjust="spacingAndGlyphs" textLength="189" x="255.5" y="967.3794">DLCX mobicents/cnf/1@RMS1</text><polygon fill="#A80036" points="259.5,997.4453,249.5,1001.4453,259.5,1005.4453,255.5,1001.4453" style="stroke: #A80036; stroke-width: 1.0;"/><line style="stroke: #A80036; stroke-width: 1.0; stroke-dasharray: 2.0,2.0;" x1="253.5" x2="481.5" y1="1001.4453" y2="1001.4453"/><text fill="#000000" font-family="sans-serif" font-size="13" lengthAdjust="spacingAndGlyphs" textLength="159" x="265.5" y="996.5122">tx was executed normaly</text></g></svg>