<?xml version="1.0" encoding="UTF-8" standalone="no"?><svg xmlns="http://www.w3.org/2000/svg" xmlns:xlink="http://www.w3.org/1999/xlink" contentScriptType="application/ecmascript" contentStyleType="text/css" height="1606px" preserveAspectRatio="none" style="width:1308px;height:1606px;" version="1.1" viewBox="0 0 1308 1606" width="1308px" zoomAndPan="magnify"><defs><filter height="300%" id="fw3969d" width="300%" x="-1" y="-1"><feGaussianBlur result="blurOut" stdDeviation="2.0"/><feColorMatrix in="blurOut" result="blurOut2" type="matrix" values="0 0 0 0 0 0 0 0 0 0 0 0 0 0 0 0 0 0 .4 0"/><feOffset dx="4.0" dy="4.0" in="blurOut2" result="blurOut3"/><feBlend in="SourceGraphic" in2="blurOut3" mode="normal"/></filter></defs><g><text fill="#000000" font-family="sans-serif" font-size="14" font-weight="bold" lengthAdjust="spacingAndGlyphs" textLength="297" x="504.5" y="22.9951">cascading-conference-mrb-sequence</text><rect fill="#FFFFFF" filter="url(#fw3969d)" height="84.8125" style="stroke: #000000; stroke-width: 2.0;" width="467.5" x="220" y="222.2578"/><rect fill="#90EE90" height="1571.4453" style="stroke: #A80036; stroke-width: 1.0;" width="608.5" x="4" y="34.2969"/><text fill="#000000" font-family="sans-serif" font-size="13" font-weight="bold" lengthAdjust="spacingAndGlyphs" textLength="85" x="265.75" y="46.3638">RC1 Master</text><rect fill="#ADD8E6" height="1571.4453" style="stroke: #A80036; stroke-width: 1.0;" width="77" x="614.5" y="34.2969"/><text fill="#000000" font-family="sans-serif" font-size="13" font-weight="bold" lengthAdjust="spacingAndGlyphs" textLength="71" x="617.5" y="46.3638">Database</text><rect fill="#FFB6C1" height="1571.4453" style="stroke: #A80036; stroke-width: 1.0;" width="608.5" x="693.5" y="34.2969"/><text fill="#000000" font-family="sans-serif" font-size="13" font-weight="bold" lengthAdjust="spacingAndGlyphs" textLength="73" x="961.25" y="46.3638">RC2 Slave</text><line style="stroke: #A80036; stroke-width: 1.0; stroke-dasharray: 5.0,5.0;" x1="66" x2="66" y1="88.7266" y2="1567.4453"/><line style="stroke: #A80036; stroke-width: 1.0; stroke-dasharray: 5.0,5.0;" x1="259" x2="259" y1="88.7266" y2="1567.4453"/><line style="stroke: #A80036; stroke-width: 1.0; stroke-dasharray: 5.0,5.0;" x1="333" x2="333" y1="88.7266" y2="1567.4453"/><line style="stroke: #A80036; stroke-width: 1.0; stroke-dasharray: 5.0,5.0;" x1="579.5" x2="579.5" y1="88.7266" y2="1567.4453"/><line style="stroke: #A80036; stroke-width: 1.0; stroke-dasharray: 5.0,5.0;" x1="652.5" x2="652.5" y1="88.7266" y2="1567.4453"/><line style="stroke: #A80036; stroke-width: 1.0; stroke-dasharray: 5.0,5.0;" x1="726.5" x2="726.5" y1="88.7266" y2="1567.4453"/><line style="stroke: #A80036; stroke-width: 1.0; stroke-dasharray: 5.0,5.0;" x1="972" x2="972" y1="88.7266" y2="1567.4453"/><line style="stroke: #A80036; stroke-width: 1.0; stroke-dasharray: 5.0,5.0;" x1="1046" x2="1046" y1="88.7266" y2="1567.4453"/><line style="stroke: #A80036; stroke-width: 1.0; stroke-dasharray: 5.0,5.0;" x1="1239" x2="1239" y1="88.7266" y2="1567.4453"/><rect fill="#FEFECE" filter="url(#fw3969d)" height="30.2969" style="stroke: #A80036; stroke-width: 1.5;" width="113" x="8" y="53.4297"/><text fill="#000000" font-family="sans-serif" font-size="14" lengthAdjust="spacingAndGlyphs" textLength="99" x="15" y="73.4248">CnfController1</text><rect fill="#FEFECE" filter="url(#fw3969d)" height="30.2969" style="stroke: #A80036; stroke-width: 1.5;" width="113" x="8" y="1566.4453"/><text fill="#000000" font-family="sans-serif" font-size="14" lengthAdjust="spacingAndGlyphs" textLength="99" x="15" y="1586.4404">CnfController1</text><rect fill="#FEFECE" filter="url(#fw3969d)" height="30.2969" style="stroke: #A80036; stroke-width: 1.5;" width="55" x="230" y="53.4297"/><text fill="#000000" font-family="sans-serif" font-size="14" lengthAdjust="spacingAndGlyphs" textLength="41" x="237" y="73.4248">MRB1</text><rect fill="#FEFECE" filter="url(#fw3969d)" height="30.2969" style="stroke: #A80036; stroke-width: 1.5;" width="55" x="230" y="1566.4453"/><text fill="#000000" font-family="sans-serif" font-size="14" lengthAdjust="spacingAndGlyphs" textLength="41" x="237" y="1586.4404">MRB1</text><rect fill="#FEFECE" filter="url(#fw3969d)" height="30.2969" style="stroke: #A80036; stroke-width: 1.5;" width="65" x="299" y="53.4297"/><text fill="#000000" font-family="sans-serif" font-size="14" lengthAdjust="spacingAndGlyphs" textLength="51" x="306" y="73.4248">CMRC1</text><rect fill="#FEFECE" filter="url(#fw3969d)" height="30.2969" style="stroke: #A80036; stroke-width: 1.5;" width="65" x="299" y="1566.4453"/><text fill="#000000" font-family="sans-serif" font-size="14" lengthAdjust="spacingAndGlyphs" textLength="51" x="306" y="1586.4404">CMRC1</text><rect fill="#FEFECE" filter="url(#fw3969d)" height="30.2969" style="stroke: #A80036; stroke-width: 1.5;" width="54" x="550.5" y="53.4297"/><text fill="#000000" font-family="sans-serif" font-size="14" lengthAdjust="spacingAndGlyphs" textLength="40" x="557.5" y="73.4248">RMS1</text><rect fill="#FEFECE" filter="url(#fw3969d)" height="30.2969" style="stroke: #A80036; stroke-width: 1.5;" width="54" x="550.5" y="1566.4453"/><text fill="#000000" font-family="sans-serif" font-size="14" lengthAdjust="spacingAndGlyphs" textLength="40" x="557.5" y="1586.4404">RMS1</text><rect fill="#FEFECE" filter="url(#fw3969d)" height="30.2969" style="stroke: #A80036; stroke-width: 1.5;" width="45" x="628.5" y="53.4297"/><text fill="#000000" font-family="sans-serif" font-size="14" lengthAdjust="spacingAndGlyphs" textLength="31" x="635.5" y="73.4248">DAO</text><rect fill="#FEFECE" filter="url(#fw3969d)" height="30.2969" style="stroke: #A80036; stroke-width: 1.5;" width="45" x="628.5" y="1566.4453"/><text fill="#000000" font-family="sans-serif" font-size="14" lengthAdjust="spacingAndGlyphs" textLength="31" x="635.5" y="1586.4404">DAO</text><rect fill="#FEFECE" filter="url(#fw3969d)" height="30.2969" style="stroke: #A80036; stroke-width: 1.5;" width="54" x="697.5" y="53.4297"/><text fill="#000000" font-family="sans-serif" font-size="14" lengthAdjust="spacingAndGlyphs" textLength="40" x="704.5" y="73.4248">RMS2</text><rect fill="#FEFECE" filter="url(#fw3969d)" height="30.2969" style="stroke: #A80036; stroke-width: 1.5;" width="54" x="697.5" y="1566.4453"/><text fill="#000000" font-family="sans-serif" font-size="14" lengthAdjust="spacingAndGlyphs" textLength="40" x="704.5" y="1586.4404">RMS2</text><rect fill="#FEFECE" filter="url(#fw3969d)" height="30.2969" style="stroke: #A80036; stroke-width: 1.5;" width="65" x="938" y="53.4297"/><text fill="#000000" font-family="sans-serif" font-size="14" lengthAdjust="spacingAndGlyphs" textLength="51" x="945" y="73.4248">CMRC2</text><rect fill="#FEFECE" filter="url(#fw3969d)" height="30.2969" style="stroke: #A80036; stroke-width: 1.5;" width="65" x="938" y="1566.4453"/><text fill="#000000" font-family="sans-serif" font-size="14" lengthAdjust="spacingAndGlyphs" textLength="51" x="945" y="1586.4404">CMRC2</text><rect fill="#FEFECE" filter="url(#fw3969d)" height="30.2969" style="stroke: #A80036; stroke-width: 1.5;" width="55" x="1017" y="53.4297"/><text fill="#000000" font-family="sans-serif" font-size="14" lengthAdjust="spacingAndGlyphs" textLength="41" x="1024" y="73.4248">MRB2</text><rect fill="#FEFECE" filter="url(#fw3969d)" height="30.2969" style="stroke: #A80036; stroke-width: 1.5;" width="55" x="1017" y="1566.4453"/><text fill="#000000" font-family="sans-serif" font-size="14" lengthAdjust="spacingAndGlyphs" textLength="41" x="1024" y="1586.4404">MRB2</text><rect fill="#FEFECE" filter="url(#fw3969d)" height="30.2969" style="stroke: #A80036; stroke-width: 1.5;" width="113" x="1181" y="53.4297"/><text fill="#000000" font-family="sans-serif" font-size="14" lengthAdjust="spacingAndGlyphs" textLength="99" x="1188" y="73.4248">CnfController2</text><rect fill="#FEFECE" filter="url(#fw3969d)" height="30.2969" style="stroke: #A80036; stroke-width: 1.5;" width="113" x="1181" y="1566.4453"/><text fill="#000000" font-family="sans-serif" font-size="14" lengthAdjust="spacingAndGlyphs" textLength="99" x="1188" y="1586.4404">CnfController2</text><rect fill="#EEEEEE" filter="url(#fw3969d)" height="3" style="stroke: #EEEEEE; stroke-width: 1.0;" width="1300" x="3" y="119.293"/><line style="stroke: #000000; stroke-width: 1.0;" x1="3" x2="1303" y1="119.293" y2="119.293"/><line style="stroke: #000000; stroke-width: 1.0;" x1="3" x2="1303" y1="122.293" y2="122.293"/><rect fill="#EEEEEE" filter="url(#fw3969d)" height="23.1328" style="stroke: #000000; stroke-width: 2.0;" width="332" x="487" y="108.7266"/><text fill="#000000" font-family="sans-serif" font-size="13" font-weight="bold" lengthAdjust="spacingAndGlyphs" textLength="318" x="493" y="124.7935">1st participant (aka Master) enters on RC1</text><polygon fill="#A80036" points="247.5,173.8594,257.5,177.8594,247.5,181.8594,251.5,177.8594" style="stroke: #A80036; stroke-width: 1.0;"/><line style="stroke: #A80036; stroke-width: 1.0;" x1="66.5" x2="253.5" y1="177.8594" y2="177.8594"/><text fill="#000000" font-family="sans-serif" font-size="13" lengthAdjust="spacingAndGlyphs" textLength="116" x="73.5" y="157.9263">GetMediaGateway</text><text fill="#000000" font-family="sans-serif" font-size="13" lengthAdjust="spacingAndGlyphs" textLength="70" x="73.5" y="173.0591">(cnf name)</text><polygon fill="#A80036" points="77.5,203.125,67.5,207.125,77.5,211.125,73.5,207.125" style="stroke: #A80036; stroke-width: 1.0;"/><line style="stroke: #A80036; stroke-width: 1.0;" x1="71.5" x2="258.5" y1="207.125" y2="207.125"/><text fill="#000000" font-family="sans-serif" font-size="13" lengthAdjust="spacingAndGlyphs" textLength="150" x="83.5" y="202.1919">MediaGateway to RMS1</text><rect fill="none" height="84.8125" style="stroke: #000000; stroke-width: 2.0;" width="467.5" x="220" y="222.2578"/><polygon fill="#EEEEEE" points="220,222.2578,284,222.2578,284,229.2578,274,239.2578,220,239.2578,220,222.2578" style="stroke: #000000; stroke-width: 2.0;"/><text fill="#000000" font-family="sans-serif" font-size="13" font-weight="bold" lengthAdjust="spacingAndGlyphs" textLength="19" x="235" y="235.3247">alt</text><text fill="#000000" font-family="sans-serif" font-size="11" font-weight="bold" lengthAdjust="spacingAndGlyphs" textLength="119" x="299" y="234.4683">[If there is no conf</text><text fill="#000000" font-family="sans-serif" font-size="11" font-weight="bold" lengthAdjust="spacingAndGlyphs" textLength="111" x="299" y="247.2729">in 'Running' state</text><text fill="#000000" font-family="sans-serif" font-size="11" font-weight="bold" lengthAdjust="spacingAndGlyphs" textLength="148" x="299" y="260.0776">in DB with same name]</text><polygon fill="#A80036" points="641,294.8047,651,298.8047,641,302.8047,645,298.8047" style="stroke: #A80036; stroke-width: 1.0;"/><line style="stroke: #A80036; stroke-width: 1.0;" x1="259.5" x2="647" y1="298.8047" y2="298.8047"/><text fill="#000000" font-family="sans-serif" font-size="13" lengthAdjust="spacingAndGlyphs" textLength="82" x="266.5" y="278.8716">generate Sid</text><text fill="#000000" font-family="sans-serif" font-size="13" lengthAdjust="spacingAndGlyphs" textLength="146" x="266.5" y="294.0044">save conferencerecord</text><polygon fill="#A80036" points="247.5,346.0703,257.5,350.0703,247.5,354.0703,251.5,350.0703" style="stroke: #A80036; stroke-width: 1.0;"/><line style="stroke: #A80036; stroke-width: 1.0;" x1="66.5" x2="253.5" y1="350.0703" y2="350.0703"/><text fill="#000000" font-family="sans-serif" font-size="13" lengthAdjust="spacingAndGlyphs" textLength="23" x="73.5" y="330.1372">Get</text><text fill="#000000" font-family="sans-serif" font-size="13" lengthAdjust="spacingAndGlyphs" textLength="169" x="73.5" y="345.27">CnfMediaResourceCntroler</text><polygon fill="#A80036" points="77.5,390.3359,67.5,394.3359,77.5,398.3359,73.5,394.3359" style="stroke: #A80036; stroke-width: 1.0;"/><line style="stroke: #A80036; stroke-width: 1.0;" x1="71.5" x2="258.5" y1="394.3359" y2="394.3359"/><text fill="#000000" font-family="sans-serif" font-size="13" lengthAdjust="spacingAndGlyphs" textLength="62" x="83.5" y="374.4028">new actor</text><text fill="#000000" font-family="sans-serif" font-size="13" lengthAdjust="spacingAndGlyphs" textLength="45" x="83.5" y="389.5356">CMRC1</text><line style="stroke: #A80036; stroke-width: 1.0;" x1="66.5" x2="108.5" y1="423.7344" y2="423.7344"/><line style="stroke: #A80036; stroke-width: 1.0;" x1="108.5" x2="108.5" y1="423.7344" y2="436.7344"/><line style="stroke: #A80036; stroke-width: 1.0;" x1="67.5" x2="108.5" y1="436.7344" y2="436.7344"/><polygon fill="#A80036" points="77.5,432.7344,67.5,436.7344,77.5,440.7344,73.5,436.7344" style="stroke: #A80036; stroke-width: 1.0;"/><text fill="#000000" font-family="sans-serif" font-size="13" lengthAdjust="spacingAndGlyphs" textLength="100" x="73.5" y="418.6685">onJoinComplete</text><polygon fill="#A80036" points="321.5,461.7344,331.5,465.7344,321.5,469.7344,325.5,465.7344" style="stroke: #A80036; stroke-width: 1.0;"/><line style="stroke: #A80036; stroke-width: 1.0;" x1="66.5" x2="327.5" y1="465.7344" y2="465.7344"/><text fill="#000000" font-family="sans-serif" font-size="13" lengthAdjust="spacingAndGlyphs" textLength="199" x="73.5" y="460.8013">StartBridgeConnecting Process</text><polygon fill="#A80036" points="344.5,490.8672,334.5,494.8672,344.5,498.8672,340.5,494.8672" style="stroke: #A80036; stroke-width: 1.0;"/><polygon fill="#A80036" points="641,490.8672,651,494.8672,641,498.8672,645,494.8672" style="stroke: #A80036; stroke-width: 1.0;"/><line style="stroke: #A80036; stroke-width: 1.0;" x1="338.5" x2="647" y1="494.8672" y2="494.8672"/><text fill="#000000" font-family="sans-serif" font-size="13" lengthAdjust="spacingAndGlyphs" textLength="81" x="350.5" y="489.9341">get Cnf Data</text><polygon fill="#A80036" points="567.5,535,577.5,539,567.5,543,571.5,539" style="stroke: #A80036; stroke-width: 1.0;"/><line style="stroke: #A80036; stroke-width: 1.0;" x1="333.5" x2="573.5" y1="539" y2="539"/><text fill="#000000" font-family="sans-serif" font-size="13" lengthAdjust="spacingAndGlyphs" textLength="44" x="340.5" y="519.0669">(CRCX)</text><text fill="#000000" font-family="sans-serif" font-size="13" lengthAdjust="spacingAndGlyphs" textLength="85" x="340.5" y="534.1997">create bridge</text><polygon fill="#A80036" points="344.5,564.2656,334.5,568.2656,344.5,572.2656,340.5,568.2656" style="stroke: #A80036; stroke-width: 1.0;"/><line style="stroke: #A80036; stroke-width: 1.0;" x1="338.5" x2="578.5" y1="568.2656" y2="568.2656"/><text fill="#000000" font-family="sans-serif" font-size="13" lengthAdjust="spacingAndGlyphs" textLength="82" x="350.5" y="563.3325">success/SDP</text><polygon fill="#A80036" points="641,608.3984,651,612.3984,641,616.3984,645,612.3984" style="stroke: #A80036; stroke-width: 1.0;"/><line style="stroke: #A80036; stroke-width: 1.0;" x1="333.5" x2="647" y1="612.3984" y2="612.3984"/><text fill="#000000" font-family="sans-serif" font-size="13" lengthAdjust="spacingAndGlyphs" textLength="94" x="340.5" y="592.4653">save bridge ep</text><text fill="#000000" font-family="sans-serif" font-size="13" lengthAdjust="spacingAndGlyphs" textLength="88" x="340.5" y="607.5981">number in DB</text><polygon fill="#A80036" points="567.5,652.6641,577.5,656.6641,567.5,660.6641,571.5,656.6641" style="stroke: #A80036; stroke-width: 1.0;"/><line style="stroke: #A80036; stroke-width: 1.0;" x1="333.5" x2="573.5" y1="656.6641" y2="656.6641"/><text fill="#000000" font-family="sans-serif" font-size="13" lengthAdjust="spacingAndGlyphs" textLength="44" x="340.5" y="636.731">(CRCX)</text><text fill="#000000" font-family="sans-serif" font-size="13" lengthAdjust="spacingAndGlyphs" textLength="218" x="344.5" y="651.8638">connect bridge and conference ep</text><polygon fill="#A80036" points="344.5,681.9297,334.5,685.9297,344.5,689.9297,340.5,685.9297" style="stroke: #A80036; stroke-width: 1.0;"/><line style="stroke: #A80036; stroke-width: 1.0;" x1="338.5" x2="578.5" y1="685.9297" y2="685.9297"/><text fill="#000000" font-family="sans-serif" font-size="13" lengthAdjust="spacingAndGlyphs" textLength="51" x="350.5" y="680.9966">success</text><rect fill="#EEEEEE" filter="url(#fw3969d)" height="3" style="stroke: #EEEEEE; stroke-width: 1.0;" width="1300" x="3" y="714.6289"/><line style="stroke: #000000; stroke-width: 1.0;" x1="3" x2="1303" y1="714.6289" y2="714.6289"/><line style="stroke: #000000; stroke-width: 1.0;" x1="3" x2="1303" y1="717.6289" y2="717.6289"/><rect fill="#EEEEEE" filter="url(#fw3969d)" height="23.1328" style="stroke: #000000; stroke-width: 2.0;" width="325" x="490.5" y="704.0625"/><text fill="#000000" font-family="sans-serif" font-size="13" font-weight="bold" lengthAdjust="spacingAndGlyphs" textLength="311" x="496.5" y="720.1294">2nd participant (aka Slave) enters on RC2</text><polygon fill="#A80036" points="1057.5,769.1953,1047.5,773.1953,1057.5,777.1953,1053.5,773.1953" style="stroke: #A80036; stroke-width: 1.0;"/><line style="stroke: #A80036; stroke-width: 1.0;" x1="1051.5" x2="1238.5" y1="773.1953" y2="773.1953"/><text fill="#000000" font-family="sans-serif" font-size="13" lengthAdjust="spacingAndGlyphs" textLength="116" x="1063.5" y="753.2622">GetMediaGateway</text><text fill="#000000" font-family="sans-serif" font-size="13" lengthAdjust="spacingAndGlyphs" textLength="70" x="1063.5" y="768.395">(cnf name)</text><polygon fill="#A80036" points="1227.5,798.4609,1237.5,802.4609,1227.5,806.4609,1231.5,802.4609" style="stroke: #A80036; stroke-width: 1.0;"/><line style="stroke: #A80036; stroke-width: 1.0;" x1="1046.5" x2="1233.5" y1="802.4609" y2="802.4609"/><text fill="#000000" font-family="sans-serif" font-size="13" lengthAdjust="spacingAndGlyphs" textLength="150" x="1053.5" y="797.5278">MediaGateway to RMS2</text><polygon fill="#A80036" points="1057.5,842.5938,1047.5,846.5938,1057.5,850.5938,1053.5,846.5938" style="stroke: #A80036; stroke-width: 1.0;"/><line style="stroke: #A80036; stroke-width: 1.0;" x1="1051.5" x2="1238.5" y1="846.5938" y2="846.5938"/><text fill="#000000" font-family="sans-serif" font-size="13" lengthAdjust="spacingAndGlyphs" textLength="23" x="1063.5" y="826.6606">Get</text><text fill="#000000" font-family="sans-serif" font-size="13" lengthAdjust="spacingAndGlyphs" textLength="169" x="1063.5" y="841.7935">CnfMediaResourceCntroler</text><polygon fill="#A80036" points="1227.5,886.8594,1237.5,890.8594,1227.5,894.8594,1231.5,890.8594" style="stroke: #A80036; stroke-width: 1.0;"/><line style="stroke: #A80036; stroke-width: 1.0;" x1="1046.5" x2="1233.5" y1="890.8594" y2="890.8594"/><text fill="#000000" font-family="sans-serif" font-size="13" lengthAdjust="spacingAndGlyphs" textLength="62" x="1053.5" y="870.9263">new actor</text><text fill="#000000" font-family="sans-serif" font-size="13" lengthAdjust="spacingAndGlyphs" textLength="45" x="1053.5" y="886.0591">CMRC2</text><polygon fill="#A80036" points="983.5,916.125,973.5,920.125,983.5,924.125,979.5,920.125" style="stroke: #A80036; stroke-width: 1.0;"/><line style="stroke: #A80036; stroke-width: 1.0;" x1="977.5" x2="1238.5" y1="920.125" y2="920.125"/><text fill="#000000" font-family="sans-serif" font-size="13" lengthAdjust="spacingAndGlyphs" textLength="199" x="989.5" y="915.1919">StartBridgeConnecting Process</text><polygon fill="#A80036" points="664,945.2578,654,949.2578,664,953.2578,660,949.2578" style="stroke: #A80036; stroke-width: 1.0;"/><polygon fill="#A80036" points="960.5,945.2578,970.5,949.2578,960.5,953.2578,964.5,949.2578" style="stroke: #A80036; stroke-width: 1.0;"/><line style="stroke: #A80036; stroke-width: 1.0;" x1="658" x2="966.5" y1="949.2578" y2="949.2578"/><text fill="#000000" font-family="sans-serif" font-size="13" lengthAdjust="spacingAndGlyphs" textLength="81" x="670" y="944.3247">get Cnf Data</text><polygon fill="#A80036" points="737.5,989.3906,727.5,993.3906,737.5,997.3906,733.5,993.3906" style="stroke: #A80036; stroke-width: 1.0;"/><line style="stroke: #A80036; stroke-width: 1.0;" x1="731.5" x2="971.5" y1="993.3906" y2="993.3906"/><text fill="#000000" font-family="sans-serif" font-size="13" lengthAdjust="spacingAndGlyphs" textLength="44" x="743.5" y="973.4575">(CRCX)</text><text fill="#000000" font-family="sans-serif" font-size="13" lengthAdjust="spacingAndGlyphs" textLength="85" x="743.5" y="988.5903">create bridge</text><polygon fill="#A80036" points="960.5,1018.6563,970.5,1022.6563,960.5,1026.6563,964.5,1022.6563" style="stroke: #A80036; stroke-width: 1.0;"/><line style="stroke: #A80036; stroke-width: 1.0;" x1="726.5" x2="966.5" y1="1022.6563" y2="1022.6563"/><text fill="#000000" font-family="sans-serif" font-size="13" lengthAdjust="spacingAndGlyphs" textLength="82" x="733.5" y="1017.7231">success/SDP</text><polygon fill="#A80036" points="737.5,1062.7891,727.5,1066.7891,737.5,1070.7891,733.5,1066.7891" style="stroke: #A80036; stroke-width: 1.0;"/><line style="stroke: #A80036; stroke-width: 1.0;" x1="731.5" x2="971.5" y1="1066.7891" y2="1066.7891"/><text fill="#000000" font-family="sans-serif" font-size="13" lengthAdjust="spacingAndGlyphs" textLength="44" x="743.5" y="1046.856">(CRCX)</text><text fill="#000000" font-family="sans-serif" font-size="13" lengthAdjust="spacingAndGlyphs" textLength="218" x="747.5" y="1061.9888">connect bridge and conference ep</text><polygon fill="#A80036" points="960.5,1092.0547,970.5,1096.0547,960.5,1100.0547,964.5,1096.0547" style="stroke: #A80036; stroke-width: 1.0;"/><line style="stroke: #A80036; stroke-width: 1.0;" x1="726.5" x2="966.5" y1="1096.0547" y2="1096.0547"/><text fill="#000000" font-family="sans-serif" font-size="13" lengthAdjust="spacingAndGlyphs" textLength="51" x="733.5" y="1091.1216">success</text><rect fill="#EEEEEE" filter="url(#fw3969d)" height="3" style="stroke: #EEEEEE; stroke-width: 1.0;" width="1300" x="3" y="1124.7539"/><line style="stroke: #000000; stroke-width: 1.0;" x1="3" x2="1303" y1="1124.7539" y2="1124.7539"/><line style="stroke: #000000; stroke-width: 1.0;" x1="3" x2="1303" y1="1127.7539" y2="1127.7539"/><rect fill="#EEEEEE" filter="url(#fw3969d)" height="23.1328" style="stroke: #000000; stroke-width: 2.0;" width="752" x="277" y="1114.1875"/><text fill="#000000" font-family="sans-serif" font-size="13" font-weight="bold" lengthAdjust="spacingAndGlyphs" textLength="738" x="283" y="1130.2544">Slave Thread creates connection with master RMS on bridge where Master Participant is connected</text><polygon fill="#A80036" points="590.5,1194.3203,580.5,1198.3203,590.5,1202.3203,586.5,1198.3203" style="stroke: #A80036; stroke-width: 1.0;"/><line style="stroke: #A80036; stroke-width: 1.0;" x1="584.5" x2="971.5" y1="1198.3203" y2="1198.3203"/><text fill="#000000" font-family="sans-serif" font-size="13" lengthAdjust="spacingAndGlyphs" textLength="126" x="596.5" y="1163.3872">(MGCP/SDP - CRCX)</text><text fill="#000000" font-family="sans-serif" font-size="13" lengthAdjust="spacingAndGlyphs" textLength="91" x="600.5" y="1178.52">also pass SDP</text><text fill="#000000" font-family="sans-serif" font-size="13" lengthAdjust="spacingAndGlyphs" textLength="188" x="596.5" y="1193.6528">from RMS2 bridge connection</text><polygon fill="#A80036" points="960.5,1223.7188,970.5,1227.7188,960.5,1231.7188,964.5,1227.7188" style="stroke: #A80036; stroke-width: 1.0;"/><line style="stroke: #A80036; stroke-width: 1.0;" x1="579.5" x2="966.5" y1="1227.7188" y2="1227.7188"/><text fill="#000000" font-family="sans-serif" font-size="13" lengthAdjust="spacingAndGlyphs" textLength="82" x="586.5" y="1222.7856">success/SDP</text><polygon fill="#A80036" points="737.5,1267.8516,727.5,1271.8516,737.5,1275.8516,733.5,1271.8516" style="stroke: #A80036; stroke-width: 1.0;"/><line style="stroke: #A80036; stroke-width: 1.0;" x1="731.5" x2="971.5" y1="1271.8516" y2="1271.8516"/><text fill="#000000" font-family="sans-serif" font-size="13" lengthAdjust="spacingAndGlyphs" textLength="130" x="743.5" y="1251.9185">(MGCP/SDP - MDCX)</text><text fill="#000000" font-family="sans-serif" font-size="13" lengthAdjust="spacingAndGlyphs" textLength="177" x="743.5" y="1267.0513">modify with sdp from RMS1.</text><polygon fill="#A80036" points="960.5,1297.1172,970.5,1301.1172,960.5,1305.1172,964.5,1301.1172" style="stroke: #A80036; stroke-width: 1.0;"/><line style="stroke: #A80036; stroke-width: 1.0;" x1="726.5" x2="966.5" y1="1301.1172" y2="1301.1172"/><text fill="#000000" font-family="sans-serif" font-size="13" lengthAdjust="spacingAndGlyphs" textLength="51" x="733.5" y="1296.1841">success</text><rect fill="#EEEEEE" filter="url(#fw3969d)" height="3" style="stroke: #EEEEEE; stroke-width: 1.0;" width="1300" x="3" y="1329.8164"/><line style="stroke: #000000; stroke-width: 1.0;" x1="3" x2="1303" y1="1329.8164" y2="1329.8164"/><line style="stroke: #000000; stroke-width: 1.0;" x1="3" x2="1303" y1="1332.8164" y2="1332.8164"/><rect fill="#EEEEEE" filter="url(#fw3969d)" height="23.1328" style="stroke: #000000; stroke-width: 2.0;" width="325" x="490.5" y="1319.25"/><text fill="#000000" font-family="sans-serif" font-size="13" font-weight="bold" lengthAdjust="spacingAndGlyphs" textLength="311" x="496.5" y="1335.3169">Stop MOH and Unmute Master participant</text><polygon fill="#A80036" points="590.5,1369.3828,580.5,1373.3828,590.5,1377.3828,586.5,1373.3828" style="stroke: #A80036; stroke-width: 1.0;"/><polygon fill="#A80036" points="714.5,1369.3828,724.5,1373.3828,714.5,1377.3828,718.5,1373.3828" style="stroke: #A80036; stroke-width: 1.0;"/><line style="stroke: #A80036; stroke-width: 1.0;" x1="584.5" x2="720.5" y1="1373.3828" y2="1373.3828"/><text fill="#000000" font-family="sans-serif" font-size="13" lengthAdjust="spacingAndGlyphs" textLength="23" x="596.5" y="1368.4497">RTP</text><polygon fill="#A80036" points="590.5,1413.5156,580.5,1417.5156,590.5,1421.5156,586.5,1417.5156" style="stroke: #A80036; stroke-width: 1.0;"/><line style="stroke: #A80036; stroke-width: 1.0;" x1="584.5" x2="971.5" y1="1417.5156" y2="1417.5156"/><text fill="#000000" font-family="sans-serif" font-size="13" lengthAdjust="spacingAndGlyphs" textLength="123" x="596.5" y="1397.5825">Stop Music on Hold</text><text fill="#000000" font-family="sans-serif" font-size="13" lengthAdjust="spacingAndGlyphs" textLength="302" x="596.5" y="1412.7153">Still need to identify command and parameters</text><polygon fill="#A80036" points="960.5,1442.7813,970.5,1446.7813,960.5,1450.7813,964.5,1446.7813" style="stroke: #A80036; stroke-width: 1.0;"/><line style="stroke: #A80036; stroke-width: 1.0;" x1="579.5" x2="966.5" y1="1446.7813" y2="1446.7813"/><text fill="#000000" font-family="sans-serif" font-size="13" lengthAdjust="spacingAndGlyphs" textLength="55" x="586.5" y="1441.8481">success.</text><polygon fill="#A80036" points="590.5,1486.9141,580.5,1490.9141,590.5,1494.9141,586.5,1490.9141" style="stroke: #A80036; stroke-width: 1.0;"/><line style="stroke: #A80036; stroke-width: 1.0;" x1="584.5" x2="971.5" y1="1490.9141" y2="1490.9141"/><text fill="#000000" font-family="sans-serif" font-size="13" lengthAdjust="spacingAndGlyphs" textLength="50" x="596.5" y="1470.981">UnMute</text><text fill="#000000" font-family="sans-serif" font-size="13" lengthAdjust="spacingAndGlyphs" textLength="302" x="596.5" y="1486.1138">Still need to identify command and parameters</text><polygon fill="#A80036" points="960.5,1516.1797,970.5,1520.1797,960.5,1524.1797,964.5,1520.1797" style="stroke: #A80036; stroke-width: 1.0;"/><line style="stroke: #A80036; stroke-width: 1.0;" x1="579.5" x2="966.5" y1="1520.1797" y2="1520.1797"/><text fill="#000000" font-family="sans-serif" font-size="13" lengthAdjust="spacingAndGlyphs" textLength="55" x="586.5" y="1515.2466">success.</text><polygon fill="#A80036" points="590.5,1545.3125,580.5,1549.3125,590.5,1553.3125,586.5,1549.3125" style="stroke: #A80036; stroke-width: 1.0;"/><polygon fill="#A80036" points="714.5,1545.3125,724.5,1549.3125,714.5,1553.3125,718.5,1549.3125" style="stroke: #A80036; stroke-width: 1.0;"/><line style="stroke: #A80036; stroke-width: 1.0;" x1="584.5" x2="720.5" y1="1549.3125" y2="1549.3125"/><text fill="#000000" font-family="sans-serif" font-size="13" lengthAdjust="spacingAndGlyphs" textLength="23" x="596.5" y="1544.3794">RTP</text></g></svg>