<?xml version="1.0" encoding="UTF-8" standalone="no"?><svg xmlns="http://www.w3.org/2000/svg" xmlns:xlink="http://www.w3.org/1999/xlink" contentScriptType="application/ecmascript" contentStyleType="text/css" height="533px" preserveAspectRatio="none" style="width:801px;height:533px;" version="1.1" viewBox="0 0 801 533" width="801px" zoomAndPan="magnify"><defs><filter height="300%" id="f5p4840" width="300%" x="-1" y="-1"><feGaussianBlur result="blurOut" stdDeviation="2.0"/><feColorMatrix in="blurOut" result="blurOut2" type="matrix" values="0 0 0 0 0 0 0 0 0 0 0 0 0 0 0 0 0 0 .4 0"/><feOffset dx="4.0" dy="4.0" in="blurOut2" result="blurOut3"/><feBlend in="SourceGraphic" in2="blurOut3" mode="normal"/></filter></defs><g><!--class MediaServerController--><rect fill="#FEFECE" filter="url(#f5p4840)" height="48" style="stroke: #A80036; stroke-width: 1.5;" width="170" x="235" y="117"/><ellipse cx="250" cy="133" fill="#B4A7E5" rx="11" ry="11" style="stroke: #A80036; stroke-width: 1.0;"/><path d="M245.9219,128.7656 L245.9219,126.6094 L253.3125,126.6094 L253.3125,128.7656 L250.8438,128.7656 L250.8438,136.8438 L253.3125,136.8438 L253.3125,139 L245.9219,139 L245.9219,136.8438 L248.3906,136.8438 L248.3906,128.7656 L245.9219,128.7656 Z "/><text fill="#000000" font-family="sans-serif" font-size="12" font-style="italic" lengthAdjust="spacingAndGlyphs" textLength="138" x="264" y="137.1543">MediaServerController</text><line style="stroke: #A80036; stroke-width: 1.5;" x1="236" x2="404" y1="149" y2="149"/><line style="stroke: #A80036; stroke-width: 1.5;" x1="236" x2="404" y1="157" y2="157"/><!--class MMSCallController--><rect fill="#FEFECE" filter="url(#f5p4840)" height="48" style="stroke: #A80036; stroke-width: 1.5;" width="143" x="61.5" y="242"/><ellipse cx="76.5" cy="258" fill="#ADD1B2" rx="11" ry="11" style="stroke: #A80036; stroke-width: 1.0;"/><path d="M79.4688,263.6406 Q78.8906,263.9375 78.25,264.0859 Q77.6094,264.2344 76.9063,264.2344 Q74.4063,264.2344 73.0859,262.5859 Q71.7656,260.9375 71.7656,257.8125 Q71.7656,254.6875 73.0859,253.0313 Q74.4063,251.375 76.9063,251.375 Q77.6094,251.375 78.2578,251.5313 Q78.9063,251.6875 79.4688,251.9844 L79.4688,254.7031 Q78.8438,254.125 78.25,253.8516 Q77.6563,253.5781 77.0313,253.5781 Q75.6875,253.5781 75,254.6484 Q74.3125,255.7188 74.3125,257.8125 Q74.3125,259.9063 75,260.9766 Q75.6875,262.0469 77.0313,262.0469 Q77.6563,262.0469 78.25,261.7734 Q78.8438,261.5 79.4688,260.9219 L79.4688,263.6406 Z "/><text fill="#000000" font-family="sans-serif" font-size="12" lengthAdjust="spacingAndGlyphs" textLength="111" x="90.5" y="262.1543">MMSCallController</text><line style="stroke: #A80036; stroke-width: 1.5;" x1="62.5" x2="203.5" y1="274" y2="274"/><line style="stroke: #A80036; stroke-width: 1.5;" x1="62.5" x2="203.5" y1="282" y2="282"/><!--class MMSConferenceController--><rect fill="#FEFECE" filter="url(#f5p4840)" height="48" style="stroke: #A80036; stroke-width: 1.5;" width="193" x="435.5" y="242"/><ellipse cx="450.5" cy="258" fill="#ADD1B2" rx="11" ry="11" style="stroke: #A80036; stroke-width: 1.0;"/><path d="M453.4688,263.6406 Q452.8906,263.9375 452.25,264.0859 Q451.6094,264.2344 450.9063,264.2344 Q448.4063,264.2344 447.0859,262.5859 Q445.7656,260.9375 445.7656,257.8125 Q445.7656,254.6875 447.0859,253.0313 Q448.4063,251.375 450.9063,251.375 Q451.6094,251.375 452.2578,251.5313 Q452.9063,251.6875 453.4688,251.9844 L453.4688,254.7031 Q452.8438,254.125 452.25,253.8516 Q451.6563,253.5781 451.0313,253.5781 Q449.6875,253.5781 449,254.6484 Q448.3125,255.7188 448.3125,257.8125 Q448.3125,259.9063 449,260.9766 Q449.6875,262.0469 451.0313,262.0469 Q451.6563,262.0469 452.25,261.7734 Q452.8438,261.5 453.4688,260.9219 L453.4688,263.6406 Z "/><text fill="#000000" font-family="sans-serif" font-size="12" lengthAdjust="spacingAndGlyphs" textLength="161" x="464.5" y="262.1543">MMSConferenceController</text><line style="stroke: #A80036; stroke-width: 1.5;" x1="436.5" x2="627.5" y1="274" y2="274"/><line style="stroke: #A80036; stroke-width: 1.5;" x1="436.5" x2="627.5" y1="282" y2="282"/><!--class MMSBridgeController--><rect fill="#FEFECE" filter="url(#f5p4840)" height="48" style="stroke: #A80036; stroke-width: 1.5;" width="161" x="239.5" y="242"/><ellipse cx="254.5" cy="258" fill="#ADD1B2" rx="11" ry="11" style="stroke: #A80036; stroke-width: 1.0;"/><path d="M257.4688,263.6406 Q256.8906,263.9375 256.25,264.0859 Q255.6094,264.2344 254.9063,264.2344 Q252.4063,264.2344 251.0859,262.5859 Q249.7656,260.9375 249.7656,257.8125 Q249.7656,254.6875 251.0859,253.0313 Q252.4063,251.375 254.9063,251.375 Q255.6094,251.375 256.2578,251.5313 Q256.9063,251.6875 257.4688,251.9844 L257.4688,254.7031 Q256.8438,254.125 256.25,253.8516 Q255.6563,253.5781 255.0313,253.5781 Q253.6875,253.5781 253,254.6484 Q252.3125,255.7188 252.3125,257.8125 Q252.3125,259.9063 253,260.9766 Q253.6875,262.0469 255.0313,262.0469 Q255.6563,262.0469 256.25,261.7734 Q256.8438,261.5 257.4688,260.9219 L257.4688,263.6406 Z "/><text fill="#000000" font-family="sans-serif" font-size="12" lengthAdjust="spacingAndGlyphs" textLength="129" x="268.5" y="262.1543">MMSBridgeController</text><line style="stroke: #A80036; stroke-width: 1.5;" x1="240.5" x2="399.5" y1="274" y2="274"/><line style="stroke: #A80036; stroke-width: 1.5;" x1="240.5" x2="399.5" y1="282" y2="282"/><!--class MediaResourceBroker--><rect fill="#FEFECE" filter="url(#f5p4840)" height="48" style="stroke: #A80036; stroke-width: 1.5;" width="169" x="235.5" y="367"/><ellipse cx="250.5" cy="383" fill="#ADD1B2" rx="11" ry="11" style="stroke: #A80036; stroke-width: 1.0;"/><path d="M253.4688,388.6406 Q252.8906,388.9375 252.25,389.0859 Q251.6094,389.2344 250.9063,389.2344 Q248.4063,389.2344 247.0859,387.5859 Q245.7656,385.9375 245.7656,382.8125 Q245.7656,379.6875 247.0859,378.0313 Q248.4063,376.375 250.9063,376.375 Q251.6094,376.375 252.2578,376.5313 Q252.9063,376.6875 253.4688,376.9844 L253.4688,379.7031 Q252.8438,379.125 252.25,378.8516 Q251.6563,378.5781 251.0313,378.5781 Q249.6875,378.5781 249,379.6484 Q248.3125,380.7188 248.3125,382.8125 Q248.3125,384.9063 249,385.9766 Q249.6875,387.0469 251.0313,387.0469 Q251.6563,387.0469 252.25,386.7734 Q252.8438,386.5 253.4688,385.9219 L253.4688,388.6406 Z "/><text fill="#000000" font-family="sans-serif" font-size="12" lengthAdjust="spacingAndGlyphs" textLength="137" x="264.5" y="387.1543">MediaResourceBroker</text><line style="stroke: #A80036; stroke-width: 1.5;" x1="236.5" x2="403.5" y1="399" y2="399"/><line style="stroke: #A80036; stroke-width: 1.5;" x1="236.5" x2="403.5" y1="407" y2="407"/><!--class MediaGateway--><rect fill="#FEFECE" filter="url(#f5p4840)" height="48" style="stroke: #A80036; stroke-width: 1.5;" width="122" x="259" y="476"/><ellipse cx="274" cy="492" fill="#ADD1B2" rx="11" ry="11" style="stroke: #A80036; stroke-width: 1.0;"/><path d="M276.9688,497.6406 Q276.3906,497.9375 275.75,498.0859 Q275.1094,498.2344 274.4063,498.2344 Q271.9063,498.2344 270.5859,496.5859 Q269.2656,494.9375 269.2656,491.8125 Q269.2656,488.6875 270.5859,487.0313 Q271.9063,485.375 274.4063,485.375 Q275.1094,485.375 275.7578,485.5313 Q276.4063,485.6875 276.9688,485.9844 L276.9688,488.7031 Q276.3438,488.125 275.75,487.8516 Q275.1563,487.5781 274.5313,487.5781 Q273.1875,487.5781 272.5,488.6484 Q271.8125,489.7188 271.8125,491.8125 Q271.8125,493.9063 272.5,494.9766 Q273.1875,496.0469 274.5313,496.0469 Q275.1563,496.0469 275.75,495.7734 Q276.3438,495.5 276.9688,494.9219 L276.9688,497.6406 Z "/><text fill="#000000" font-family="sans-serif" font-size="12" lengthAdjust="spacingAndGlyphs" textLength="90" x="288" y="496.1543">MediaGateway</text><line style="stroke: #A80036; stroke-width: 1.5;" x1="260" x2="380" y1="508" y2="508"/><line style="stroke: #A80036; stroke-width: 1.5;" x1="260" x2="380" y1="516" y2="516"/><!--class CallManager--><rect fill="#FEFECE" filter="url(#f5p4840)" height="48" style="stroke: #A80036; stroke-width: 1.5;" width="109" x="34.5" y="8"/><ellipse cx="49.5" cy="24" fill="#ADD1B2" rx="11" ry="11" style="stroke: #A80036; stroke-width: 1.0;"/><path d="M52.4688,29.6406 Q51.8906,29.9375 51.25,30.0859 Q50.6094,30.2344 49.9063,30.2344 Q47.4063,30.2344 46.0859,28.5859 Q44.7656,26.9375 44.7656,23.8125 Q44.7656,20.6875 46.0859,19.0313 Q47.4063,17.375 49.9063,17.375 Q50.6094,17.375 51.2578,17.5313 Q51.9063,17.6875 52.4688,17.9844 L52.4688,20.7031 Q51.8438,20.125 51.25,19.8516 Q50.6563,19.5781 50.0313,19.5781 Q48.6875,19.5781 48,20.6484 Q47.3125,21.7188 47.3125,23.8125 Q47.3125,25.9063 48,26.9766 Q48.6875,28.0469 50.0313,28.0469 Q50.6563,28.0469 51.25,27.7734 Q51.8438,27.5 52.4688,26.9219 L52.4688,29.6406 Z "/><text fill="#000000" font-family="sans-serif" font-size="12" lengthAdjust="spacingAndGlyphs" textLength="77" x="63.5" y="28.1543">CallManager</text><line style="stroke: #A80036; stroke-width: 1.5;" x1="35.5" x2="142.5" y1="40" y2="40"/><line style="stroke: #A80036; stroke-width: 1.5;" x1="35.5" x2="142.5" y1="48" y2="48"/><!--class ConferenceCenter--><rect fill="#FEFECE" filter="url(#f5p4840)" height="48" style="stroke: #A80036; stroke-width: 1.5;" width="146" x="546" y="8"/><ellipse cx="561" cy="24" fill="#ADD1B2" rx="11" ry="11" style="stroke: #A80036; stroke-width: 1.0;"/><path d="M563.9688,29.6406 Q563.3906,29.9375 562.75,30.0859 Q562.1094,30.2344 561.4063,30.2344 Q558.9063,30.2344 557.5859,28.5859 Q556.2656,26.9375 556.2656,23.8125 Q556.2656,20.6875 557.5859,19.0313 Q558.9063,17.375 561.4063,17.375 Q562.1094,17.375 562.7578,17.5313 Q563.4063,17.6875 563.9688,17.9844 L563.9688,20.7031 Q563.3438,20.125 562.75,19.8516 Q562.1563,19.5781 561.5313,19.5781 Q560.1875,19.5781 559.5,20.6484 Q558.8125,21.7188 558.8125,23.8125 Q558.8125,25.9063 559.5,26.9766 Q560.1875,28.0469 561.5313,28.0469 Q562.1563,28.0469 562.75,27.7734 Q563.3438,27.5 563.9688,26.9219 L563.9688,29.6406 Z "/><text fill="#000000" font-family="sans-serif" font-size="12" lengthAdjust="spacingAndGlyphs" textLength="114" x="575" y="28.1543">ConferenceCenter</text><line style="stroke: #A80036; stroke-width: 1.5;" x1="547" x2="691" y1="40" y2="40"/><line style="stroke: #A80036; stroke-width: 1.5;" x1="547" x2="691" y1="48" y2="48"/><!--class Call--><rect fill="#FEFECE" filter="url(#f5p4840)" height="48" style="stroke: #A80036; stroke-width: 1.5;" width="54" x="6" y="367"/><ellipse cx="21" cy="383" fill="#ADD1B2" rx="11" ry="11" style="stroke: #A80036; stroke-width: 1.0;"/><path d="M23.9688,388.6406 Q23.3906,388.9375 22.75,389.0859 Q22.1094,389.2344 21.4063,389.2344 Q18.9063,389.2344 17.5859,387.5859 Q16.2656,385.9375 16.2656,382.8125 Q16.2656,379.6875 17.5859,378.0313 Q18.9063,376.375 21.4063,376.375 Q22.1094,376.375 22.7578,376.5313 Q23.4063,376.6875 23.9688,376.9844 L23.9688,379.7031 Q23.3438,379.125 22.75,378.8516 Q22.1563,378.5781 21.5313,378.5781 Q20.1875,378.5781 19.5,379.6484 Q18.8125,380.7188 18.8125,382.8125 Q18.8125,384.9063 19.5,385.9766 Q20.1875,387.0469 21.5313,387.0469 Q22.1563,387.0469 22.75,386.7734 Q23.3438,386.5 23.9688,385.9219 L23.9688,388.6406 Z "/><text fill="#000000" font-family="sans-serif" font-size="12" lengthAdjust="spacingAndGlyphs" textLength="22" x="35" y="387.1543">Call</text><line style="stroke: #A80036; stroke-width: 1.5;" x1="7" x2="59" y1="399" y2="399"/><line style="stroke: #A80036; stroke-width: 1.5;" x1="7" x2="59" y1="407" y2="407"/><!--class Conference--><rect fill="#FEFECE" filter="url(#f5p4840)" height="48" style="stroke: #A80036; stroke-width: 1.5;" width="104" x="625" y="367"/><ellipse cx="640" cy="383" fill="#ADD1B2" rx="11" ry="11" style="stroke: #A80036; stroke-width: 1.0;"/><path d="M642.9688,388.6406 Q642.3906,388.9375 641.75,389.0859 Q641.1094,389.2344 640.4063,389.2344 Q637.9063,389.2344 636.5859,387.5859 Q635.2656,385.9375 635.2656,382.8125 Q635.2656,379.6875 636.5859,378.0313 Q637.9063,376.375 640.4063,376.375 Q641.1094,376.375 641.7578,376.5313 Q642.4063,376.6875 642.9688,376.9844 L642.9688,379.7031 Q642.3438,379.125 641.75,378.8516 Q641.1563,378.5781 640.5313,378.5781 Q639.1875,378.5781 638.5,379.6484 Q637.8125,380.7188 637.8125,382.8125 Q637.8125,384.9063 638.5,385.9766 Q639.1875,387.0469 640.5313,387.0469 Q641.1563,387.0469 641.75,386.7734 Q642.3438,386.5 642.9688,385.9219 L642.9688,388.6406 Z "/><text fill="#000000" font-family="sans-serif" font-size="12" lengthAdjust="spacingAndGlyphs" textLength="72" x="654" y="387.1543">Conference</text><line style="stroke: #A80036; stroke-width: 1.5;" x1="626" x2="728" y1="399" y2="399"/><line style="stroke: #A80036; stroke-width: 1.5;" x1="626" x2="728" y1="407" y2="407"/><!--class DaoManager--><rect fill="#FEFECE" filter="url(#f5p4840)" height="48" style="stroke: #A80036; stroke-width: 1.5;" width="112" x="264" y="8"/><ellipse cx="279" cy="24" fill="#ADD1B2" rx="11" ry="11" style="stroke: #A80036; stroke-width: 1.0;"/><path d="M281.9688,29.6406 Q281.3906,29.9375 280.75,30.0859 Q280.1094,30.2344 279.4063,30.2344 Q276.9063,30.2344 275.5859,28.5859 Q274.2656,26.9375 274.2656,23.8125 Q274.2656,20.6875 275.5859,19.0313 Q276.9063,17.375 279.4063,17.375 Q280.1094,17.375 280.7578,17.5313 Q281.4063,17.6875 281.9688,17.9844 L281.9688,20.7031 Q281.3438,20.125 280.75,19.8516 Q280.1563,19.5781 279.5313,19.5781 Q278.1875,19.5781 277.5,20.6484 Q276.8125,21.7188 276.8125,23.8125 Q276.8125,25.9063 277.5,26.9766 Q278.1875,28.0469 279.5313,28.0469 Q280.1563,28.0469 280.75,27.7734 Q281.3438,27.5 281.9688,26.9219 L281.9688,29.6406 Z "/><text fill="#000000" font-family="sans-serif" font-size="12" lengthAdjust="spacingAndGlyphs" textLength="80" x="293" y="28.1543">DaoManager</text><line style="stroke: #A80036; stroke-width: 1.5;" x1="265" x2="375" y1="40" y2="40"/><line style="stroke: #A80036; stroke-width: 1.5;" x1="265" x2="375" y1="48" y2="48"/><path d="M268.07,176.16 C236.18,197.14 196.18,223.44 168.02,241.97 " fill="none" style="stroke: #A80036; stroke-width: 1.0;"/><polygon fill="none" points="264.27,170.28,284.83,165.14,271.96,181.97,264.27,170.28" style="stroke: #A80036; stroke-width: 1.0;"/><path d="M377.37,175.29 C413.77,196.4 459.93,223.19 492.3,241.97 " fill="none" style="stroke: #A80036; stroke-width: 1.0;"/><polygon fill="none" points="373.66,181.23,359.88,165.14,380.69,169.12,373.66,181.23" style="stroke: #A80036; stroke-width: 1.0;"/><path d="M320,185.17 C320,204.29 320,226.02 320,241.97 " fill="none" style="stroke: #A80036; stroke-width: 1.0;"/><polygon fill="none" points="313,185.14,320,165.14,327,185.14,313,185.14" style="stroke: #A80036; stroke-width: 1.0;"/><path d="M155.54,300.74 C165.27,313.39 177.53,327.09 191,337 C207.58,349.2 227.37,359.14 246.41,366.98 " fill="none" style="stroke: #A80036; stroke-width: 1.0;"/><polygon fill="#FFFFFF" points="147.66,290.01,147.9872,297.2137,154.7626,299.6822,154.4354,292.4786,147.66,290.01" style="stroke: #A80036; stroke-width: 1.0;"/><text fill="#000000" font-family="sans-serif" font-size="13" lengthAdjust="spacingAndGlyphs" textLength="116" x="192" y="333.0669">GetMediaGateway</text><path d="M494.41,298.36 C477.99,311.23 458.14,325.73 439,337 C420.1,348.13 398.43,358.43 378.81,366.94 " fill="none" style="stroke: #A80036; stroke-width: 1.0;"/><polygon fill="#FFFFFF" points="504.67,290.18,497.4851,290.7936,495.288,297.6618,502.4729,297.0483,504.67,290.18" style="stroke: #A80036; stroke-width: 1.0;"/><text fill="#000000" font-family="sans-serif" font-size="13" lengthAdjust="spacingAndGlyphs" textLength="116" x="464" y="333.0669">GetMediaGateway</text><path d="M317.66,303.49 C317.39,309.02 317.15,314.66 317,320 C316.56,335.69 317.32,353.34 318.19,366.99 " fill="none" style="stroke: #A80036; stroke-width: 1.0;"/><polygon fill="#FFFFFF" points="318.4,290.21,314.0698,295.9762,317.7271,302.1911,322.0572,296.4249,318.4,290.21" style="stroke: #A80036; stroke-width: 1.0;"/><text fill="#000000" font-family="sans-serif" font-size="13" lengthAdjust="spacingAndGlyphs" textLength="116" x="318" y="333.0669">GetMediaGateway</text><path d="M320,428.3 C320,444.02 320,461.96 320,475.83 " fill="none" style="stroke: #A80036; stroke-width: 1.0;"/><polygon fill="#A80036" points="320,415.22,316,421.22,320,427.22,324,421.22,320,415.22" style="stroke: #A80036; stroke-width: 1.0;"/><path d="M138.84,56.09 C177.7,74.09 231.41,98.97 270.25,116.96 " fill="none" style="stroke: #A80036; stroke-width: 1.0;"/><path d="M554.49,56.09 C504.19,74.09 434.67,98.97 384.39,116.96 " fill="none" style="stroke: #A80036; stroke-width: 1.0;"/><path d="M320,56.22 C320,70.1 320,88.04 320,103.75 " fill="none" style="stroke: #A80036; stroke-width: 1.0;"/><polygon fill="#FFFFFF" points="320,116.83,324,110.83,320,104.83,316,110.83,320,116.83" style="stroke: #A80036; stroke-width: 1.0;"/><path d="M82.96,56.01 C73.14,94.3 53.85,173.67 44,242 C38.05,283.29 35.23,331.56 33.95,361.46 " fill="none" style="stroke: #A80036; stroke-width: 1.0;"/><polygon fill="#A80036" points="33.73,366.82,38.1117,357.9995,33.9441,361.8246,30.119,357.657,33.73,366.82" style="stroke: #A80036; stroke-width: 1.0;"/><text fill="#000000" font-family="sans-serif" font-size="13" lengthAdjust="spacingAndGlyphs" textLength="85" x="53" y="208.0669">creates a call</text><path d="M625.88,56.15 C639.86,104.58 671.19,220.34 682,320 C683.48,333.67 682.69,348.9 681.33,361.65 " fill="none" style="stroke: #A80036; stroke-width: 1.0;"/><polygon fill="#A80036" points="680.72,366.95,685.7216,358.4656,681.291,361.9827,677.7739,357.5521,680.72,366.95" style="stroke: #A80036; stroke-width: 1.0;"/><text fill="#000000" font-family="sans-serif" font-size="13" lengthAdjust="spacingAndGlyphs" textLength="135" x="665" y="208.0669">creates a conference</text><path d="M91.67,290.16 C79.87,298.35 67.83,308.45 59,320 C51.34,330.03 45.74,342.55 41.75,354.23 " fill="none" style="stroke: #A80036; stroke-width: 1.0;"/><polygon fill="#A80036" points="37.9,366.86,43.4747,362.2859,41.3966,355.3807,35.8219,359.9548,37.9,366.86" style="stroke: #A80036; stroke-width: 1.0;"/><text fill="#000000" font-family="sans-serif" font-size="13" lengthAdjust="spacingAndGlyphs" textLength="58" x="60" y="333.0669">observes</text><path d="M560.65,290.01 C572.04,299.24 585.21,310.04 597,320 C611.49,332.24 627.25,345.94 640.91,357.95 " fill="none" style="stroke: #A80036; stroke-width: 1.0;"/><polygon fill="#A80036" points="650.9,366.75,649.038,359.7834,641.8912,358.8228,643.7532,365.7893,650.9,366.75" style="stroke: #A80036; stroke-width: 1.0;"/><text fill="#000000" font-family="sans-serif" font-size="13" lengthAdjust="spacingAndGlyphs" textLength="58" x="615" y="333.0669">observes</text></g></svg>