<?xml version="1.0" encoding="UTF-8" standalone="no"?><svg xmlns="http://www.w3.org/2000/svg" xmlns:xlink="http://www.w3.org/1999/xlink" contentScriptType="application/ecmascript" contentStyleType="text/css" height="436px" preserveAspectRatio="none" style="width:913px;height:436px;" version="1.1" viewBox="0 0 913 436" width="913px" zoomAndPan="magnify"><defs><filter height="300%" id="fypsylh" width="300%" x="-1" y="-1"><feGaussianBlur result="blurOut" stdDeviation="2.0"/><feColorMatrix in="blurOut" result="blurOut2" type="matrix" values="0 0 0 0 0 0 0 0 0 0 0 0 0 0 0 0 0 0 .4 0"/><feOffset dx="4.0" dy="4.0" in="blurOut2" result="blurOut3"/><feBlend in="SourceGraphic" in2="blurOut3" mode="normal"/></filter></defs><g><text fill="#000000" font-family="sans-serif" font-size="18" lengthAdjust="spacingAndGlyphs" textLength="414" x="254.5" y="16.708">Conference with conference-in-cluster Feature</text><!--entity Jean--><ellipse cx="162" cy="38.9531" fill="#FEFECE" filter="url(#fypsylh)" rx="8" ry="8" style="stroke: #A80036; stroke-width: 2.0;"/><text fill="#000000" font-family="sans-serif" font-size="14" lengthAdjust="spacingAndGlyphs" textLength="29" x="147.5" y="60.9482">Jean</text><!--entity RC/RMS1--><rect fill="#FEFECE" filter="url(#fypsylh)" height="36.2969" style="stroke: #A80036; stroke-width: 1.5;" width="85" x="306.5" y="187.9531"/><rect fill="#FEFECE" height="5" style="stroke: #A80036; stroke-width: 1.5;" width="10" x="301.5" y="192.9531"/><rect fill="#FEFECE" height="5" style="stroke: #A80036; stroke-width: 1.5;" width="10" x="301.5" y="214.25"/><text fill="#000000" font-family="sans-serif" font-size="14" lengthAdjust="spacingAndGlyphs" textLength="65" x="316.5" y="210.9482">RC/RMS1</text><!--entity Maria--><ellipse cx="282" cy="38.9531" fill="#FEFECE" filter="url(#fypsylh)" rx="8" ry="8" style="stroke: #A80036; stroke-width: 2.0;"/><text fill="#000000" font-family="sans-serif" font-size="14" lengthAdjust="spacingAndGlyphs" textLength="36" x="264" y="60.9482">Maria</text><!--entity George--><ellipse cx="392" cy="38.9531" fill="#FEFECE" filter="url(#fypsylh)" rx="8" ry="8" style="stroke: #A80036; stroke-width: 2.0;"/><text fill="#000000" font-family="sans-serif" font-size="14" lengthAdjust="spacingAndGlyphs" textLength="52" x="366" y="60.9482">George</text><!--entity Lefty--><ellipse cx="545" cy="38.9531" fill="#FEFECE" filter="url(#fypsylh)" rx="8" ry="8" style="stroke: #A80036; stroke-width: 2.0;"/><text fill="#000000" font-family="sans-serif" font-size="14" lengthAdjust="spacingAndGlyphs" textLength="32" x="529" y="60.9482">Lefty</text><polygon fill="#FBFB77" filter="url(#fypsylh)" points="327.5,300.9531,327.5,341.2188,536.5,341.2188,536.5,310.9531,526.5,300.9531,327.5,300.9531" style="stroke: #A80036; stroke-width: 1.0;"/><polygon fill="#FBFB77" points="327.5,300.9531,327.5,341.2188,536.5,341.2188,536.5,310.9531,526.5,300.9531,421.88,300.9531,361.61,224.1131,413.88,300.9531,327.5,300.9531" style="stroke: #A80036; stroke-width: 1.0;"/><line style="stroke: #A80036; stroke-width: 1.0;" x1="526.5" x2="526.5" y1="300.9531" y2="310.9531"/><line style="stroke: #A80036; stroke-width: 1.0;" x1="536.5" x2="526.5" y1="310.9531" y2="310.9531"/><text fill="#000000" font-family="sans-serif" font-size="13" lengthAdjust="spacingAndGlyphs" textLength="188" x="333.5" y="318.02">Jean, George, Lefty and Maria</text><text fill="#000000" font-family="sans-serif" font-size="13" lengthAdjust="spacingAndGlyphs" textLength="157" x="333.5" y="333.1528">are talking to each other</text><!--entity ..--><ellipse cx="15" cy="38.9531" fill="#FEFECE" filter="url(#fypsylh)" rx="8" ry="8" style="stroke: #A80036; stroke-width: 2.0;"/><text fill="#000000" font-family="sans-serif" font-size="14" lengthAdjust="spacingAndGlyphs" textLength="8" x="11" y="60.9482">..</text><!--entity .--><ellipse cx="103" cy="38.9531" fill="#FEFECE" filter="url(#fypsylh)" rx="8" ry="8" style="stroke: #A80036; stroke-width: 2.0;"/><text fill="#000000" font-family="sans-serif" font-size="14" lengthAdjust="spacingAndGlyphs" textLength="4" x="101" y="60.9482">.</text><!--entity plantuml, cascading-conference-after, svg--><rect fill="#FEFECE" filter="url(#fypsylh)" height="36.2969" style="stroke: #A80036; stroke-width: 1.5;" width="309" x="595.5" y="28.9531"/><rect fill="#FEFECE" height="5" style="stroke: #A80036; stroke-width: 1.5;" width="10" x="590.5" y="33.9531"/><rect fill="#FEFECE" height="5" style="stroke: #A80036; stroke-width: 1.5;" width="10" x="590.5" y="55.25"/><text fill="#000000" font-family="sans-serif" font-size="14" lengthAdjust="spacingAndGlyphs" textLength="289" x="605.5" y="51.9482">plantuml, cascading-conference-after, svg</text><!--entity RC/RMS2--><rect fill="#FEFECE" filter="url(#fypsylh)" height="36.2969" style="stroke: #A80036; stroke-width: 1.5;" width="85" x="207.5" y="302.9531"/><rect fill="#FEFECE" height="5" style="stroke: #A80036; stroke-width: 1.5;" width="10" x="202.5" y="307.9531"/><rect fill="#FEFECE" height="5" style="stroke: #A80036; stroke-width: 1.5;" width="10" x="202.5" y="329.25"/><text fill="#000000" font-family="sans-serif" font-size="14" lengthAdjust="spacingAndGlyphs" textLength="65" x="217.5" y="325.9482">RC/RMS2</text><!--entity RC/RMS3--><rect fill="#FEFECE" filter="url(#fypsylh)" height="36.2969" style="stroke: #A80036; stroke-width: 1.5;" width="85" x="571.5" y="302.9531"/><rect fill="#FEFECE" height="5" style="stroke: #A80036; stroke-width: 1.5;" width="10" x="566.5" y="307.9531"/><rect fill="#FEFECE" height="5" style="stroke: #A80036; stroke-width: 1.5;" width="10" x="566.5" y="329.25"/><text fill="#000000" font-family="sans-serif" font-size="14" lengthAdjust="spacingAndGlyphs" textLength="65" x="581.5" y="325.9482">RC/RMS3</text><polygon fill="#FBFB77" filter="url(#fypsylh)" points="73.5,308.4531,73.5,333.5859,172.5,333.5859,172.5,318.4531,162.5,308.4531,73.5,308.4531" style="stroke: #A80036; stroke-width: 1.0;"/><polygon fill="#FBFB77" points="73.5,308.4531,73.5,333.5859,172.5,333.5859,172.5,318.4531,162.5,308.4531,150.24,308.4531,314.68,224.1131,142.24,308.4531,73.5,308.4531" style="stroke: #A80036; stroke-width: 1.0;"/><line style="stroke: #A80036; stroke-width: 1.0;" x1="162.5" x2="162.5" y1="308.4531" y2="318.4531"/><line style="stroke: #A80036; stroke-width: 1.0;" x1="172.5" x2="162.5" y1="318.4531" y2="318.4531"/><text fill="#000000" font-family="sans-serif" font-size="13" lengthAdjust="spacingAndGlyphs" textLength="78" x="79.5" y="325.52">master RMS</text><polygon fill="#FBFB77" filter="url(#fypsylh)" points="207,401.9531,207,427.0859,293,427.0859,293,411.9531,283,401.9531,207,401.9531" style="stroke: #A80036; stroke-width: 1.0;"/><polygon fill="#FBFB77" points="207,401.9531,207,427.0859,293,427.0859,293,411.9531,283,401.9531,254,401.9531,250,339.1631,246,401.9531,207,401.9531" style="stroke: #A80036; stroke-width: 1.0;"/><line style="stroke: #A80036; stroke-width: 1.0;" x1="283" x2="283" y1="401.9531" y2="411.9531"/><line style="stroke: #A80036; stroke-width: 1.0;" x1="293" x2="283" y1="411.9531" y2="411.9531"/><text fill="#000000" font-family="sans-serif" font-size="13" lengthAdjust="spacingAndGlyphs" textLength="65" x="213" y="419.02">slave RMS</text><polygon fill="#FBFB77" filter="url(#fypsylh)" points="571,401.9531,571,427.0859,657,427.0859,657,411.9531,647,401.9531,571,401.9531" style="stroke: #A80036; stroke-width: 1.0;"/><polygon fill="#FBFB77" points="571,401.9531,571,427.0859,657,427.0859,657,411.9531,647,401.9531,618,401.9531,614,339.1631,610,401.9531,571,401.9531" style="stroke: #A80036; stroke-width: 1.0;"/><line style="stroke: #A80036; stroke-width: 1.0;" x1="647" x2="647" y1="401.9531" y2="411.9531"/><line style="stroke: #A80036; stroke-width: 1.0;" x1="657" x2="647" y1="411.9531" y2="411.9531"/><text fill="#000000" font-family="sans-serif" font-size="13" lengthAdjust="spacingAndGlyphs" textLength="65" x="577" y="419.02">slave RMS</text><path d="M173.17,64.1631 C201.71,93.0831 273.4,153.4731 316.3,184.9331 " fill="none" style="stroke: #A80036; stroke-width: 1.0;"/><polygon fill="#A80036" points="320.36,187.8831,315.4179,179.364,316.3108,184.9499,310.7248,185.8428,320.36,187.8831" style="stroke: #A80036; stroke-width: 1.0;"/><path d="M176.58,55.1031 C212.11,77.7331 297.4,148.3731 333.56,183.9831 " fill="none" style="stroke: #A80036; stroke-width: 1.0;"/><polygon fill="#A80036" points="337.32,187.7331,333.803,178.5336,333.7916,184.1905,328.1348,184.179,337.32,187.7331" style="stroke: #A80036; stroke-width: 1.0;"/><path d="M288.92,64.1631 C300.98,92.4231 325.87,150.7431 339.52,182.7431 " fill="none" style="stroke: #A80036; stroke-width: 1.0;"/><polygon fill="#A80036" points="341.61,187.6431,341.7413,177.7951,339.6404,183.0474,334.3881,180.9465,341.61,187.6431" style="stroke: #A80036; stroke-width: 1.0;"/><path d="M387.56,64.1631 C379.82,92.4231 363.85,150.7431 355.08,182.7431 " fill="none" style="stroke: #A80036; stroke-width: 1.0;"/><polygon fill="#A80036" points="353.74,187.6431,359.9843,180.0268,355.0664,182.8223,352.2709,177.9044,353.74,187.6431" style="stroke: #A80036; stroke-width: 1.0;"/><path d="M528.96,60.8031 C494.93,88.0631 415.27,151.8731 374.31,184.6831 " fill="none" style="stroke: #A80036; stroke-width: 1.0;"/><polygon fill="#A80036" points="370.23,187.9531,379.7633,185.4798,374.1427,184.8401,374.7824,179.2195,370.23,187.9531" style="stroke: #A80036; stroke-width: 1.0;"/><path d="M24.28,51.7631 C47.45,62.3531 70.61,62.3531 93.78,51.7431 " fill="none" style="stroke: #A80036; stroke-width: 1.0; stroke-dasharray: 7.0,7.0;"/><path d="M24.28,42.1431 C47.45,31.5531 70.61,31.5531 93.78,42.1631 " fill="none" style="stroke: #A80036; stroke-width: 1.0; stroke-dasharray: 7.0,7.0;"/><path d="M280.09,64.1531 C274.63,110.5931 258.9,244.2631 252.63,297.5931 " fill="none" style="stroke: #A80036; stroke-width: 1.0;"/><polygon fill="#A80036" points="252.02,302.7931,257.0456,294.323,252.605,297.8275,249.1005,293.3869,252.02,302.7931" style="stroke: #A80036; stroke-width: 1.0;"/><path d="M549.11,64.1531 C560.91,110.6831 594.94,244.8031 608.41,297.9131 " fill="none" style="stroke: #A80036; stroke-width: 1.0;"/><polygon fill="#A80036" points="609.65,302.7931,611.3141,293.0859,608.4205,297.9466,603.5597,295.0531,609.65,302.7931" style="stroke: #A80036; stroke-width: 1.0;"/><path d="M338.18,228.6631 C331.13,241.6631 321.19,258.1131 310,270.9531 C300.88,281.4231 289.35,291.4231 278.84,299.6331 " fill="none" style="stroke: #A80036; stroke-width: 1.0;"/><polygon fill="#A80036" points="274.72,302.7931,284.2876,300.4562,278.6767,299.7363,279.3967,294.1254,274.72,302.7931" style="stroke: #A80036; stroke-width: 1.0;"/><polygon fill="#A80036" points="340.64,224.0331,332.8722,230.088,338.2848,228.4437,339.9292,233.8563,340.64,224.0331" style="stroke: #A80036; stroke-width: 1.0;"/><text fill="#000000" font-family="sans-serif" font-size="13" lengthAdjust="spacingAndGlyphs" textLength="23" x="324" y="267.02">RTP</text><path d="M393.74,226.0331 C442.54,246.8431 520.2,279.9531 569.08,300.7931 " fill="none" style="stroke: #A80036; stroke-width: 1.0;"/><polygon fill="#A80036" points="573.71,302.7731,566.9944,295.5689,569.1091,300.8156,563.8624,302.9303,573.71,302.7731" style="stroke: #A80036; stroke-width: 1.0;"/><polygon fill="#A80036" points="388.96,223.9931,395.6566,231.215,393.5557,225.9627,398.808,223.8618,388.96,223.9931" style="stroke: #A80036; stroke-width: 1.0;"/><text fill="#000000" font-family="sans-serif" font-size="13" lengthAdjust="spacingAndGlyphs" textLength="23" x="498" y="267.02">RTP</text></g></svg>