<?xml version="1.0" encoding="UTF-8" standalone="no"?><svg xmlns="http://www.w3.org/2000/svg" xmlns:xlink="http://www.w3.org/1999/xlink" contentScriptType="application/ecmascript" contentStyleType="text/css" height="436px" preserveAspectRatio="none" style="width:874px;height:436px;" version="1.1" viewBox="0 0 874 436" width="874px" zoomAndPan="magnify"><defs><filter height="300%" id="fvjk23o" width="300%" x="-1" y="-1"><feGaussianBlur result="blurOut" stdDeviation="2.0"/><feColorMatrix in="blurOut" result="blurOut2" type="matrix" values="0 0 0 0 0 0 0 0 0 0 0 0 0 0 0 0 0 0 .4 0"/><feOffset dx="4.0" dy="4.0" in="blurOut2" result="blurOut3"/><feBlend in="SourceGraphic" in2="blurOut3" mode="normal"/></filter></defs><g><text fill="#000000" font-family="sans-serif" font-size="18" lengthAdjust="spacingAndGlyphs" textLength="414" x="235" y="16.708">Conference with conference-in-cluster Feature</text><!--entity Jean--><ellipse cx="335" cy="38.9531" fill="#FEFECE" filter="url(#fvjk23o)" rx="8" ry="8" style="stroke: #A80036; stroke-width: 2.0;"/><text fill="#000000" font-family="sans-serif" font-size="14" lengthAdjust="spacingAndGlyphs" textLength="29" x="320.5" y="60.9482">Jean</text><!--entity RC/RMS1--><rect fill="#FEFECE" filter="url(#fvjk23o)" height="36.2969" style="stroke: #A80036; stroke-width: 1.5;" width="85" x="292.5" y="187.9531"/><rect fill="#FEFECE" height="5" style="stroke: #A80036; stroke-width: 1.5;" width="10" x="287.5" y="192.9531"/><rect fill="#FEFECE" height="5" style="stroke: #A80036; stroke-width: 1.5;" width="10" x="287.5" y="214.25"/><text fill="#000000" font-family="sans-serif" font-size="14" lengthAdjust="spacingAndGlyphs" textLength="65" x="302.5" y="210.9482">RC/RMS1</text><!--entity Maria--><ellipse cx="504" cy="38.9531" fill="#FEFECE" filter="url(#fvjk23o)" rx="8" ry="8" style="stroke: #A80036; stroke-width: 2.0;"/><text fill="#000000" font-family="sans-serif" font-size="14" lengthAdjust="spacingAndGlyphs" textLength="36" x="486" y="60.9482">Maria</text><!--entity George--><ellipse cx="247" cy="38.9531" fill="#FEFECE" filter="url(#fvjk23o)" rx="8" ry="8" style="stroke: #A80036; stroke-width: 2.0;"/><text fill="#000000" font-family="sans-serif" font-size="14" lengthAdjust="spacingAndGlyphs" textLength="52" x="221" y="60.9482">George</text><!--entity Lefty--><ellipse cx="163" cy="38.9531" fill="#FEFECE" filter="url(#fvjk23o)" rx="8" ry="8" style="stroke: #A80036; stroke-width: 2.0;"/><text fill="#000000" font-family="sans-serif" font-size="14" lengthAdjust="spacingAndGlyphs" textLength="32" x="147" y="60.9482">Lefty</text><polygon fill="#FBFB77" filter="url(#fvjk23o)" points="152.5,300.9531,152.5,341.2188,361.5,341.2188,361.5,310.9531,351.5,300.9531,152.5,300.9531" style="stroke: #A80036; stroke-width: 1.0;"/><polygon fill="#FBFB77" points="152.5,300.9531,152.5,341.2188,361.5,341.2188,361.5,310.9531,351.5,300.9531,274.266,300.9531,323.153,224.1151,266.266,300.9531,152.5,300.9531" style="stroke: #A80036; stroke-width: 1.0;"/><line style="stroke: #A80036; stroke-width: 1.0;" x1="351.5" x2="351.5" y1="300.9531" y2="310.9531"/><line style="stroke: #A80036; stroke-width: 1.0;" x1="361.5" x2="351.5" y1="310.9531" y2="310.9531"/><text fill="#000000" font-family="sans-serif" font-size="13" lengthAdjust="spacingAndGlyphs" textLength="188" x="158.5" y="318.02">Jean, George, Lefty and Maria</text><text fill="#000000" font-family="sans-serif" font-size="13" lengthAdjust="spacingAndGlyphs" textLength="157" x="158.5" y="333.1528">are talking to each other</text><!--entity ..--><ellipse cx="15" cy="38.9531" fill="#FEFECE" filter="url(#fvjk23o)" rx="8" ry="8" style="stroke: #A80036; stroke-width: 2.0;"/><text fill="#000000" font-family="sans-serif" font-size="14" lengthAdjust="spacingAndGlyphs" textLength="8" x="11" y="60.9482">..</text><!--entity .--><ellipse cx="103" cy="38.9531" fill="#FEFECE" filter="url(#fvjk23o)" rx="8" ry="8" style="stroke: #A80036; stroke-width: 2.0;"/><text fill="#000000" font-family="sans-serif" font-size="14" lengthAdjust="spacingAndGlyphs" textLength="4" x="101" y="60.9482">.</text><!--entity plantuml, cascading-conference-after, svg--><rect fill="#FEFECE" filter="url(#fvjk23o)" height="36.2969" style="stroke: #A80036; stroke-width: 1.5;" width="309" x="556.5" y="28.9531"/><rect fill="#FEFECE" height="5" style="stroke: #A80036; stroke-width: 1.5;" width="10" x="551.5" y="33.9531"/><rect fill="#FEFECE" height="5" style="stroke: #A80036; stroke-width: 1.5;" width="10" x="551.5" y="55.25"/><text fill="#000000" font-family="sans-serif" font-size="14" lengthAdjust="spacingAndGlyphs" textLength="289" x="566.5" y="51.9482">plantuml, cascading-conference-after, svg</text><!--entity RC/RMS2--><rect fill="#FEFECE" filter="url(#fvjk23o)" height="36.2969" style="stroke: #A80036; stroke-width: 1.5;" width="85" x="530.5" y="302.9531"/><rect fill="#FEFECE" height="5" style="stroke: #A80036; stroke-width: 1.5;" width="10" x="525.5" y="307.9531"/><rect fill="#FEFECE" height="5" style="stroke: #A80036; stroke-width: 1.5;" width="10" x="525.5" y="329.25"/><text fill="#000000" font-family="sans-serif" font-size="14" lengthAdjust="spacingAndGlyphs" textLength="65" x="540.5" y="325.9482">RC/RMS2</text><!--entity RC/RMS3--><rect fill="#FEFECE" filter="url(#fvjk23o)" height="36.2969" style="stroke: #A80036; stroke-width: 1.5;" width="85" x="32.5" y="302.9531"/><rect fill="#FEFECE" height="5" style="stroke: #A80036; stroke-width: 1.5;" width="10" x="27.5" y="307.9531"/><rect fill="#FEFECE" height="5" style="stroke: #A80036; stroke-width: 1.5;" width="10" x="27.5" y="329.25"/><text fill="#000000" font-family="sans-serif" font-size="14" lengthAdjust="spacingAndGlyphs" textLength="65" x="42.5" y="325.9482">RC/RMS3</text><polygon fill="#FBFB77" filter="url(#fvjk23o)" points="396.5,308.4531,396.5,333.5859,495.5,333.5859,495.5,318.4531,485.5,308.4531,396.5,308.4531" style="stroke: #A80036; stroke-width: 1.0;"/><polygon fill="#FBFB77" points="396.5,308.4531,396.5,333.5859,495.5,333.5859,495.5,318.4531,485.5,308.4531,438.429,308.4531,351.859,224.1151,430.429,308.4531,396.5,308.4531" style="stroke: #A80036; stroke-width: 1.0;"/><line style="stroke: #A80036; stroke-width: 1.0;" x1="485.5" x2="485.5" y1="308.4531" y2="318.4531"/><line style="stroke: #A80036; stroke-width: 1.0;" x1="495.5" x2="485.5" y1="318.4531" y2="318.4531"/><text fill="#000000" font-family="sans-serif" font-size="13" lengthAdjust="spacingAndGlyphs" textLength="78" x="402.5" y="325.52">master RMS</text><polygon fill="#FBFB77" filter="url(#fvjk23o)" points="530,401.9531,530,427.0859,616,427.0859,616,411.9531,606,401.9531,530,401.9531" style="stroke: #A80036; stroke-width: 1.0;"/><polygon fill="#FBFB77" points="530,401.9531,530,427.0859,616,427.0859,616,411.9531,606,401.9531,577,401.9531,573,339.1636,569,401.9531,530,401.9531" style="stroke: #A80036; stroke-width: 1.0;"/><line style="stroke: #A80036; stroke-width: 1.0;" x1="606" x2="606" y1="401.9531" y2="411.9531"/><line style="stroke: #A80036; stroke-width: 1.0;" x1="616" x2="606" y1="411.9531" y2="411.9531"/><text fill="#000000" font-family="sans-serif" font-size="13" lengthAdjust="spacingAndGlyphs" textLength="65" x="536" y="419.02">slave RMS</text><polygon fill="#FBFB77" filter="url(#fvjk23o)" points="32,401.9531,32,427.0859,118,427.0859,118,411.9531,108,401.9531,32,401.9531" style="stroke: #A80036; stroke-width: 1.0;"/><polygon fill="#FBFB77" points="32,401.9531,32,427.0859,118,427.0859,118,411.9531,108,401.9531,79,401.9531,75,339.1636,71,401.9531,32,401.9531" style="stroke: #A80036; stroke-width: 1.0;"/><line style="stroke: #A80036; stroke-width: 1.0;" x1="108" x2="108" y1="401.9531" y2="411.9531"/><line style="stroke: #A80036; stroke-width: 1.0;" x1="118" x2="108" y1="411.9531" y2="411.9531"/><text fill="#000000" font-family="sans-serif" font-size="13" lengthAdjust="spacingAndGlyphs" textLength="65" x="38" y="419.02">slave RMS</text><path d="M326.864,64.1631 C321.118,92.3071 320.739,150.2621 325.725,182.3441 " fill="none" style="stroke: #A80036; stroke-width: 1.0;"/><polygon fill="#A80036" points="326.645,187.6411,329.046,178.0894,325.7894,182.7149,321.164,179.4583,326.645,187.6411" style="stroke: #A80036; stroke-width: 1.0;"/><path d="M343.615,64.1631 C349.698,92.3071 350.1,150.2621 344.82,182.3441 " fill="none" style="stroke: #A80036; stroke-width: 1.0;"/><polygon fill="#A80036" points="343.847,187.6411,349.4085,179.5128,344.7511,182.7235,341.5403,178.0662,343.847,187.6411" style="stroke: #A80036; stroke-width: 1.0;"/><path d="M486.551,64.1631 C455.674,92.8471 391.463,152.4991 357.379,184.1631 " fill="none" style="stroke: #A80036; stroke-width: 1.0;"/><polygon fill="#A80036" points="353.376,187.8821,362.6928,184.6888,357.0398,184.4797,357.2489,178.8267,353.376,187.8821" style="stroke: #A80036; stroke-width: 1.0;"/><path d="M256.086,64.1631 C271.991,92.5391 304.883,151.2221 322.77,183.1341 " fill="none" style="stroke: #A80036; stroke-width: 1.0;"/><polygon fill="#A80036" points="325.296,187.6411,324.3854,177.8345,322.8515,183.2794,317.4066,181.7456,325.296,187.6411" style="stroke: #A80036; stroke-width: 1.0;"/><path d="M179.181,62.7231 C210.004,90.8581 277.196,152.1901 312.423,184.3451 " fill="none" style="stroke: #A80036; stroke-width: 1.0;"/><polygon fill="#A80036" points="316.143,187.7411,312.1914,178.7198,312.4497,184.3707,306.7988,184.629,316.143,187.7411" style="stroke: #A80036; stroke-width: 1.0;"/><path d="M24.2812,51.7651 C47.4459,62.3581 70.6105,62.3491 93.7751,51.7391 " fill="none" style="stroke: #A80036; stroke-width: 1.0; stroke-dasharray: 7.0,7.0;"/><path d="M24.2812,42.1411 C47.4459,31.5481 70.6105,31.5571 93.7751,42.1671 " fill="none" style="stroke: #A80036; stroke-width: 1.0; stroke-dasharray: 7.0,7.0;"/><path d="M508.11,64.1531 C519.914,110.6871 553.936,244.8031 567.409,297.9151 " fill="none" style="stroke: #A80036; stroke-width: 1.0;"/><polygon fill="#A80036" points="568.648,302.7961,570.3141,293.0892,567.4195,297.9494,562.5594,295.0548,568.648,302.7961" style="stroke: #A80036; stroke-width: 1.0;"/><path d="M157.759,64.1531 C142.704,110.6871 99.3133,244.8031 82.1299,297.9151 " fill="none" style="stroke: #A80036; stroke-width: 1.0;"/><polygon fill="#A80036" points="80.5507,302.7961,87.1281,295.4655,82.0906,298.0392,79.5169,293.0017,80.5507,302.7961" style="stroke: #A80036; stroke-width: 1.0;"/><path d="M375.453,226.1601 C419.124,246.8941 488.299,279.7381 532.131,300.5491 " fill="none" style="stroke: #A80036; stroke-width: 1.0;"/><polygon fill="#A80036" points="536.819,302.7751,530.4039,295.3021,532.3021,300.6309,526.9732,302.5291,536.819,302.7751" style="stroke: #A80036; stroke-width: 1.0;"/><polygon fill="#A80036" points="370.889,223.9931,377.3041,231.4662,375.4059,226.1373,380.7348,224.2391,370.889,223.9931" style="stroke: #A80036; stroke-width: 1.0;"/><text fill="#000000" font-family="sans-serif" font-size="13" lengthAdjust="spacingAndGlyphs" textLength="23" x="469" y="267.02">RTP</text><path d="M291.107,226.0301 C243.324,246.7971 167.335,279.8231 119.366,300.6711 " fill="none" style="stroke: #A80036; stroke-width: 1.0;"/><polygon fill="#A80036" points="114.525,302.7751,124.3735,302.854,119.1102,300.7811,121.1831,295.5177,114.525,302.7751" style="stroke: #A80036; stroke-width: 1.0;"/><polygon fill="#A80036" points="295.794,223.9931,285.9455,223.9117,291.2083,225.986,289.134,231.2488,295.794,223.9931" style="stroke: #A80036; stroke-width: 1.0;"/><text fill="#000000" font-family="sans-serif" font-size="13" lengthAdjust="spacingAndGlyphs" textLength="23" x="221" y="267.02">RTP</text></g></svg>