<?xml version="1.0" encoding="UTF-8" standalone="no"?><svg xmlns="http://www.w3.org/2000/svg" xmlns:xlink="http://www.w3.org/1999/xlink" contentScriptType="application/ecmascript" contentStyleType="text/css" height="1665px" preserveAspectRatio="none" style="width:1308px;height:1665px;" version="1.1" viewBox="0 0 1308 1665" width="1308px" zoomAndPan="magnify"><defs><filter height="300%" id="foq8wkh" width="300%" x="-1" y="-1"><feGaussianBlur result="blurOut" stdDeviation="2.0"/><feColorMatrix in="blurOut" result="blurOut2" type="matrix" values="0 0 0 0 0 0 0 0 0 0 0 0 0 0 0 0 0 0 .4 0"/><feOffset dx="4.0" dy="4.0" in="blurOut2" result="blurOut3"/><feBlend in="SourceGraphic" in2="blurOut3" mode="normal"/></filter></defs><g><text fill="#000000" font-family="sans-serif" font-size="14" font-weight="bold" lengthAdjust="spacingAndGlyphs" textLength="473" x="416.5" y="22.9951">cascading-conference-mrb-sequence without extra bridges</text><rect fill="#FFFFFF" filter="url(#foq8wkh)" height="84.8125" style="stroke: #000000; stroke-width: 2.0;" width="467.5" x="220" y="222.2578"/><rect fill="#90EE90" height="1629.7109" style="stroke: #A80036; stroke-width: 1.0;" width="608.5" x="4" y="34.2969"/><text fill="#000000" font-family="sans-serif" font-size="13" font-weight="bold" lengthAdjust="spacingAndGlyphs" textLength="85" x="265.75" y="46.3638">RC1 Master</text><rect fill="#ADD8E6" height="1629.7109" style="stroke: #A80036; stroke-width: 1.0;" width="77" x="614.5" y="34.2969"/><text fill="#000000" font-family="sans-serif" font-size="13" font-weight="bold" lengthAdjust="spacingAndGlyphs" textLength="71" x="617.5" y="46.3638">Database</text><rect fill="#FFB6C1" height="1629.7109" style="stroke: #A80036; stroke-width: 1.0;" width="608.5" x="693.5" y="34.2969"/><text fill="#000000" font-family="sans-serif" font-size="13" font-weight="bold" lengthAdjust="spacingAndGlyphs" textLength="73" x="961.25" y="46.3638">RC2 Slave</text><line style="stroke: #A80036; stroke-width: 1.0; stroke-dasharray: 5.0,5.0;" x1="66" x2="66" y1="88.7266" y2="1625.7109"/><line style="stroke: #A80036; stroke-width: 1.0; stroke-dasharray: 5.0,5.0;" x1="259" x2="259" y1="88.7266" y2="1625.7109"/><line style="stroke: #A80036; stroke-width: 1.0; stroke-dasharray: 5.0,5.0;" x1="333" x2="333" y1="88.7266" y2="1625.7109"/><line style="stroke: #A80036; stroke-width: 1.0; stroke-dasharray: 5.0,5.0;" x1="579.5" x2="579.5" y1="88.7266" y2="1625.7109"/><line style="stroke: #A80036; stroke-width: 1.0; stroke-dasharray: 5.0,5.0;" x1="652.5" x2="652.5" y1="88.7266" y2="1625.7109"/><line style="stroke: #A80036; stroke-width: 1.0; stroke-dasharray: 5.0,5.0;" x1="726.5" x2="726.5" y1="88.7266" y2="1625.7109"/><line style="stroke: #A80036; stroke-width: 1.0; stroke-dasharray: 5.0,5.0;" x1="972" x2="972" y1="88.7266" y2="1625.7109"/><line style="stroke: #A80036; stroke-width: 1.0; stroke-dasharray: 5.0,5.0;" x1="1046" x2="1046" y1="88.7266" y2="1625.7109"/><line style="stroke: #A80036; stroke-width: 1.0; stroke-dasharray: 5.0,5.0;" x1="1239" x2="1239" y1="88.7266" y2="1625.7109"/><rect fill="#FEFECE" filter="url(#foq8wkh)" height="30.2969" style="stroke: #A80036; stroke-width: 1.5;" width="113" x="8" y="53.4297"/><text fill="#000000" font-family="sans-serif" font-size="14" lengthAdjust="spacingAndGlyphs" textLength="99" x="15" y="73.4248">CnfController1</text><rect fill="#FEFECE" filter="url(#foq8wkh)" height="30.2969" style="stroke: #A80036; stroke-width: 1.5;" width="113" x="8" y="1624.7109"/><text fill="#000000" font-family="sans-serif" font-size="14" lengthAdjust="spacingAndGlyphs" textLength="99" x="15" y="1644.7061">CnfController1</text><rect fill="#FEFECE" filter="url(#foq8wkh)" height="30.2969" style="stroke: #A80036; stroke-width: 1.5;" width="55" x="230" y="53.4297"/><text fill="#000000" font-family="sans-serif" font-size="14" lengthAdjust="spacingAndGlyphs" textLength="41" x="237" y="73.4248">MRB1</text><rect fill="#FEFECE" filter="url(#foq8wkh)" height="30.2969" style="stroke: #A80036; stroke-width: 1.5;" width="55" x="230" y="1624.7109"/><text fill="#000000" font-family="sans-serif" font-size="14" lengthAdjust="spacingAndGlyphs" textLength="41" x="237" y="1644.7061">MRB1</text><rect fill="#FEFECE" filter="url(#foq8wkh)" height="30.2969" style="stroke: #A80036; stroke-width: 1.5;" width="65" x="299" y="53.4297"/><text fill="#000000" font-family="sans-serif" font-size="14" lengthAdjust="spacingAndGlyphs" textLength="51" x="306" y="73.4248">CMRC1</text><rect fill="#FEFECE" filter="url(#foq8wkh)" height="30.2969" style="stroke: #A80036; stroke-width: 1.5;" width="65" x="299" y="1624.7109"/><text fill="#000000" font-family="sans-serif" font-size="14" lengthAdjust="spacingAndGlyphs" textLength="51" x="306" y="1644.7061">CMRC1</text><rect fill="#FEFECE" filter="url(#foq8wkh)" height="30.2969" style="stroke: #A80036; stroke-width: 1.5;" width="54" x="550.5" y="53.4297"/><text fill="#000000" font-family="sans-serif" font-size="14" lengthAdjust="spacingAndGlyphs" textLength="40" x="557.5" y="73.4248">RMS1</text><rect fill="#FEFECE" filter="url(#foq8wkh)" height="30.2969" style="stroke: #A80036; stroke-width: 1.5;" width="54" x="550.5" y="1624.7109"/><text fill="#000000" font-family="sans-serif" font-size="14" lengthAdjust="spacingAndGlyphs" textLength="40" x="557.5" y="1644.7061">RMS1</text><rect fill="#FEFECE" filter="url(#foq8wkh)" height="30.2969" style="stroke: #A80036; stroke-width: 1.5;" width="45" x="628.5" y="53.4297"/><text fill="#000000" font-family="sans-serif" font-size="14" lengthAdjust="spacingAndGlyphs" textLength="31" x="635.5" y="73.4248">DAO</text><rect fill="#FEFECE" filter="url(#foq8wkh)" height="30.2969" style="stroke: #A80036; stroke-width: 1.5;" width="45" x="628.5" y="1624.7109"/><text fill="#000000" font-family="sans-serif" font-size="14" lengthAdjust="spacingAndGlyphs" textLength="31" x="635.5" y="1644.7061">DAO</text><rect fill="#FEFECE" filter="url(#foq8wkh)" height="30.2969" style="stroke: #A80036; stroke-width: 1.5;" width="54" x="697.5" y="53.4297"/><text fill="#000000" font-family="sans-serif" font-size="14" lengthAdjust="spacingAndGlyphs" textLength="40" x="704.5" y="73.4248">RMS2</text><rect fill="#FEFECE" filter="url(#foq8wkh)" height="30.2969" style="stroke: #A80036; stroke-width: 1.5;" width="54" x="697.5" y="1624.7109"/><text fill="#000000" font-family="sans-serif" font-size="14" lengthAdjust="spacingAndGlyphs" textLength="40" x="704.5" y="1644.7061">RMS2</text><rect fill="#FEFECE" filter="url(#foq8wkh)" height="30.2969" style="stroke: #A80036; stroke-width: 1.5;" width="65" x="938" y="53.4297"/><text fill="#000000" font-family="sans-serif" font-size="14" lengthAdjust="spacingAndGlyphs" textLength="51" x="945" y="73.4248">CMRC2</text><rect fill="#FEFECE" filter="url(#foq8wkh)" height="30.2969" style="stroke: #A80036; stroke-width: 1.5;" width="65" x="938" y="1624.7109"/><text fill="#000000" font-family="sans-serif" font-size="14" lengthAdjust="spacingAndGlyphs" textLength="51" x="945" y="1644.7061">CMRC2</text><rect fill="#FEFECE" filter="url(#foq8wkh)" height="30.2969" style="stroke: #A80036; stroke-width: 1.5;" width="55" x="1017" y="53.4297"/><text fill="#000000" font-family="sans-serif" font-size="14" lengthAdjust="spacingAndGlyphs" textLength="41" x="1024" y="73.4248">MRB2</text><rect fill="#FEFECE" filter="url(#foq8wkh)" height="30.2969" style="stroke: #A80036; stroke-width: 1.5;" width="55" x="1017" y="1624.7109"/><text fill="#000000" font-family="sans-serif" font-size="14" lengthAdjust="spacingAndGlyphs" textLength="41" x="1024" y="1644.7061">MRB2</text><rect fill="#FEFECE" filter="url(#foq8wkh)" height="30.2969" style="stroke: #A80036; stroke-width: 1.5;" width="113" x="1181" y="53.4297"/><text fill="#000000" font-family="sans-serif" font-size="14" lengthAdjust="spacingAndGlyphs" textLength="99" x="1188" y="73.4248">CnfController2</text><rect fill="#FEFECE" filter="url(#foq8wkh)" height="30.2969" style="stroke: #A80036; stroke-width: 1.5;" width="113" x="1181" y="1624.7109"/><text fill="#000000" font-family="sans-serif" font-size="14" lengthAdjust="spacingAndGlyphs" textLength="99" x="1188" y="1644.7061">CnfController2</text><rect fill="#EEEEEE" filter="url(#foq8wkh)" height="3" style="stroke: #EEEEEE; stroke-width: 1.0;" width="1300" x="3" y="119.293"/><line style="stroke: #000000; stroke-width: 1.0;" x1="3" x2="1303" y1="119.293" y2="119.293"/><line style="stroke: #000000; stroke-width: 1.0;" x1="3" x2="1303" y1="122.293" y2="122.293"/><rect fill="#EEEEEE" filter="url(#foq8wkh)" height="23.1328" style="stroke: #000000; stroke-width: 2.0;" width="332" x="487" y="108.7266"/><text fill="#000000" font-family="sans-serif" font-size="13" font-weight="bold" lengthAdjust="spacingAndGlyphs" textLength="318" x="493" y="124.7935">1st participant (aka Master) enters on RC1</text><polygon fill="#A80036" points="247.5,173.8594,257.5,177.8594,247.5,181.8594,251.5,177.8594" style="stroke: #A80036; stroke-width: 1.0;"/><line style="stroke: #A80036; stroke-width: 1.0;" x1="66.5" x2="253.5" y1="177.8594" y2="177.8594"/><text fill="#000000" font-family="sans-serif" font-size="13" lengthAdjust="spacingAndGlyphs" textLength="116" x="73.5" y="157.9263">GetMediaGateway</text><text fill="#000000" font-family="sans-serif" font-size="13" lengthAdjust="spacingAndGlyphs" textLength="70" x="73.5" y="173.0591">(cnf name)</text><polygon fill="#A80036" points="77.5,203.125,67.5,207.125,77.5,211.125,73.5,207.125" style="stroke: #A80036; stroke-width: 1.0;"/><line style="stroke: #A80036; stroke-width: 1.0;" x1="71.5" x2="258.5" y1="207.125" y2="207.125"/><text fill="#000000" font-family="sans-serif" font-size="13" lengthAdjust="spacingAndGlyphs" textLength="150" x="83.5" y="202.1919">MediaGateway to RMS1</text><rect fill="none" height="84.8125" style="stroke: #000000; stroke-width: 2.0;" width="467.5" x="220" y="222.2578"/><polygon fill="#EEEEEE" points="220,222.2578,284,222.2578,284,229.2578,274,239.2578,220,239.2578,220,222.2578" style="stroke: #000000; stroke-width: 2.0;"/><text fill="#000000" font-family="sans-serif" font-size="13" font-weight="bold" lengthAdjust="spacingAndGlyphs" textLength="19" x="235" y="235.3247">alt</text><text fill="#000000" font-family="sans-serif" font-size="11" font-weight="bold" lengthAdjust="spacingAndGlyphs" textLength="119" x="299" y="234.4683">[If there is no conf</text><text fill="#000000" font-family="sans-serif" font-size="11" font-weight="bold" lengthAdjust="spacingAndGlyphs" textLength="111" x="299" y="247.2729">in 'Running' state</text><text fill="#000000" font-family="sans-serif" font-size="11" font-weight="bold" lengthAdjust="spacingAndGlyphs" textLength="148" x="299" y="260.0776">in DB with same name]</text><polygon fill="#A80036" points="641,294.8047,651,298.8047,641,302.8047,645,298.8047" style="stroke: #A80036; stroke-width: 1.0;"/><line style="stroke: #A80036; stroke-width: 1.0;" x1="259.5" x2="647" y1="298.8047" y2="298.8047"/><text fill="#000000" font-family="sans-serif" font-size="13" lengthAdjust="spacingAndGlyphs" textLength="82" x="266.5" y="278.8716">generate Sid</text><text fill="#000000" font-family="sans-serif" font-size="13" lengthAdjust="spacingAndGlyphs" textLength="146" x="266.5" y="294.0044">save conferencerecord</text><polygon fill="#A80036" points="247.5,346.0703,257.5,350.0703,247.5,354.0703,251.5,350.0703" style="stroke: #A80036; stroke-width: 1.0;"/><line style="stroke: #A80036; stroke-width: 1.0;" x1="66.5" x2="253.5" y1="350.0703" y2="350.0703"/><text fill="#000000" font-family="sans-serif" font-size="13" lengthAdjust="spacingAndGlyphs" textLength="23" x="73.5" y="330.1372">Get</text><text fill="#000000" font-family="sans-serif" font-size="13" lengthAdjust="spacingAndGlyphs" textLength="169" x="73.5" y="345.27">CnfMediaResourceCntroler</text><polygon fill="#A80036" points="77.5,390.3359,67.5,394.3359,77.5,398.3359,73.5,394.3359" style="stroke: #A80036; stroke-width: 1.0;"/><line style="stroke: #A80036; stroke-width: 1.0;" x1="71.5" x2="258.5" y1="394.3359" y2="394.3359"/><text fill="#000000" font-family="sans-serif" font-size="13" lengthAdjust="spacingAndGlyphs" textLength="62" x="83.5" y="374.4028">new actor</text><text fill="#000000" font-family="sans-serif" font-size="13" lengthAdjust="spacingAndGlyphs" textLength="45" x="83.5" y="389.5356">CMRC1</text><line style="stroke: #A80036; stroke-width: 1.0;" x1="66.5" x2="108.5" y1="423.7344" y2="423.7344"/><line style="stroke: #A80036; stroke-width: 1.0;" x1="108.5" x2="108.5" y1="423.7344" y2="436.7344"/><line style="stroke: #A80036; stroke-width: 1.0;" x1="67.5" x2="108.5" y1="436.7344" y2="436.7344"/><polygon fill="#A80036" points="77.5,432.7344,67.5,436.7344,77.5,440.7344,73.5,436.7344" style="stroke: #A80036; stroke-width: 1.0;"/><text fill="#000000" font-family="sans-serif" font-size="13" lengthAdjust="spacingAndGlyphs" textLength="100" x="73.5" y="418.6685">onJoinComplete</text><polygon fill="#A80036" points="321.5,461.7344,331.5,465.7344,321.5,469.7344,325.5,465.7344" style="stroke: #A80036; stroke-width: 1.0;"/><line style="stroke: #A80036; stroke-width: 1.0;" x1="66.5" x2="327.5" y1="465.7344" y2="465.7344"/><text fill="#000000" font-family="sans-serif" font-size="13" lengthAdjust="spacingAndGlyphs" textLength="199" x="73.5" y="460.8013">StartBridgeConnecting Process</text><polygon fill="#A80036" points="344.5,490.8672,334.5,494.8672,344.5,498.8672,340.5,494.8672" style="stroke: #A80036; stroke-width: 1.0;"/><polygon fill="#A80036" points="641,490.8672,651,494.8672,641,498.8672,645,494.8672" style="stroke: #A80036; stroke-width: 1.0;"/><line style="stroke: #A80036; stroke-width: 1.0;" x1="338.5" x2="647" y1="494.8672" y2="494.8672"/><text fill="#000000" font-family="sans-serif" font-size="13" lengthAdjust="spacingAndGlyphs" textLength="81" x="350.5" y="489.9341">get Cnf Data</text><polygon fill="#A80036" points="344.5,520,334.5,524,344.5,528,340.5,524" style="stroke: #A80036; stroke-width: 1.0;"/><polygon fill="#A80036" points="567.5,520,577.5,524,567.5,528,571.5,524" style="stroke: #A80036; stroke-width: 1.0;"/><line style="stroke: #A80036; stroke-width: 1.0;" x1="338.5" x2="573.5" y1="524" y2="524"/><text fill="#000000" font-family="sans-serif" font-size="13" lengthAdjust="spacingAndGlyphs" textLength="88" x="350.5" y="519.0669">mediasession</text><polygon fill="#A80036" points="567.5,564.1328,577.5,568.1328,567.5,572.1328,571.5,568.1328" style="stroke: #A80036; stroke-width: 1.0;"/><line style="stroke: #A80036; stroke-width: 1.0;" x1="333.5" x2="573.5" y1="568.1328" y2="568.1328"/><text fill="#000000" font-family="sans-serif" font-size="13" lengthAdjust="spacingAndGlyphs" textLength="44" x="340.5" y="548.1997">(CRCX)</text><text fill="#000000" font-family="sans-serif" font-size="13" lengthAdjust="spacingAndGlyphs" textLength="85" x="340.5" y="563.3325">create bridge</text><polygon fill="#A80036" points="344.5,593.3984,334.5,597.3984,344.5,601.3984,340.5,597.3984" style="stroke: #A80036; stroke-width: 1.0;"/><line style="stroke: #A80036; stroke-width: 1.0;" x1="338.5" x2="578.5" y1="597.3984" y2="597.3984"/><text fill="#000000" font-family="sans-serif" font-size="13" lengthAdjust="spacingAndGlyphs" textLength="82" x="350.5" y="592.4653">success/SDP</text><polygon fill="#A80036" points="641,637.5313,651,641.5313,641,645.5313,645,641.5313" style="stroke: #A80036; stroke-width: 1.0;"/><line style="stroke: #A80036; stroke-width: 1.0;" x1="333.5" x2="647" y1="641.5313" y2="641.5313"/><text fill="#000000" font-family="sans-serif" font-size="13" lengthAdjust="spacingAndGlyphs" textLength="94" x="340.5" y="621.5981">save bridge ep</text><text fill="#000000" font-family="sans-serif" font-size="13" lengthAdjust="spacingAndGlyphs" textLength="88" x="340.5" y="636.731">number in DB</text><polygon fill="#A80036" points="567.5,681.7969,577.5,685.7969,567.5,689.7969,571.5,685.7969" style="stroke: #A80036; stroke-width: 1.0;"/><line style="stroke: #A80036; stroke-width: 1.0;" x1="333.5" x2="573.5" y1="685.7969" y2="685.7969"/><text fill="#000000" font-family="sans-serif" font-size="13" lengthAdjust="spacingAndGlyphs" textLength="44" x="340.5" y="665.8638">(CRCX)</text><text fill="#000000" font-family="sans-serif" font-size="13" lengthAdjust="spacingAndGlyphs" textLength="218" x="344.5" y="680.9966">connect bridge and conference ep</text><polygon fill="#A80036" points="344.5,711.0625,334.5,715.0625,344.5,719.0625,340.5,715.0625" style="stroke: #A80036; stroke-width: 1.0;"/><line style="stroke: #A80036; stroke-width: 1.0;" x1="338.5" x2="578.5" y1="715.0625" y2="715.0625"/><text fill="#000000" font-family="sans-serif" font-size="13" lengthAdjust="spacingAndGlyphs" textLength="51" x="350.5" y="710.1294">success</text><rect fill="#EEEEEE" filter="url(#foq8wkh)" height="3" style="stroke: #EEEEEE; stroke-width: 1.0;" width="1300" x="3" y="743.7617"/><line style="stroke: #000000; stroke-width: 1.0;" x1="3" x2="1303" y1="743.7617" y2="743.7617"/><line style="stroke: #000000; stroke-width: 1.0;" x1="3" x2="1303" y1="746.7617" y2="746.7617"/><rect fill="#EEEEEE" filter="url(#foq8wkh)" height="23.1328" style="stroke: #000000; stroke-width: 2.0;" width="325" x="490.5" y="733.1953"/><text fill="#000000" font-family="sans-serif" font-size="13" font-weight="bold" lengthAdjust="spacingAndGlyphs" textLength="311" x="496.5" y="749.2622">2nd participant (aka Slave) enters on RC2</text><polygon fill="#A80036" points="1057.5,798.3281,1047.5,802.3281,1057.5,806.3281,1053.5,802.3281" style="stroke: #A80036; stroke-width: 1.0;"/><line style="stroke: #A80036; stroke-width: 1.0;" x1="1051.5" x2="1238.5" y1="802.3281" y2="802.3281"/><text fill="#000000" font-family="sans-serif" font-size="13" lengthAdjust="spacingAndGlyphs" textLength="116" x="1063.5" y="782.395">GetMediaGateway</text><text fill="#000000" font-family="sans-serif" font-size="13" lengthAdjust="spacingAndGlyphs" textLength="70" x="1063.5" y="797.5278">(cnf name)</text><polygon fill="#A80036" points="1227.5,827.5938,1237.5,831.5938,1227.5,835.5938,1231.5,831.5938" style="stroke: #A80036; stroke-width: 1.0;"/><line style="stroke: #A80036; stroke-width: 1.0;" x1="1046.5" x2="1233.5" y1="831.5938" y2="831.5938"/><text fill="#000000" font-family="sans-serif" font-size="13" lengthAdjust="spacingAndGlyphs" textLength="150" x="1053.5" y="826.6606">MediaGateway to RMS2</text><polygon fill="#A80036" points="1057.5,871.7266,1047.5,875.7266,1057.5,879.7266,1053.5,875.7266" style="stroke: #A80036; stroke-width: 1.0;"/><line style="stroke: #A80036; stroke-width: 1.0;" x1="1051.5" x2="1238.5" y1="875.7266" y2="875.7266"/><text fill="#000000" font-family="sans-serif" font-size="13" lengthAdjust="spacingAndGlyphs" textLength="23" x="1063.5" y="855.7935">Get</text><text fill="#000000" font-family="sans-serif" font-size="13" lengthAdjust="spacingAndGlyphs" textLength="169" x="1063.5" y="870.9263">CnfMediaResourceCntroler</text><polygon fill="#A80036" points="1227.5,915.9922,1237.5,919.9922,1227.5,923.9922,1231.5,919.9922" style="stroke: #A80036; stroke-width: 1.0;"/><line style="stroke: #A80036; stroke-width: 1.0;" x1="1046.5" x2="1233.5" y1="919.9922" y2="919.9922"/><text fill="#000000" font-family="sans-serif" font-size="13" lengthAdjust="spacingAndGlyphs" textLength="62" x="1053.5" y="900.0591">new actor</text><text fill="#000000" font-family="sans-serif" font-size="13" lengthAdjust="spacingAndGlyphs" textLength="45" x="1053.5" y="915.1919">CMRC2</text><polygon fill="#A80036" points="983.5,945.2578,973.5,949.2578,983.5,953.2578,979.5,949.2578" style="stroke: #A80036; stroke-width: 1.0;"/><line style="stroke: #A80036; stroke-width: 1.0;" x1="977.5" x2="1238.5" y1="949.2578" y2="949.2578"/><text fill="#000000" font-family="sans-serif" font-size="13" lengthAdjust="spacingAndGlyphs" textLength="199" x="989.5" y="944.3247">StartBridgeConnecting Process</text><polygon fill="#A80036" points="664,974.3906,654,978.3906,664,982.3906,660,978.3906" style="stroke: #A80036; stroke-width: 1.0;"/><polygon fill="#A80036" points="960.5,974.3906,970.5,978.3906,960.5,982.3906,964.5,978.3906" style="stroke: #A80036; stroke-width: 1.0;"/><line style="stroke: #A80036; stroke-width: 1.0;" x1="658" x2="966.5" y1="978.3906" y2="978.3906"/><text fill="#000000" font-family="sans-serif" font-size="13" lengthAdjust="spacingAndGlyphs" textLength="81" x="670" y="973.4575">get Cnf Data</text><polygon fill="#A80036" points="737.5,1003.5234,727.5,1007.5234,737.5,1011.5234,733.5,1007.5234" style="stroke: #A80036; stroke-width: 1.0;"/><polygon fill="#A80036" points="960.5,1003.5234,970.5,1007.5234,960.5,1011.5234,964.5,1007.5234" style="stroke: #A80036; stroke-width: 1.0;"/><line style="stroke: #A80036; stroke-width: 1.0;" x1="731.5" x2="966.5" y1="1007.5234" y2="1007.5234"/><text fill="#000000" font-family="sans-serif" font-size="13" lengthAdjust="spacingAndGlyphs" textLength="88" x="743.5" y="1002.5903">mediasession</text><polygon fill="#A80036" points="737.5,1047.6563,727.5,1051.6563,737.5,1055.6563,733.5,1051.6563" style="stroke: #A80036; stroke-width: 1.0;"/><line style="stroke: #A80036; stroke-width: 1.0;" x1="731.5" x2="971.5" y1="1051.6563" y2="1051.6563"/><text fill="#000000" font-family="sans-serif" font-size="13" lengthAdjust="spacingAndGlyphs" textLength="44" x="743.5" y="1031.7231">(CRCX)</text><text fill="#000000" font-family="sans-serif" font-size="13" lengthAdjust="spacingAndGlyphs" textLength="85" x="743.5" y="1046.856">create bridge</text><polygon fill="#A80036" points="960.5,1076.9219,970.5,1080.9219,960.5,1084.9219,964.5,1080.9219" style="stroke: #A80036; stroke-width: 1.0;"/><line style="stroke: #A80036; stroke-width: 1.0;" x1="726.5" x2="966.5" y1="1080.9219" y2="1080.9219"/><text fill="#000000" font-family="sans-serif" font-size="13" lengthAdjust="spacingAndGlyphs" textLength="82" x="733.5" y="1075.9888">success/SDP</text><polygon fill="#A80036" points="737.5,1121.0547,727.5,1125.0547,737.5,1129.0547,733.5,1125.0547" style="stroke: #A80036; stroke-width: 1.0;"/><line style="stroke: #A80036; stroke-width: 1.0;" x1="731.5" x2="971.5" y1="1125.0547" y2="1125.0547"/><text fill="#000000" font-family="sans-serif" font-size="13" lengthAdjust="spacingAndGlyphs" textLength="44" x="743.5" y="1105.1216">(CRCX)</text><text fill="#000000" font-family="sans-serif" font-size="13" lengthAdjust="spacingAndGlyphs" textLength="218" x="747.5" y="1120.2544">connect bridge and conference ep</text><polygon fill="#A80036" points="960.5,1150.3203,970.5,1154.3203,960.5,1158.3203,964.5,1154.3203" style="stroke: #A80036; stroke-width: 1.0;"/><line style="stroke: #A80036; stroke-width: 1.0;" x1="726.5" x2="966.5" y1="1154.3203" y2="1154.3203"/><text fill="#000000" font-family="sans-serif" font-size="13" lengthAdjust="spacingAndGlyphs" textLength="51" x="733.5" y="1149.3872">success</text><rect fill="#EEEEEE" filter="url(#foq8wkh)" height="3" style="stroke: #EEEEEE; stroke-width: 1.0;" width="1300" x="3" y="1183.0195"/><line style="stroke: #000000; stroke-width: 1.0;" x1="3" x2="1303" y1="1183.0195" y2="1183.0195"/><line style="stroke: #000000; stroke-width: 1.0;" x1="3" x2="1303" y1="1186.0195" y2="1186.0195"/><rect fill="#EEEEEE" filter="url(#foq8wkh)" height="23.1328" style="stroke: #000000; stroke-width: 2.0;" width="752" x="277" y="1172.4531"/><text fill="#000000" font-family="sans-serif" font-size="13" font-weight="bold" lengthAdjust="spacingAndGlyphs" textLength="738" x="283" y="1188.52">Slave Thread creates connection with master RMS on bridge where Master Participant is connected</text><polygon fill="#A80036" points="590.5,1252.5859,580.5,1256.5859,590.5,1260.5859,586.5,1256.5859" style="stroke: #A80036; stroke-width: 1.0;"/><line style="stroke: #A80036; stroke-width: 1.0;" x1="584.5" x2="971.5" y1="1256.5859" y2="1256.5859"/><text fill="#000000" font-family="sans-serif" font-size="13" lengthAdjust="spacingAndGlyphs" textLength="126" x="596.5" y="1221.6528">(MGCP/SDP - CRCX)</text><text fill="#000000" font-family="sans-serif" font-size="13" lengthAdjust="spacingAndGlyphs" textLength="91" x="600.5" y="1236.7856">also pass SDP</text><text fill="#000000" font-family="sans-serif" font-size="13" lengthAdjust="spacingAndGlyphs" textLength="188" x="596.5" y="1251.9185">from RMS2 bridge connection</text><polygon fill="#A80036" points="960.5,1281.9844,970.5,1285.9844,960.5,1289.9844,964.5,1285.9844" style="stroke: #A80036; stroke-width: 1.0;"/><line style="stroke: #A80036; stroke-width: 1.0;" x1="579.5" x2="966.5" y1="1285.9844" y2="1285.9844"/><text fill="#000000" font-family="sans-serif" font-size="13" lengthAdjust="spacingAndGlyphs" textLength="82" x="586.5" y="1281.0513">success/SDP</text><polygon fill="#A80036" points="737.5,1326.1172,727.5,1330.1172,737.5,1334.1172,733.5,1330.1172" style="stroke: #A80036; stroke-width: 1.0;"/><line style="stroke: #A80036; stroke-width: 1.0;" x1="731.5" x2="971.5" y1="1330.1172" y2="1330.1172"/><text fill="#000000" font-family="sans-serif" font-size="13" lengthAdjust="spacingAndGlyphs" textLength="130" x="743.5" y="1310.1841">(MGCP/SDP - MDCX)</text><text fill="#000000" font-family="sans-serif" font-size="13" lengthAdjust="spacingAndGlyphs" textLength="177" x="743.5" y="1325.3169">modify with sdp from RMS1.</text><polygon fill="#A80036" points="960.5,1355.3828,970.5,1359.3828,960.5,1363.3828,964.5,1359.3828" style="stroke: #A80036; stroke-width: 1.0;"/><line style="stroke: #A80036; stroke-width: 1.0;" x1="726.5" x2="966.5" y1="1359.3828" y2="1359.3828"/><text fill="#000000" font-family="sans-serif" font-size="13" lengthAdjust="spacingAndGlyphs" textLength="51" x="733.5" y="1354.4497">success</text><rect fill="#EEEEEE" filter="url(#foq8wkh)" height="3" style="stroke: #EEEEEE; stroke-width: 1.0;" width="1300" x="3" y="1388.082"/><line style="stroke: #000000; stroke-width: 1.0;" x1="3" x2="1303" y1="1388.082" y2="1388.082"/><line style="stroke: #000000; stroke-width: 1.0;" x1="3" x2="1303" y1="1391.082" y2="1391.082"/><rect fill="#EEEEEE" filter="url(#foq8wkh)" height="23.1328" style="stroke: #000000; stroke-width: 2.0;" width="325" x="490.5" y="1377.5156"/><text fill="#000000" font-family="sans-serif" font-size="13" font-weight="bold" lengthAdjust="spacingAndGlyphs" textLength="311" x="496.5" y="1393.5825">Stop MOH and Unmute Master participant</text><polygon fill="#A80036" points="590.5,1427.6484,580.5,1431.6484,590.5,1435.6484,586.5,1431.6484" style="stroke: #A80036; stroke-width: 1.0;"/><polygon fill="#A80036" points="714.5,1427.6484,724.5,1431.6484,714.5,1435.6484,718.5,1431.6484" style="stroke: #A80036; stroke-width: 1.0;"/><line style="stroke: #A80036; stroke-width: 1.0;" x1="584.5" x2="720.5" y1="1431.6484" y2="1431.6484"/><text fill="#000000" font-family="sans-serif" font-size="13" lengthAdjust="spacingAndGlyphs" textLength="23" x="596.5" y="1426.7153">RTP</text><polygon fill="#A80036" points="590.5,1471.7813,580.5,1475.7813,590.5,1479.7813,586.5,1475.7813" style="stroke: #A80036; stroke-width: 1.0;"/><line style="stroke: #A80036; stroke-width: 1.0;" x1="584.5" x2="971.5" y1="1475.7813" y2="1475.7813"/><text fill="#000000" font-family="sans-serif" font-size="13" lengthAdjust="spacingAndGlyphs" textLength="123" x="596.5" y="1455.8481">Stop Music on Hold</text><text fill="#000000" font-family="sans-serif" font-size="13" lengthAdjust="spacingAndGlyphs" textLength="302" x="596.5" y="1470.981">Still need to identify command and parameters</text><polygon fill="#A80036" points="960.5,1501.0469,970.5,1505.0469,960.5,1509.0469,964.5,1505.0469" style="stroke: #A80036; stroke-width: 1.0;"/><line style="stroke: #A80036; stroke-width: 1.0;" x1="579.5" x2="966.5" y1="1505.0469" y2="1505.0469"/><text fill="#000000" font-family="sans-serif" font-size="13" lengthAdjust="spacingAndGlyphs" textLength="55" x="586.5" y="1500.1138">success.</text><polygon fill="#A80036" points="590.5,1545.1797,580.5,1549.1797,590.5,1553.1797,586.5,1549.1797" style="stroke: #A80036; stroke-width: 1.0;"/><line style="stroke: #A80036; stroke-width: 1.0;" x1="584.5" x2="971.5" y1="1549.1797" y2="1549.1797"/><text fill="#000000" font-family="sans-serif" font-size="13" lengthAdjust="spacingAndGlyphs" textLength="50" x="596.5" y="1529.2466">UnMute</text><text fill="#000000" font-family="sans-serif" font-size="13" lengthAdjust="spacingAndGlyphs" textLength="302" x="596.5" y="1544.3794">Still need to identify command and parameters</text><polygon fill="#A80036" points="960.5,1574.4453,970.5,1578.4453,960.5,1582.4453,964.5,1578.4453" style="stroke: #A80036; stroke-width: 1.0;"/><line style="stroke: #A80036; stroke-width: 1.0;" x1="579.5" x2="966.5" y1="1578.4453" y2="1578.4453"/><text fill="#000000" font-family="sans-serif" font-size="13" lengthAdjust="spacingAndGlyphs" textLength="55" x="586.5" y="1573.5122">success.</text><polygon fill="#A80036" points="590.5,1603.5781,580.5,1607.5781,590.5,1611.5781,586.5,1607.5781" style="stroke: #A80036; stroke-width: 1.0;"/><polygon fill="#A80036" points="714.5,1603.5781,724.5,1607.5781,714.5,1611.5781,718.5,1607.5781" style="stroke: #A80036; stroke-width: 1.0;"/><line style="stroke: #A80036; stroke-width: 1.0;" x1="584.5" x2="720.5" y1="1607.5781" y2="1607.5781"/><text fill="#000000" font-family="sans-serif" font-size="13" lengthAdjust="spacingAndGlyphs" textLength="23" x="596.5" y="1602.645">RTP</text></g></svg>