<?xml version="1.0" encoding="UTF-8" standalone="no"?><svg xmlns="http://www.w3.org/2000/svg" xmlns:xlink="http://www.w3.org/1999/xlink" contentScriptType="application/ecmascript" contentStyleType="text/css" height="1200px" preserveAspectRatio="none" style="width:1128px;height:1200px;" version="1.1" viewBox="0 0 1128 1200" width="1128px" zoomAndPan="magnify"><defs><filter height="300%" id="fg8b2y7" width="300%" x="-1" y="-1"><feGaussianBlur result="blurOut" stdDeviation="2.0"/><feColorMatrix in="blurOut" result="blurOut2" type="matrix" values="0 0 0 0 0 0 0 0 0 0 0 0 0 0 0 0 0 0 .4 0"/><feOffset dx="4.0" dy="4.0" in="blurOut2" result="blurOut3"/><feBlend in="SourceGraphic" in2="blurOut3" mode="normal"/></filter></defs><g><text fill="#000000" font-family="sans-serif" font-size="14" font-weight="bold" lengthAdjust="spacingAndGlyphs" textLength="335" x="395.75" y="22.9951">cascading-conference highlevel sequence</text><rect fill="#90EE90" height="1165.5781" style="stroke: #A80036; stroke-width: 1.0;" width="289" x="4" y="34.2969"/><text fill="#000000" font-family="sans-serif" font-size="13" font-weight="bold" lengthAdjust="spacingAndGlyphs" textLength="42" x="127.5" y="46.3638">Client</text><rect fill="#ADD8E6" height="1165.5781" style="stroke: #A80036; stroke-width: 1.0;" width="340" x="295" y="34.2969"/><text fill="#000000" font-family="sans-serif" font-size="13" font-weight="bold" lengthAdjust="spacingAndGlyphs" textLength="80" x="425" y="46.3638">RestComm</text><rect fill="#D3D3D3" height="1165.5781" style="stroke: #A80036; stroke-width: 1.0;" width="77" x="841.5" y="34.2969"/><text fill="#000000" font-family="sans-serif" font-size="13" font-weight="bold" lengthAdjust="spacingAndGlyphs" textLength="71" x="844.5" y="46.3638">Database</text><rect fill="#FFFFE0" height="1165.5781" style="stroke: #A80036; stroke-width: 1.0;" width="202" x="920.5" y="34.2969"/><text fill="#000000" font-family="sans-serif" font-size="13" font-weight="bold" lengthAdjust="spacingAndGlyphs" textLength="92" x="975.5" y="46.3638">MediaServer</text><line style="stroke: #A80036; stroke-width: 1.0; stroke-dasharray: 5.0,5.0;" x1="51" x2="51" y1="136.7266" y2="1113.5781"/><line style="stroke: #A80036; stroke-width: 1.0; stroke-dasharray: 5.0,5.0;" x1="148" x2="148" y1="136.7266" y2="1113.5781"/><line style="stroke: #A80036; stroke-width: 1.0; stroke-dasharray: 5.0,5.0;" x1="245" x2="245" y1="136.7266" y2="1113.5781"/><line style="stroke: #A80036; stroke-width: 1.0; stroke-dasharray: 5.0,5.0;" x1="351" x2="351" y1="136.7266" y2="1113.5781"/><line style="stroke: #A80036; stroke-width: 1.0; stroke-dasharray: 5.0,5.0;" x1="465" x2="465" y1="136.7266" y2="1113.5781"/><line style="stroke: #A80036; stroke-width: 1.0; stroke-dasharray: 5.0,5.0;" x1="579" x2="579" y1="136.7266" y2="1113.5781"/><line style="stroke: #A80036; stroke-width: 1.0; stroke-dasharray: 5.0,5.0;" x1="879.5" x2="879.5" y1="136.7266" y2="1113.5781"/><line style="stroke: #A80036; stroke-width: 1.0; stroke-dasharray: 5.0,5.0;" x1="953.5" x2="953.5" y1="136.7266" y2="1113.5781"/><line style="stroke: #A80036; stroke-width: 1.0; stroke-dasharray: 5.0,5.0;" x1="1021.5" x2="1021.5" y1="136.7266" y2="1113.5781"/><line style="stroke: #A80036; stroke-width: 1.0; stroke-dasharray: 5.0,5.0;" x1="1089.5" x2="1089.5" y1="136.7266" y2="1113.5781"/><text fill="#000000" font-family="sans-serif" font-size="14" lengthAdjust="spacingAndGlyphs" textLength="81" x="8" y="133.4248">participant1</text><ellipse cx="51.5" cy="63.4297" fill="#FEFECE" filter="url(#fg8b2y7)" rx="8" ry="8" style="stroke: #A80036; stroke-width: 2.0;"/><path d="M51.5,71.4297 L51.5,98.4297 M38.5,79.4297 L64.5,79.4297 M51.5,98.4297 L38.5,113.4297 M51.5,98.4297 L64.5,113.4297 " fill="#FEFECE" filter="url(#fg8b2y7)" style="stroke: #A80036; stroke-width: 2.0;"/><text fill="#000000" font-family="sans-serif" font-size="14" lengthAdjust="spacingAndGlyphs" textLength="81" x="8" y="1125.5732">participant1</text><ellipse cx="51.5" cy="1138.875" fill="#FEFECE" filter="url(#fg8b2y7)" rx="8" ry="8" style="stroke: #A80036; stroke-width: 2.0;"/><path d="M51.5,1146.875 L51.5,1173.875 M38.5,1154.875 L64.5,1154.875 M51.5,1173.875 L38.5,1188.875 M51.5,1173.875 L64.5,1188.875 " fill="#FEFECE" filter="url(#fg8b2y7)" style="stroke: #A80036; stroke-width: 2.0;"/><text fill="#000000" font-family="sans-serif" font-size="14" lengthAdjust="spacingAndGlyphs" textLength="81" x="105" y="133.4248">participant2</text><ellipse cx="148.5" cy="63.4297" fill="#FEFECE" filter="url(#fg8b2y7)" rx="8" ry="8" style="stroke: #A80036; stroke-width: 2.0;"/><path d="M148.5,71.4297 L148.5,98.4297 M135.5,79.4297 L161.5,79.4297 M148.5,98.4297 L135.5,113.4297 M148.5,98.4297 L161.5,113.4297 " fill="#FEFECE" filter="url(#fg8b2y7)" style="stroke: #A80036; stroke-width: 2.0;"/><text fill="#000000" font-family="sans-serif" font-size="14" lengthAdjust="spacingAndGlyphs" textLength="81" x="105" y="1125.5732">participant2</text><ellipse cx="148.5" cy="1138.875" fill="#FEFECE" filter="url(#fg8b2y7)" rx="8" ry="8" style="stroke: #A80036; stroke-width: 2.0;"/><path d="M148.5,1146.875 L148.5,1173.875 M135.5,1154.875 L161.5,1154.875 M148.5,1173.875 L135.5,1188.875 M148.5,1173.875 L161.5,1188.875 " fill="#FEFECE" filter="url(#fg8b2y7)" style="stroke: #A80036; stroke-width: 2.0;"/><text fill="#000000" font-family="sans-serif" font-size="14" lengthAdjust="spacingAndGlyphs" textLength="81" x="202" y="133.4248">participant3</text><ellipse cx="245.5" cy="63.4297" fill="#FEFECE" filter="url(#fg8b2y7)" rx="8" ry="8" style="stroke: #A80036; stroke-width: 2.0;"/><path d="M245.5,71.4297 L245.5,98.4297 M232.5,79.4297 L258.5,79.4297 M245.5,98.4297 L232.5,113.4297 M245.5,98.4297 L258.5,113.4297 " fill="#FEFECE" filter="url(#fg8b2y7)" style="stroke: #A80036; stroke-width: 2.0;"/><text fill="#000000" font-family="sans-serif" font-size="14" lengthAdjust="spacingAndGlyphs" textLength="81" x="202" y="1125.5732">participant3</text><ellipse cx="245.5" cy="1138.875" fill="#FEFECE" filter="url(#fg8b2y7)" rx="8" ry="8" style="stroke: #A80036; stroke-width: 2.0;"/><path d="M245.5,1146.875 L245.5,1173.875 M232.5,1154.875 L258.5,1154.875 M245.5,1173.875 L232.5,1188.875 M245.5,1173.875 L258.5,1188.875 " fill="#FEFECE" filter="url(#fg8b2y7)" style="stroke: #A80036; stroke-width: 2.0;"/><rect fill="#FEFECE" filter="url(#fg8b2y7)" height="30.2969" style="stroke: #A80036; stroke-width: 1.5;" width="100" x="299" y="101.4297"/><text fill="#000000" font-family="sans-serif" font-size="14" lengthAdjust="spacingAndGlyphs" textLength="86" x="306" y="121.4248">RestComm1</text><rect fill="#FEFECE" filter="url(#fg8b2y7)" height="30.2969" style="stroke: #A80036; stroke-width: 1.5;" width="100" x="299" y="1112.5781"/><text fill="#000000" font-family="sans-serif" font-size="14" lengthAdjust="spacingAndGlyphs" textLength="86" x="306" y="1132.5732">RestComm1</text><rect fill="#FEFECE" filter="url(#fg8b2y7)" height="30.2969" style="stroke: #A80036; stroke-width: 1.5;" width="100" x="413" y="101.4297"/><text fill="#000000" font-family="sans-serif" font-size="14" lengthAdjust="spacingAndGlyphs" textLength="86" x="420" y="121.4248">RestComm2</text><rect fill="#FEFECE" filter="url(#fg8b2y7)" height="30.2969" style="stroke: #A80036; stroke-width: 1.5;" width="100" x="413" y="1112.5781"/><text fill="#000000" font-family="sans-serif" font-size="14" lengthAdjust="spacingAndGlyphs" textLength="86" x="420" y="1132.5732">RestComm2</text><rect fill="#FEFECE" filter="url(#fg8b2y7)" height="30.2969" style="stroke: #A80036; stroke-width: 1.5;" width="100" x="527" y="101.4297"/><text fill="#000000" font-family="sans-serif" font-size="14" lengthAdjust="spacingAndGlyphs" textLength="86" x="534" y="121.4248">RestComm3</text><rect fill="#FEFECE" filter="url(#fg8b2y7)" height="30.2969" style="stroke: #A80036; stroke-width: 1.5;" width="100" x="527" y="1112.5781"/><text fill="#000000" font-family="sans-serif" font-size="14" lengthAdjust="spacingAndGlyphs" textLength="86" x="534" y="1132.5732">RestComm3</text><rect fill="#FEFECE" filter="url(#fg8b2y7)" height="30.2969" style="stroke: #A80036; stroke-width: 1.5;" width="45" x="855.5" y="101.4297"/><text fill="#000000" font-family="sans-serif" font-size="14" lengthAdjust="spacingAndGlyphs" textLength="31" x="862.5" y="121.4248">DAO</text><rect fill="#FEFECE" filter="url(#fg8b2y7)" height="30.2969" style="stroke: #A80036; stroke-width: 1.5;" width="45" x="855.5" y="1112.5781"/><text fill="#000000" font-family="sans-serif" font-size="14" lengthAdjust="spacingAndGlyphs" textLength="31" x="862.5" y="1132.5732">DAO</text><rect fill="#FEFECE" filter="url(#fg8b2y7)" height="30.2969" style="stroke: #A80036; stroke-width: 1.5;" width="54" x="924.5" y="101.4297"/><text fill="#000000" font-family="sans-serif" font-size="14" lengthAdjust="spacingAndGlyphs" textLength="40" x="931.5" y="121.4248">RMS1</text><rect fill="#FEFECE" filter="url(#fg8b2y7)" height="30.2969" style="stroke: #A80036; stroke-width: 1.5;" width="54" x="924.5" y="1112.5781"/><text fill="#000000" font-family="sans-serif" font-size="14" lengthAdjust="spacingAndGlyphs" textLength="40" x="931.5" y="1132.5732">RMS1</text><rect fill="#FEFECE" filter="url(#fg8b2y7)" height="30.2969" style="stroke: #A80036; stroke-width: 1.5;" width="54" x="992.5" y="101.4297"/><text fill="#000000" font-family="sans-serif" font-size="14" lengthAdjust="spacingAndGlyphs" textLength="40" x="999.5" y="121.4248">RMS2</text><rect fill="#FEFECE" filter="url(#fg8b2y7)" height="30.2969" style="stroke: #A80036; stroke-width: 1.5;" width="54" x="992.5" y="1112.5781"/><text fill="#000000" font-family="sans-serif" font-size="14" lengthAdjust="spacingAndGlyphs" textLength="40" x="999.5" y="1132.5732">RMS2</text><rect fill="#FEFECE" filter="url(#fg8b2y7)" height="30.2969" style="stroke: #A80036; stroke-width: 1.5;" width="54" x="1060.5" y="101.4297"/><text fill="#000000" font-family="sans-serif" font-size="14" lengthAdjust="spacingAndGlyphs" textLength="40" x="1067.5" y="121.4248">RMS3</text><rect fill="#FEFECE" filter="url(#fg8b2y7)" height="30.2969" style="stroke: #A80036; stroke-width: 1.5;" width="54" x="1060.5" y="1112.5781"/><text fill="#000000" font-family="sans-serif" font-size="14" lengthAdjust="spacingAndGlyphs" textLength="40" x="1067.5" y="1132.5732">RMS3</text><polygon fill="#A80036" points="339,163.7266,349,167.7266,339,171.7266,343,167.7266" style="stroke: #A80036; stroke-width: 1.0;"/><line style="stroke: #A80036; stroke-width: 1.0;" x1="51.5" x2="345" y1="167.7266" y2="167.7266"/><text fill="#000000" font-family="sans-serif" font-size="13" lengthAdjust="spacingAndGlyphs" textLength="104" x="58.5" y="162.7935">dials conference</text><polygon fill="#A80036" points="362,192.8594,352,196.8594,362,200.8594,358,196.8594" style="stroke: #A80036; stroke-width: 1.0;"/><polygon fill="#A80036" points="868,192.8594,878,196.8594,868,200.8594,872,196.8594" style="stroke: #A80036; stroke-width: 1.0;"/><line style="stroke: #A80036; stroke-width: 1.0;" x1="356" x2="874" y1="196.8594" y2="196.8594"/><text fill="#000000" font-family="sans-serif" font-size="13" lengthAdjust="spacingAndGlyphs" textLength="267" x="368" y="191.9263">check if this conference is already running</text><polygon fill="#A80036" points="868,221.9922,878,225.9922,868,229.9922,872,225.9922" style="stroke: #A80036; stroke-width: 1.0;"/><line style="stroke: #A80036; stroke-width: 1.0;" x1="351" x2="874" y1="225.9922" y2="225.9922"/><text fill="#000000" font-family="sans-serif" font-size="13" lengthAdjust="spacingAndGlyphs" textLength="307" x="358" y="221.0591">Generate and insert SID (to itselfdeclair master)</text><polygon fill="#A80036" points="941.5,251.125,951.5,255.125,941.5,259.125,945.5,255.125" style="stroke: #A80036; stroke-width: 1.0;"/><line style="stroke: #A80036; stroke-width: 1.0;" x1="351" x2="947.5" y1="255.125" y2="255.125"/><text fill="#000000" font-family="sans-serif" font-size="13" lengthAdjust="spacingAndGlyphs" textLength="238" x="358" y="250.1919">Connect to local conference endpoint</text><polygon fill="#A80036" points="868,280.2578,878,284.2578,868,288.2578,872,284.2578" style="stroke: #A80036; stroke-width: 1.0;"/><line style="stroke: #A80036; stroke-width: 1.0;" x1="351" x2="874" y1="284.2578" y2="284.2578"/><text fill="#000000" font-family="sans-serif" font-size="13" lengthAdjust="spacingAndGlyphs" textLength="345" x="358" y="279.3247">update master conference endpoint related info in db.</text><polygon fill="#A80036" points="941.5,309.3906,951.5,313.3906,941.5,317.3906,945.5,313.3906" style="stroke: #A80036; stroke-width: 1.0;"/><line style="stroke: #A80036; stroke-width: 1.0;" x1="351" x2="947.5" y1="313.3906" y2="313.3906"/><text fill="#000000" font-family="sans-serif" font-size="13" lengthAdjust="spacingAndGlyphs" textLength="157" x="358" y="308.4575">put participant1 on Mute</text><polygon fill="#A80036" points="941.5,338.5234,951.5,342.5234,941.5,346.5234,945.5,342.5234" style="stroke: #A80036; stroke-width: 1.0;"/><line style="stroke: #A80036; stroke-width: 1.0;" x1="351" x2="947.5" y1="342.5234" y2="342.5234"/><text fill="#000000" font-family="sans-serif" font-size="13" lengthAdjust="spacingAndGlyphs" textLength="119" x="358" y="337.5903">Play Music on Hold</text><polygon fill="#A80036" points="62.5,367.6563,52.5,371.6563,62.5,375.6563,58.5,371.6563" style="stroke: #A80036; stroke-width: 1.0;"/><line style="stroke: #A80036; stroke-width: 1.0;" x1="56.5" x2="952.5" y1="371.6563" y2="371.6563"/><text fill="#000000" font-family="sans-serif" font-size="13" lengthAdjust="spacingAndGlyphs" textLength="89" x="68.5" y="366.7231">Music on Hold</text><rect fill="#EEEEEE" filter="url(#fg8b2y7)" height="3" style="stroke: #EEEEEE; stroke-width: 1.0;" width="1120.5" x="3" y="392.7891"/><line style="stroke: #000000; stroke-width: 1.0;" x1="3" x2="1123.5" y1="392.7891" y2="392.7891"/><line style="stroke: #000000; stroke-width: 1.0;" x1="3" x2="1123.5" y1="395.7891" y2="395.7891"/><polygon fill="#A80036" points="453,424.7891,463,428.7891,453,432.7891,457,428.7891" style="stroke: #A80036; stroke-width: 1.0;"/><line style="stroke: #A80036; stroke-width: 1.0;" x1="148.5" x2="459" y1="428.7891" y2="428.7891"/><text fill="#000000" font-family="sans-serif" font-size="13" lengthAdjust="spacingAndGlyphs" textLength="104" x="155.5" y="423.856">dials conference</text><polygon fill="#A80036" points="476,453.9219,466,457.9219,476,461.9219,472,457.9219" style="stroke: #A80036; stroke-width: 1.0;"/><polygon fill="#A80036" points="868,453.9219,878,457.9219,868,461.9219,872,457.9219" style="stroke: #A80036; stroke-width: 1.0;"/><line style="stroke: #A80036; stroke-width: 1.0;" x1="470" x2="874" y1="457.9219" y2="457.9219"/><text fill="#000000" font-family="sans-serif" font-size="13" lengthAdjust="spacingAndGlyphs" textLength="267" x="482" y="452.9888">check if this conference is already running</text><polygon fill="#A80036" points="1009.5,483.0547,1019.5,487.0547,1009.5,491.0547,1013.5,487.0547" style="stroke: #A80036; stroke-width: 1.0;"/><line style="stroke: #A80036; stroke-width: 1.0;" x1="465" x2="1015.5" y1="487.0547" y2="487.0547"/><text fill="#000000" font-family="sans-serif" font-size="13" lengthAdjust="spacingAndGlyphs" textLength="238" x="472" y="482.1216">Connect to local conference endpoint</text><polygon fill="#A80036" points="941.5,512.1875,951.5,516.1875,941.5,520.1875,945.5,516.1875" style="stroke: #A80036; stroke-width: 1.0;"/><line style="stroke: #A80036; stroke-width: 1.0;" x1="465" x2="947.5" y1="516.1875" y2="516.1875"/><text fill="#000000" font-family="sans-serif" font-size="13" lengthAdjust="spacingAndGlyphs" textLength="255" x="472" y="511.2544">Connect to master conference endpoint</text><polygon fill="#A80036" points="941.5,541.3203,951.5,545.3203,941.5,549.3203,945.5,545.3203" style="stroke: #A80036; stroke-width: 1.0;"/><line style="stroke: #A80036; stroke-width: 1.0;" x1="465" x2="947.5" y1="545.3203" y2="545.3203"/><text fill="#000000" font-family="sans-serif" font-size="13" lengthAdjust="spacingAndGlyphs" textLength="123" x="472" y="540.3872">Stop Music on Hold</text><polygon fill="#A80036" points="941.5,570.4531,951.5,574.4531,941.5,578.4531,945.5,574.4531" style="stroke: #A80036; stroke-width: 1.0;"/><line style="stroke: #A80036; stroke-width: 1.0;" x1="465" x2="947.5" y1="574.4531" y2="574.4531"/><text fill="#000000" font-family="sans-serif" font-size="13" lengthAdjust="spacingAndGlyphs" textLength="224" x="472" y="569.52">Connect to master bridge endpoint</text><polygon fill="#A80036" points="941.5,599.5859,951.5,603.5859,941.5,607.5859,945.5,603.5859" style="stroke: #A80036; stroke-width: 1.0;"/><line style="stroke: #A80036; stroke-width: 1.0;" x1="465" x2="947.5" y1="603.5859" y2="603.5859"/><text fill="#000000" font-family="sans-serif" font-size="13" lengthAdjust="spacingAndGlyphs" textLength="128" x="472" y="598.6528">unMute participant1</text><polygon fill="#A80036" points="868,643.7188,878,647.7188,868,651.7188,872,647.7188" style="stroke: #A80036; stroke-width: 1.0;"/><line style="stroke: #A80036; stroke-width: 1.0;" x1="465" x2="874" y1="647.7188" y2="647.7188"/><text fill="#000000" font-family="sans-serif" font-size="13" lengthAdjust="spacingAndGlyphs" textLength="133" x="472" y="627.7856">insert slave record in</text><text fill="#000000" font-family="sans-serif" font-size="13" lengthAdjust="spacingAndGlyphs" textLength="194" x="472" y="642.9185">media_resource_broker_entity</text><rect fill="#EEEEEE" filter="url(#fg8b2y7)" height="3" style="stroke: #EEEEEE; stroke-width: 1.0;" width="1120.5" x="3" y="668.9844"/><line style="stroke: #000000; stroke-width: 1.0;" x1="3" x2="1123.5" y1="668.9844" y2="668.9844"/><line style="stroke: #000000; stroke-width: 1.0;" x1="3" x2="1123.5" y1="671.9844" y2="671.9844"/><polygon fill="#A80036" points="964.5,700.9844,954.5,704.9844,964.5,708.9844,960.5,704.9844" style="stroke: #A80036; stroke-width: 1.0;"/><polygon fill="#A80036" points="1009.5,700.9844,1019.5,704.9844,1009.5,708.9844,1013.5,704.9844" style="stroke: #A80036; stroke-width: 1.0;"/><line style="stroke: #A80036; stroke-width: 1.0;" x1="958.5" x2="1015.5" y1="704.9844" y2="704.9844"/><text fill="#000000" font-family="sans-serif" font-size="13" lengthAdjust="spacingAndGlyphs" textLength="23" x="970.5" y="700.0513">RTP</text><polygon fill="#A80036" points="62.5,730.1172,52.5,734.1172,62.5,738.1172,58.5,734.1172" style="stroke: #A80036; stroke-width: 1.0;"/><polygon fill="#A80036" points="136.5,730.1172,146.5,734.1172,136.5,738.1172,140.5,734.1172" style="stroke: #A80036; stroke-width: 1.0;"/><line style="stroke: #A80036; stroke-width: 1.0;" x1="56.5" x2="142.5" y1="734.1172" y2="734.1172"/><text fill="#000000" font-family="sans-serif" font-size="13" lengthAdjust="spacingAndGlyphs" textLength="42" x="68.5" y="729.1841">talking</text><rect fill="#EEEEEE" filter="url(#fg8b2y7)" height="3" style="stroke: #EEEEEE; stroke-width: 1.0;" width="1120.5" x="3" y="755.25"/><line style="stroke: #000000; stroke-width: 1.0;" x1="3" x2="1123.5" y1="755.25" y2="755.25"/><line style="stroke: #000000; stroke-width: 1.0;" x1="3" x2="1123.5" y1="758.25" y2="758.25"/><polygon fill="#A80036" points="567,787.25,577,791.25,567,795.25,571,791.25" style="stroke: #A80036; stroke-width: 1.0;"/><line style="stroke: #A80036; stroke-width: 1.0;" x1="245.5" x2="573" y1="791.25" y2="791.25"/><text fill="#000000" font-family="sans-serif" font-size="13" lengthAdjust="spacingAndGlyphs" textLength="104" x="252.5" y="786.3169">dials conference</text><polygon fill="#A80036" points="590,816.3828,580,820.3828,590,824.3828,586,820.3828" style="stroke: #A80036; stroke-width: 1.0;"/><polygon fill="#A80036" points="868,816.3828,878,820.3828,868,824.3828,872,820.3828" style="stroke: #A80036; stroke-width: 1.0;"/><line style="stroke: #A80036; stroke-width: 1.0;" x1="584" x2="874" y1="820.3828" y2="820.3828"/><text fill="#000000" font-family="sans-serif" font-size="13" lengthAdjust="spacingAndGlyphs" textLength="267" x="596" y="815.4497">check if this conference is already running</text><polygon fill="#A80036" points="1077.5,845.5156,1087.5,849.5156,1077.5,853.5156,1081.5,849.5156" style="stroke: #A80036; stroke-width: 1.0;"/><line style="stroke: #A80036; stroke-width: 1.0;" x1="579" x2="1083.5" y1="849.5156" y2="849.5156"/><text fill="#000000" font-family="sans-serif" font-size="13" lengthAdjust="spacingAndGlyphs" textLength="238" x="586" y="844.5825">Connect to local conference endpoint</text><polygon fill="#A80036" points="941.5,874.6484,951.5,878.6484,941.5,882.6484,945.5,878.6484" style="stroke: #A80036; stroke-width: 1.0;"/><line style="stroke: #A80036; stroke-width: 1.0;" x1="579" x2="947.5" y1="878.6484" y2="878.6484"/><text fill="#000000" font-family="sans-serif" font-size="13" lengthAdjust="spacingAndGlyphs" textLength="255" x="586" y="873.7153">Connect to master conference endpoint</text><polygon fill="#A80036" points="868,918.7813,878,922.7813,868,926.7813,872,922.7813" style="stroke: #A80036; stroke-width: 1.0;"/><line style="stroke: #A80036; stroke-width: 1.0;" x1="579" x2="874" y1="922.7813" y2="922.7813"/><text fill="#000000" font-family="sans-serif" font-size="13" lengthAdjust="spacingAndGlyphs" textLength="133" x="586" y="902.8481">insert slave record in</text><text fill="#000000" font-family="sans-serif" font-size="13" lengthAdjust="spacingAndGlyphs" textLength="194" x="586" y="917.981">media_resource_broker_entity</text><rect fill="#EEEEEE" filter="url(#fg8b2y7)" height="3" style="stroke: #EEEEEE; stroke-width: 1.0;" width="1120.5" x="3" y="944.0469"/><line style="stroke: #000000; stroke-width: 1.0;" x1="3" x2="1123.5" y1="944.0469" y2="944.0469"/><line style="stroke: #000000; stroke-width: 1.0;" x1="3" x2="1123.5" y1="947.0469" y2="947.0469"/><polygon fill="#A80036" points="964.5,976.0469,954.5,980.0469,964.5,984.0469,960.5,980.0469" style="stroke: #A80036; stroke-width: 1.0;"/><polygon fill="#A80036" points="1077.5,976.0469,1087.5,980.0469,1077.5,984.0469,1081.5,980.0469" style="stroke: #A80036; stroke-width: 1.0;"/><line style="stroke: #A80036; stroke-width: 1.0;" x1="958.5" x2="1083.5" y1="980.0469" y2="980.0469"/><text fill="#000000" font-family="sans-serif" font-size="13" lengthAdjust="spacingAndGlyphs" textLength="23" x="970.5" y="975.1138">RTP</text><polygon fill="#A80036" points="62.5,1005.1797,52.5,1009.1797,62.5,1013.1797,58.5,1009.1797" style="stroke: #A80036; stroke-width: 1.0;"/><polygon fill="#A80036" points="136.5,1005.1797,146.5,1009.1797,136.5,1013.1797,140.5,1009.1797" style="stroke: #A80036; stroke-width: 1.0;"/><line style="stroke: #A80036; stroke-width: 1.0;" x1="56.5" x2="142.5" y1="1009.1797" y2="1009.1797"/><text fill="#000000" font-family="sans-serif" font-size="13" lengthAdjust="spacingAndGlyphs" textLength="42" x="68.5" y="1004.2466">talking</text><polygon fill="#A80036" points="159.5,1034.3125,149.5,1038.3125,159.5,1042.3125,155.5,1038.3125" style="stroke: #A80036; stroke-width: 1.0;"/><polygon fill="#A80036" points="233.5,1034.3125,243.5,1038.3125,233.5,1042.3125,237.5,1038.3125" style="stroke: #A80036; stroke-width: 1.0;"/><line style="stroke: #A80036; stroke-width: 1.0;" x1="153.5" x2="239.5" y1="1038.3125" y2="1038.3125"/><text fill="#000000" font-family="sans-serif" font-size="13" lengthAdjust="spacingAndGlyphs" textLength="42" x="165.5" y="1033.3794">talking</text><polygon fill="#A80036" points="62.5,1063.4453,52.5,1067.4453,62.5,1071.4453,58.5,1067.4453" style="stroke: #A80036; stroke-width: 1.0;"/><polygon fill="#A80036" points="233.5,1063.4453,243.5,1067.4453,233.5,1071.4453,237.5,1067.4453" style="stroke: #A80036; stroke-width: 1.0;"/><line style="stroke: #A80036; stroke-width: 1.0;" x1="56.5" x2="239.5" y1="1067.4453" y2="1067.4453"/><text fill="#000000" font-family="sans-serif" font-size="13" lengthAdjust="spacingAndGlyphs" textLength="42" x="68.5" y="1062.5122">talking</text><rect fill="#EEEEEE" filter="url(#fg8b2y7)" height="3" style="stroke: #EEEEEE; stroke-width: 1.0;" width="1120.5" x="3" y="1088.5781"/><line style="stroke: #000000; stroke-width: 1.0;" x1="3" x2="1123.5" y1="1088.5781" y2="1088.5781"/><line style="stroke: #000000; stroke-width: 1.0;" x1="3" x2="1123.5" y1="1091.5781" y2="1091.5781"/></g></svg>