<?xml version="1.0" encoding="UTF-8" standalone="no"?><svg xmlns="http://www.w3.org/2000/svg" xmlns:xlink="http://www.w3.org/1999/xlink" contentScriptType="application/ecmascript" contentStyleType="text/css" height="1480px" preserveAspectRatio="none" style="width:499px;height:1480px;" version="1.1" viewBox="0 0 499 1480" width="499px" zoomAndPan="magnify"><defs><filter height="300%" id="firheia" width="300%" x="-1" y="-1"><feGaussianBlur result="blurOut" stdDeviation="2.0"/><feColorMatrix in="blurOut" result="blurOut2" type="matrix" values="0 0 0 0 0 0 0 0 0 0 0 0 0 0 0 0 0 0 .4 0"/><feOffset dx="4.0" dy="4.0" in="blurOut2" result="blurOut3"/><feBlend in="SourceGraphic" in2="blurOut3" mode="normal"/></filter></defs><g><text fill="#000000" font-family="sans-serif" font-size="18" lengthAdjust="spacingAndGlyphs" textLength="370" x="69" y="16.708">ConferenceMediaResourceController FSM</text><text fill="#000000" font-family="sans-serif" font-size="18" lengthAdjust="spacingAndGlyphs" textLength="199" x="154.5" y="37.6611">for Master Conference</text><ellipse cx="287.5" cy="59.9063" fill="#000000" filter="url(#firheia)" rx="10" ry="10" style="stroke: none; stroke-width: 1.0;"/><rect fill="#FEFECE" filter="url(#firheia)" height="50" rx="12.5" ry="12.5" style="stroke: #A80036; stroke-width: 1.5;" width="101" x="237" y="129.9063"/><line style="stroke: #A80036; stroke-width: 1.5;" x1="237" x2="338" y1="156.2031" y2="156.2031"/><text fill="#000000" font-family="sans-serif" font-size="14" lengthAdjust="spacingAndGlyphs" textLength="81" x="247" y="147.9014">uninitialized</text><rect fill="#FEFECE" filter="url(#firheia)" height="64.2344" rx="12.5" ry="12.5" style="stroke: #A80036; stroke-width: 1.5;" width="189" x="193" y="239.9063"/><line style="stroke: #A80036; stroke-width: 1.5;" x1="193" x2="382" y1="266.2031" y2="266.2031"/><text fill="#000000" font-family="sans-serif" font-size="14" lengthAdjust="spacingAndGlyphs" textLength="169" x="203" y="257.9014">acquiringConferenceInfo</text><text fill="#000000" font-family="sans-serif" font-size="12" lengthAdjust="spacingAndGlyphs" textLength="141" x="198" y="282.3418">get conference record</text><text fill="#000000" font-family="sans-serif" font-size="12" lengthAdjust="spacingAndGlyphs" textLength="93" x="198" y="296.3105">from DataBase</text><rect fill="#FEFECE" filter="url(#firheia)" height="148.0469" rx="12.5" ry="12.5" style="stroke: #A80036; stroke-width: 1.5;" width="253" x="161" y="363.9063"/><line style="stroke: #A80036; stroke-width: 1.5;" x1="161" x2="414" y1="390.2031" y2="390.2031"/><text fill="#000000" font-family="sans-serif" font-size="14" lengthAdjust="spacingAndGlyphs" textLength="140" x="217.5" y="381.9014">creatingMediaGroup</text><text fill="#000000" font-family="sans-serif" font-size="12" lengthAdjust="spacingAndGlyphs" textLength="177" x="166" y="406.3418">1. create mediagroup actor.</text><text fill="#000000" font-family="sans-serif" font-size="12" lengthAdjust="spacingAndGlyphs" textLength="157" x="166" y="420.3105">2. create IVR endpoint at</text><text fill="#000000" font-family="sans-serif" font-size="12" lengthAdjust="spacingAndGlyphs" textLength="129" x="166" y="434.2793">master mediaserver.</text><text fill="#000000" font-family="sans-serif" font-size="12" lengthAdjust="spacingAndGlyphs" textLength="200" x="166" y="448.248">3. This step also involves linking</text><text fill="#000000" font-family="sans-serif" font-size="12" lengthAdjust="spacingAndGlyphs" textLength="178" x="166" y="462.2168">ivr endpoint with conference</text><text fill="#000000" font-family="sans-serif" font-size="12" lengthAdjust="spacingAndGlyphs" textLength="60" x="166" y="476.1855">endpoint.</text><text fill="#000000" font-family="sans-serif" font-size="12" lengthAdjust="spacingAndGlyphs" textLength="233" x="166" y="490.1543">Details fsm of this step are explained</text><text fill="#000000" font-family="sans-serif" font-size="12" lengthAdjust="spacingAndGlyphs" textLength="213" x="166" y="504.123">in MRBMasterMediaGroup section.</text><rect fill="#FEFECE" filter="url(#firheia)" height="92.1719" rx="12.5" ry="12.5" style="stroke: #A80036; stroke-width: 1.5;" width="205" x="107" y="571.9063"/><line style="stroke: #A80036; stroke-width: 1.5;" x1="107" x2="312" y1="598.2031" y2="598.2031"/><text fill="#000000" font-family="sans-serif" font-size="14" lengthAdjust="spacingAndGlyphs" textLength="161" x="129" y="589.9014">acquiringIVREndpointID</text><text fill="#000000" font-family="sans-serif" font-size="12" lengthAdjust="spacingAndGlyphs" textLength="166" x="112" y="614.3418">get ivr endpoint id number</text><text fill="#000000" font-family="sans-serif" font-size="12" lengthAdjust="spacingAndGlyphs" textLength="185" x="112" y="628.3105">and save in database so that</text><text fill="#000000" font-family="sans-serif" font-size="12" lengthAdjust="spacingAndGlyphs" textLength="131" x="112" y="642.2793">slave nodes may use</text><text fill="#000000" font-family="sans-serif" font-size="12" lengthAdjust="spacingAndGlyphs" textLength="174" x="112" y="656.248">this information to connect.</text><rect fill="#FEFECE" filter="url(#firheia)" height="92.1719" rx="12.5" ry="12.5" style="stroke: #A80036; stroke-width: 1.5;" width="243" x="48" y="723.9063"/><line style="stroke: #A80036; stroke-width: 1.5;" x1="48" x2="291" y1="750.2031" y2="750.2031"/><text fill="#000000" font-family="sans-serif" font-size="14" lengthAdjust="spacingAndGlyphs" textLength="220" x="59.5" y="741.9014">acquiringConferenceEndpointID</text><text fill="#000000" font-family="sans-serif" font-size="12" lengthAdjust="spacingAndGlyphs" textLength="223" x="53" y="766.3418">get conference endpoint id number</text><text fill="#000000" font-family="sans-serif" font-size="12" lengthAdjust="spacingAndGlyphs" textLength="185" x="53" y="780.3105">and save in database so that</text><text fill="#000000" font-family="sans-serif" font-size="12" lengthAdjust="spacingAndGlyphs" textLength="131" x="53" y="794.2793">slave nodes may use</text><text fill="#000000" font-family="sans-serif" font-size="12" lengthAdjust="spacingAndGlyphs" textLength="174" x="53" y="808.248">this information to connect.</text><rect fill="#FEFECE" filter="url(#firheia)" height="50" rx="12.5" ry="12.5" style="stroke: #A80036; stroke-width: 1.5;" width="84" x="120.5" y="875.9063"/><line style="stroke: #A80036; stroke-width: 1.5;" x1="120.5" x2="204.5" y1="902.2031" y2="902.2031"/><text fill="#000000" font-family="sans-serif" font-size="14" lengthAdjust="spacingAndGlyphs" textLength="64" x="130.5" y="893.9014">preActive</text><rect fill="#FEFECE" filter="url(#firheia)" height="50.2656" rx="12.5" ry="12.5" style="stroke: #A80036; stroke-width: 1.5;" width="164" x="66.5" y="985.9063"/><line style="stroke: #A80036; stroke-width: 1.5;" x1="66.5" x2="230.5" y1="1012.2031" y2="1012.2031"/><text fill="#000000" font-family="sans-serif" font-size="14" lengthAdjust="spacingAndGlyphs" textLength="40" x="128.5" y="1003.9014">active</text><text fill="#000000" font-family="sans-serif" font-size="12" lengthAdjust="spacingAndGlyphs" textLength="144" x="71.5" y="1028.3418">broadcast being active</text><rect fill="#FEFECE" filter="url(#firheia)" height="78.2031" rx="12.5" ry="12.5" style="stroke: #A80036; stroke-width: 1.5;" width="281" x="6" y="1095.9063"/><line style="stroke: #A80036; stroke-width: 1.5;" x1="6" x2="287" y1="1122.2031" y2="1122.2031"/><text fill="#000000" font-family="sans-serif" font-size="14" lengthAdjust="spacingAndGlyphs" textLength="231" x="31" y="1113.9014">acquiringMasterBridgeEndpointID</text><text fill="#000000" font-family="sans-serif" font-size="12" lengthAdjust="spacingAndGlyphs" textLength="261" x="11" y="1138.3418">this state is to acquire Master participant</text><text fill="#000000" font-family="sans-serif" font-size="12" lengthAdjust="spacingAndGlyphs" textLength="215" x="11" y="1152.3105">bridge ep and save in db, so slave</text><text fill="#000000" font-family="sans-serif" font-size="12" lengthAdjust="spacingAndGlyphs" textLength="150" x="11" y="1166.2793">can unmute it if needed</text><rect fill="#FEFECE" filter="url(#firheia)" height="50.2656" rx="12.5" ry="12.5" style="stroke: #A80036; stroke-width: 1.5;" width="121" x="210" y="1233.9063"/><line style="stroke: #A80036; stroke-width: 1.5;" x1="210" x2="331" y1="1260.2031" y2="1260.2031"/><text fill="#000000" font-family="sans-serif" font-size="14" lengthAdjust="spacingAndGlyphs" textLength="61" x="240" y="1251.9014">stopping</text><text fill="#000000" font-family="sans-serif" font-size="12" lengthAdjust="spacingAndGlyphs" textLength="101" x="215" y="1276.3418">clean resources</text><rect fill="#FEFECE" filter="url(#firheia)" height="50.2656" rx="12.5" ry="12.5" style="stroke: #A80036; stroke-width: 1.5;" width="175" x="183" y="1343.9063"/><line style="stroke: #A80036; stroke-width: 1.5;" x1="183" x2="358" y1="1370.2031" y2="1370.2031"/><text fill="#000000" font-family="sans-serif" font-size="14" lengthAdjust="spacingAndGlyphs" textLength="52" x="244.5" y="1361.9014">inactive</text><text fill="#000000" font-family="sans-serif" font-size="12" lengthAdjust="spacingAndGlyphs" textLength="155" x="188" y="1386.3418">broadcast being inactive</text><rect fill="#FEFECE" filter="url(#firheia)" height="50.2656" rx="12.5" ry="12.5" style="stroke: #A80036; stroke-width: 1.5;" width="161" x="329" y="744.9063"/><line style="stroke: #A80036; stroke-width: 1.5;" x1="329" x2="490" y1="771.2031" y2="771.2031"/><text fill="#000000" font-family="sans-serif" font-size="14" lengthAdjust="spacingAndGlyphs" textLength="36" x="391.5" y="762.9014">failed</text><text fill="#000000" font-family="sans-serif" font-size="12" lengthAdjust="spacingAndGlyphs" textLength="141" x="334" y="787.3418">broadcast being failed</text><ellipse cx="340.5" cy="1463.9063" fill="none" filter="url(#firheia)" rx="10" ry="10" style="stroke: #000000; stroke-width: 1.0;"/><ellipse cx="341" cy="1464.4063" fill="#000000" rx="6" ry="6" style="stroke: none; stroke-width: 1.0;"/><path d="M287.5,70.1662 C287.5,82.7662 287.5,105.8863 287.5,124.6463 " fill="none" style="stroke: #A80036; stroke-width: 1.0;"/><polygon fill="#A80036" points="287.5,129.8163,291.5,120.8163,287.5,124.8163,283.5,120.8163,287.5,129.8163" style="stroke: #A80036; stroke-width: 1.0;"/><path d="M287.5,180.0162 C287.5,195.7762 287.5,216.6463 287.5,234.4262 " fill="none" style="stroke: #A80036; stroke-width: 1.0;"/><polygon fill="#A80036" points="287.5,239.8263,291.5,230.8263,287.5,234.8263,283.5,230.8263,287.5,239.8263" style="stroke: #A80036; stroke-width: 1.0;"/><path d="M287.5,304.1363 C287.5,319.5963 287.5,339.0262 287.5,358.2162 " fill="none" style="stroke: #A80036; stroke-width: 1.0;"/><polygon fill="#A80036" points="287.5,363.6163,291.5,354.6163,287.5,358.6163,283.5,354.6163,287.5,363.6163" style="stroke: #A80036; stroke-width: 1.0;"/><path d="M255.44,512.0763 C247.33,530.5663 238.82,550.0063 231.35,567.0463 " fill="none" style="stroke: #A80036; stroke-width: 1.0;"/><polygon fill="#A80036" points="229.27,571.7863,236.5518,565.1548,231.2808,567.2084,229.2272,561.9375,229.27,571.7863" style="stroke: #A80036; stroke-width: 1.0;"/><path d="M197.5,663.9063 C192.89,681.1863 187.61,701.0063 182.88,718.7363 " fill="none" style="stroke: #A80036; stroke-width: 1.0;"/><polygon fill="#A80036" points="181.56,723.6763,187.7411,716.0085,182.8465,718.8446,180.0104,713.9501,181.56,723.6763" style="stroke: #A80036; stroke-width: 1.0;"/><path d="M167.05,816.0263 C166.07,834.0363 164.98,854.2763 164.1,870.3663 " fill="none" style="stroke: #A80036; stroke-width: 1.0;"/><polygon fill="#A80036" points="163.82,875.6563,168.3033,866.887,164.0918,870.6636,160.3152,866.4521,163.82,875.6563" style="stroke: #A80036; stroke-width: 1.0;"/><path d="M137.71,1036.0063 C135.18,1051.4963 134.22,1072.0663 134.94,1090.3563 " fill="none" style="stroke: #A80036; stroke-width: 1.0;"/><polygon fill="#A80036" points="135.19,1095.4463,138.7474,1086.2623,134.9467,1090.4522,130.7569,1086.6515,135.19,1095.4463" style="stroke: #A80036; stroke-width: 1.0;"/><path d="M159.78,1095.4463 C161.45,1077.9563 161.48,1057.5963 159.76,1041.3463 " fill="none" style="stroke: #A80036; stroke-width: 1.0;"/><polygon fill="#A80036" points="159.11,1036.0063,156.2472,1045.4298,159.7249,1040.9683,164.1864,1044.446,159.11,1036.0063" style="stroke: #A80036; stroke-width: 1.0;"/><path d="M159.36,926.1463 C157.27,942.2663 154.51,963.5263 152.3,980.5963 " fill="none" style="stroke: #A80036; stroke-width: 1.0;"/><polygon fill="#A80036" points="151.63,985.7462,156.7542,977.3354,152.273,980.7878,148.8207,976.3066,151.63,985.7462" style="stroke: #A80036; stroke-width: 1.0;"/><path d="M185.39,1174.1763 C203.75,1192.2363 225.26,1213.3963 242.06,1229.9263 " fill="none" style="stroke: #A80036; stroke-width: 1.0;"/><polygon fill="#A80036" points="245.79,1233.5963,242.1988,1224.4255,242.2331,1230.0822,236.5764,1230.1165,245.79,1233.5963" style="stroke: #A80036; stroke-width: 1.0;"/><path d="M229.6,1035.9763 C258.44,1048.8863 287.86,1068.0462 304.5,1095.9063 C329.53,1137.8163 306.37,1195.4363 287.96,1229.4663 " fill="none" style="stroke: #A80036; stroke-width: 1.0;"/><polygon fill="#A80036" points="285.51,1233.9063,293.3544,1227.9509,287.9212,1229.5261,286.3461,1224.0929,285.51,1233.9063" style="stroke: #A80036; stroke-width: 1.0;"/><path d="M270.5,1284.1463 C270.5,1300.2663 270.5,1321.5263 270.5,1338.5963 " fill="none" style="stroke: #A80036; stroke-width: 1.0;"/><polygon fill="#A80036" points="270.5,1343.7463,274.5,1334.7463,270.5,1338.7463,266.5,1334.7463,270.5,1343.7463" style="stroke: #A80036; stroke-width: 1.0;"/><path d="M314.58,512.1463 C341.1,583.8863 380.17,689.5563 398.82,740.0263 " fill="none" style="stroke: #A80036; stroke-width: 1.0;"/><polygon fill="#A80036" points="400.56,744.7363,401.1979,734.9081,398.8295,740.0453,393.6923,737.6769,400.56,744.7363" style="stroke: #A80036; stroke-width: 1.0;"/><path d="M288.89,1394.3363 C302.69,1412.6763 320.98,1436.9763 331.67,1451.1763 " fill="none" style="stroke: #A80036; stroke-width: 1.0;"/><polygon fill="#A80036" points="334.73,1455.2463,332.5081,1445.6513,331.7209,1451.2531,326.1191,1450.4659,334.73,1455.2463" style="stroke: #A80036; stroke-width: 1.0;"/><path d="M409.83,794.9963 C410.4,838.0963 411.5,931.2763 411.5,1009.9063 C411.5,1009.9063 411.5,1009.9063 411.5,1259.9063 C411.5,1336.1063 366.38,1419.8263 348.08,1450.6463 " fill="none" style="stroke: #A80036; stroke-width: 1.0;"/><polygon fill="#A80036" points="345.38,1455.1263,353.4404,1449.4668,347.9525,1450.8388,346.5805,1445.3508,345.38,1455.1263" style="stroke: #A80036; stroke-width: 1.0;"/></g></svg>