<?xml version="1.0" encoding="UTF-8" standalone="no"?><svg xmlns="http://www.w3.org/2000/svg" xmlns:xlink="http://www.w3.org/1999/xlink" contentScriptType="application/ecmascript" contentStyleType="text/css" height="1480px" preserveAspectRatio="none" style="width:494px;height:1480px;" version="1.1" viewBox="0 0 494 1480" width="494px" zoomAndPan="magnify"><defs><filter height="300%" id="fbhgzfd" width="300%" x="-1" y="-1"><feGaussianBlur result="blurOut" stdDeviation="2.0"/><feColorMatrix in="blurOut" result="blurOut2" type="matrix" values="0 0 0 0 0 0 0 0 0 0 0 0 0 0 0 0 0 0 .4 0"/><feOffset dx="4.0" dy="4.0" in="blurOut2" result="blurOut3"/><feBlend in="SourceGraphic" in2="blurOut3" mode="normal"/></filter></defs><g><text fill="#000000" font-family="sans-serif" font-size="18" lengthAdjust="spacingAndGlyphs" textLength="370" x="66.5" y="16.708">ConferenceMediaResourceController FSM</text><text fill="#000000" font-family="sans-serif" font-size="18" lengthAdjust="spacingAndGlyphs" textLength="199" x="152" y="37.6611">for Master Conference</text><ellipse cx="294.5" cy="59.9063" fill="#000000" filter="url(#fbhgzfd)" rx="10" ry="10" style="stroke: none; stroke-width: 1.0;"/><rect fill="#FEFECE" filter="url(#fbhgzfd)" height="50" rx="12.5" ry="12.5" style="stroke: #A80036; stroke-width: 1.5;" width="101" x="244" y="129.9063"/><line style="stroke: #A80036; stroke-width: 1.5;" x1="244" x2="345" y1="156.2031" y2="156.2031"/><text fill="#000000" font-family="sans-serif" font-size="14" lengthAdjust="spacingAndGlyphs" textLength="81" x="254" y="147.9014">uninitialized</text><rect fill="#FEFECE" filter="url(#fbhgzfd)" height="64.2344" rx="12.5" ry="12.5" style="stroke: #A80036; stroke-width: 1.5;" width="189" x="200" y="239.9063"/><line style="stroke: #A80036; stroke-width: 1.5;" x1="200" x2="389" y1="266.2031" y2="266.2031"/><text fill="#000000" font-family="sans-serif" font-size="14" lengthAdjust="spacingAndGlyphs" textLength="169" x="210" y="257.9014">acquiringConferenceInfo</text><text fill="#000000" font-family="sans-serif" font-size="12" lengthAdjust="spacingAndGlyphs" textLength="141" x="205" y="282.3418">get conference record</text><text fill="#000000" font-family="sans-serif" font-size="12" lengthAdjust="spacingAndGlyphs" textLength="93" x="205" y="296.3105">from DataBase</text><rect fill="#FEFECE" filter="url(#fbhgzfd)" height="148.0469" rx="12.5" ry="12.5" style="stroke: #A80036; stroke-width: 1.5;" width="253" x="168" y="363.9063"/><line style="stroke: #A80036; stroke-width: 1.5;" x1="168" x2="421" y1="390.2031" y2="390.2031"/><text fill="#000000" font-family="sans-serif" font-size="14" lengthAdjust="spacingAndGlyphs" textLength="140" x="224.5" y="381.9014">creatingMediaGroup</text><text fill="#000000" font-family="sans-serif" font-size="12" lengthAdjust="spacingAndGlyphs" textLength="177" x="173" y="406.3418">1. create mediagroup actor.</text><text fill="#000000" font-family="sans-serif" font-size="12" lengthAdjust="spacingAndGlyphs" textLength="157" x="173" y="420.3105">2. create IVR endpoint at</text><text fill="#000000" font-family="sans-serif" font-size="12" lengthAdjust="spacingAndGlyphs" textLength="129" x="173" y="434.2793">master mediaserver.</text><text fill="#000000" font-family="sans-serif" font-size="12" lengthAdjust="spacingAndGlyphs" textLength="200" x="173" y="448.248">3. This step also involves linking</text><text fill="#000000" font-family="sans-serif" font-size="12" lengthAdjust="spacingAndGlyphs" textLength="178" x="173" y="462.2168">ivr endpoint with conference</text><text fill="#000000" font-family="sans-serif" font-size="12" lengthAdjust="spacingAndGlyphs" textLength="60" x="173" y="476.1855">endpoint.</text><text fill="#000000" font-family="sans-serif" font-size="12" lengthAdjust="spacingAndGlyphs" textLength="233" x="173" y="490.1543">Details fsm of this step are explained</text><text fill="#000000" font-family="sans-serif" font-size="12" lengthAdjust="spacingAndGlyphs" textLength="213" x="173" y="504.123">in MRBMasterMediaGroup section.</text><rect fill="#FEFECE" filter="url(#fbhgzfd)" height="92.1719" rx="12.5" ry="12.5" style="stroke: #A80036; stroke-width: 1.5;" width="205" x="104" y="571.9063"/><line style="stroke: #A80036; stroke-width: 1.5;" x1="104" x2="309" y1="598.2031" y2="598.2031"/><text fill="#000000" font-family="sans-serif" font-size="14" lengthAdjust="spacingAndGlyphs" textLength="161" x="126" y="589.9014">acquiringIVREndpointID</text><text fill="#000000" font-family="sans-serif" font-size="12" lengthAdjust="spacingAndGlyphs" textLength="166" x="109" y="614.3418">get ivr endpoint id number</text><text fill="#000000" font-family="sans-serif" font-size="12" lengthAdjust="spacingAndGlyphs" textLength="185" x="109" y="628.3105">and save in database so that</text><text fill="#000000" font-family="sans-serif" font-size="12" lengthAdjust="spacingAndGlyphs" textLength="131" x="109" y="642.2793">slave nodes may use</text><text fill="#000000" font-family="sans-serif" font-size="12" lengthAdjust="spacingAndGlyphs" textLength="174" x="109" y="656.248">this information to connect.</text><rect fill="#FEFECE" filter="url(#fbhgzfd)" height="92.1719" rx="12.5" ry="12.5" style="stroke: #A80036; stroke-width: 1.5;" width="243" x="44" y="723.9063"/><line style="stroke: #A80036; stroke-width: 1.5;" x1="44" x2="287" y1="750.2031" y2="750.2031"/><text fill="#000000" font-family="sans-serif" font-size="14" lengthAdjust="spacingAndGlyphs" textLength="220" x="55.5" y="741.9014">acquiringConferenceEndpointID</text><text fill="#000000" font-family="sans-serif" font-size="12" lengthAdjust="spacingAndGlyphs" textLength="223" x="49" y="766.3418">get conference endpoint id number</text><text fill="#000000" font-family="sans-serif" font-size="12" lengthAdjust="spacingAndGlyphs" textLength="185" x="49" y="780.3105">and save in database so that</text><text fill="#000000" font-family="sans-serif" font-size="12" lengthAdjust="spacingAndGlyphs" textLength="131" x="49" y="794.2793">slave nodes may use</text><text fill="#000000" font-family="sans-serif" font-size="12" lengthAdjust="spacingAndGlyphs" textLength="174" x="49" y="808.248">this information to connect.</text><rect fill="#FEFECE" filter="url(#fbhgzfd)" height="50" rx="12.5" ry="12.5" style="stroke: #A80036; stroke-width: 1.5;" width="84" x="120.5" y="875.9063"/><line style="stroke: #A80036; stroke-width: 1.5;" x1="120.5" x2="204.5" y1="902.2031" y2="902.2031"/><text fill="#000000" font-family="sans-serif" font-size="14" lengthAdjust="spacingAndGlyphs" textLength="64" x="130.5" y="893.9014">preActive</text><rect fill="#FEFECE" filter="url(#fbhgzfd)" height="50.2656" rx="12.5" ry="12.5" style="stroke: #A80036; stroke-width: 1.5;" width="164" x="66.5" y="985.9063"/><line style="stroke: #A80036; stroke-width: 1.5;" x1="66.5" x2="230.5" y1="1012.2031" y2="1012.2031"/><text fill="#000000" font-family="sans-serif" font-size="14" lengthAdjust="spacingAndGlyphs" textLength="40" x="128.5" y="1003.9014">active</text><text fill="#000000" font-family="sans-serif" font-size="12" lengthAdjust="spacingAndGlyphs" textLength="144" x="71.5" y="1028.3418">broadcast being active</text><rect fill="#FEFECE" filter="url(#fbhgzfd)" height="78.2031" rx="12.5" ry="12.5" style="stroke: #A80036; stroke-width: 1.5;" width="281" x="6" y="1095.9063"/><line style="stroke: #A80036; stroke-width: 1.5;" x1="6" x2="287" y1="1122.2031" y2="1122.2031"/><text fill="#000000" font-family="sans-serif" font-size="14" lengthAdjust="spacingAndGlyphs" textLength="231" x="31" y="1113.9014">acquiringMasterBridgeEndpointID</text><text fill="#000000" font-family="sans-serif" font-size="12" lengthAdjust="spacingAndGlyphs" textLength="261" x="11" y="1138.3418">this state is to acquire Master participant</text><text fill="#000000" font-family="sans-serif" font-size="12" lengthAdjust="spacingAndGlyphs" textLength="215" x="11" y="1152.3105">bridge ep and save in db, so slave</text><text fill="#000000" font-family="sans-serif" font-size="12" lengthAdjust="spacingAndGlyphs" textLength="150" x="11" y="1166.2793">can unmute it if needed</text><rect fill="#FEFECE" filter="url(#fbhgzfd)" height="50.2656" rx="12.5" ry="12.5" style="stroke: #A80036; stroke-width: 1.5;" width="121" x="210" y="1233.9063"/><line style="stroke: #A80036; stroke-width: 1.5;" x1="210" x2="331" y1="1260.2031" y2="1260.2031"/><text fill="#000000" font-family="sans-serif" font-size="14" lengthAdjust="spacingAndGlyphs" textLength="61" x="240" y="1251.9014">stopping</text><text fill="#000000" font-family="sans-serif" font-size="12" lengthAdjust="spacingAndGlyphs" textLength="101" x="215" y="1276.3418">clean resources</text><rect fill="#FEFECE" filter="url(#fbhgzfd)" height="50.2656" rx="12.5" ry="12.5" style="stroke: #A80036; stroke-width: 1.5;" width="175" x="183" y="1343.9063"/><line style="stroke: #A80036; stroke-width: 1.5;" x1="183" x2="358" y1="1370.2031" y2="1370.2031"/><text fill="#000000" font-family="sans-serif" font-size="14" lengthAdjust="spacingAndGlyphs" textLength="52" x="244.5" y="1361.9014">inactive</text><text fill="#000000" font-family="sans-serif" font-size="12" lengthAdjust="spacingAndGlyphs" textLength="155" x="188" y="1386.3418">broadcast being inactive</text><rect fill="#FEFECE" filter="url(#fbhgzfd)" height="50.2656" rx="12.5" ry="12.5" style="stroke: #A80036; stroke-width: 1.5;" width="161" x="324" y="744.9063"/><line style="stroke: #A80036; stroke-width: 1.5;" x1="324" x2="485" y1="771.2031" y2="771.2031"/><text fill="#000000" font-family="sans-serif" font-size="14" lengthAdjust="spacingAndGlyphs" textLength="36" x="386.5" y="762.9014">failed</text><text fill="#000000" font-family="sans-serif" font-size="12" lengthAdjust="spacingAndGlyphs" textLength="141" x="329" y="787.3418">broadcast being failed</text><ellipse cx="340.5" cy="1463.9063" fill="none" filter="url(#fbhgzfd)" rx="10" ry="10" style="stroke: #000000; stroke-width: 1.0;"/><ellipse cx="341" cy="1464.4063" fill="#000000" rx="6" ry="6" style="stroke: none; stroke-width: 1.0;"/><path d="M294.5,70.1662 C294.5,82.7662 294.5,105.8863 294.5,124.6463 " fill="none" style="stroke: #A80036; stroke-width: 1.0;"/><polygon fill="#A80036" points="294.5,129.8163,298.5,120.8163,294.5,124.8163,290.5,120.8163,294.5,129.8163" style="stroke: #A80036; stroke-width: 1.0;"/><path d="M294.5,180.0162 C294.5,195.7762 294.5,216.6463 294.5,234.4262 " fill="none" style="stroke: #A80036; stroke-width: 1.0;"/><polygon fill="#A80036" points="294.5,239.8263,298.5,230.8263,294.5,234.8263,290.5,230.8263,294.5,239.8263" style="stroke: #A80036; stroke-width: 1.0;"/><path d="M294.5,304.1363 C294.5,319.5963 294.5,339.0262 294.5,358.2162 " fill="none" style="stroke: #A80036; stroke-width: 1.0;"/><polygon fill="#A80036" points="294.5,363.6163,298.5,354.6163,294.5,358.6163,290.5,354.6163,294.5,363.6163" style="stroke: #A80036; stroke-width: 1.0;"/><path d="M258.326,512.0763 C249.183,530.5703 239.574,550.0063 231.148,567.0503 " fill="none" style="stroke: #A80036; stroke-width: 1.0;"/><polygon fill="#A80036" points="228.804,571.7913,236.3778,565.4954,231.0195,567.3089,229.206,561.9506,228.804,571.7913" style="stroke: #A80036; stroke-width: 1.0;"/><path d="M194.199,663.9113 C189.477,681.1863 184.06,701.0023 179.214,718.7323 " fill="none" style="stroke: #A80036; stroke-width: 1.0;"/><polygon fill="#A80036" points="177.863,723.6743,184.0949,716.0477,179.1816,718.8513,176.3781,713.938,177.863,723.6743" style="stroke: #A80036; stroke-width: 1.0;"/><path d="M164.451,816.0243 C164.032,834.0403 163.561,854.2813 163.187,870.3653 " fill="none" style="stroke: #A80036; stroke-width: 1.0;"/><polygon fill="#A80036" points="163.064,875.6523,167.2738,866.7484,163.1811,870.6536,159.276,866.561,163.064,875.6523" style="stroke: #A80036; stroke-width: 1.0;"/><path d="M137.709,1036.0093 C135.18,1051.4973 134.217,1072.0683 134.939,1090.3553 " fill="none" style="stroke: #A80036; stroke-width: 1.0;"/><polygon fill="#A80036" points="135.188,1095.4463,138.7435,1086.2616,134.9437,1090.4522,130.7531,1086.6524,135.188,1095.4463" style="stroke: #A80036; stroke-width: 1.0;"/><path d="M159.776,1095.4463 C161.449,1077.9583 161.483,1057.5943 159.763,1041.3503 " fill="none" style="stroke: #A80036; stroke-width: 1.0;"/><polygon fill="#A80036" points="159.112,1036.0093,156.2291,1045.4267,159.7163,1040.9726,164.1705,1044.4598,159.112,1036.0093" style="stroke: #A80036; stroke-width: 1.0;"/><path d="M159.358,926.1433 C157.269,942.2633 154.512,963.5273 152.299,980.5973 " fill="none" style="stroke: #A80036; stroke-width: 1.0;"/><polygon fill="#A80036" points="151.631,985.7503,156.7549,977.3392,152.2738,980.7917,148.8213,976.3107,151.631,985.7503" style="stroke: #A80036; stroke-width: 1.0;"/><path d="M185.394,1174.1733 C203.751,1192.2343 225.261,1213.3973 242.064,1229.9283 " fill="none" style="stroke: #A80036; stroke-width: 1.0;"/><polygon fill="#A80036" points="245.792,1233.5963,242.1823,1224.4327,242.228,1230.0894,236.5713,1230.1351,245.792,1233.5963" style="stroke: #A80036; stroke-width: 1.0;"/><path d="M229.601,1035.9792 C258.44,1048.8823 287.859,1068.0462 304.5,1095.9063 C329.533,1137.8173 306.373,1195.4383 287.956,1229.4663 " fill="none" style="stroke: #A80036; stroke-width: 1.0;"/><polygon fill="#A80036" points="285.509,1233.9033,293.3575,1227.9533,287.9233,1229.5247,286.3518,1224.0905,285.509,1233.9033" style="stroke: #A80036; stroke-width: 1.0;"/><path d="M270.5,1284.1433 C270.5,1300.2633 270.5,1321.5273 270.5,1338.5973 " fill="none" style="stroke: #A80036; stroke-width: 1.0;"/><polygon fill="#A80036" points="270.5,1343.7503,274.5,1334.7503,270.5,1338.7503,266.5,1334.7503,270.5,1343.7503" style="stroke: #A80036; stroke-width: 1.0;"/><path d="M318.913,512.1443 C342.778,583.7403 377.909,689.1343 394.771,739.7183 " fill="none" style="stroke: #A80036; stroke-width: 1.0;"/><polygon fill="#A80036" points="396.442,744.7323,397.3898,734.9291,394.8604,739.989,389.8006,737.4596,396.442,744.7323" style="stroke: #A80036; stroke-width: 1.0;"/><path d="M288.892,1394.341 C302.695,1412.6791 320.984,1436.9776 331.674,1451.1804 " fill="none" style="stroke: #A80036; stroke-width: 1.0;"/><polygon fill="#A80036" points="334.734,1455.2463,332.5183,1445.6499,331.7275,1451.2512,326.1262,1450.4603,334.734,1455.2463" style="stroke: #A80036; stroke-width: 1.0;"/><path d="M405.672,794.9853 C407.664,838.0793 411.5,931.2433 411.5,1009.9063 C411.5,1009.9063 411.5,1009.9063 411.5,1259.9063 C411.5,1336.1033 366.378,1419.8232 348.076,1450.6468 " fill="none" style="stroke: #A80036; stroke-width: 1.0;"/><polygon fill="#A80036" points="345.38,1455.1303,353.4456,1449.4781,347.9564,1450.8451,346.5893,1445.3559,345.38,1455.1303" style="stroke: #A80036; stroke-width: 1.0;"/></g></svg>