<?xml version="1.0" encoding="UTF-8" standalone="no"?><svg xmlns="http://www.w3.org/2000/svg" xmlns:xlink="http://www.w3.org/1999/xlink" contentScriptType="application/ecmascript" contentStyleType="text/css" height="1892px" preserveAspectRatio="none" style="width:1268px;height:1892px;" version="1.1" viewBox="0 0 1268 1892" width="1268px" zoomAndPan="magnify"><defs><filter height="300%" id="f5bgv9i" width="300%" x="-1" y="-1"><feGaussianBlur result="blurOut" stdDeviation="2.0"/><feColorMatrix in="blurOut" result="blurOut2" type="matrix" values="0 0 0 0 0 0 0 0 0 0 0 0 0 0 0 0 0 0 .4 0"/><feOffset dx="4.0" dy="4.0" in="blurOut2" result="blurOut3"/><feBlend in="SourceGraphic" in2="blurOut3" mode="normal"/></filter></defs><g><text fill="#000000" font-family="sans-serif" font-size="18" lengthAdjust="spacingAndGlyphs" textLength="370" x="440.5" y="16.708">ConferenceMediaResourceController FSM</text><text fill="#000000" font-family="sans-serif" font-size="18" lengthAdjust="spacingAndGlyphs" textLength="187" x="532" y="37.6611">for Slave Conference</text><!--cluster ConnectWithMasterConference--><rect fill="#FEFECE" filter="url(#f5bgv9i)" height="1392" rx="12.5" ry="12.5" style="stroke: #A80036; stroke-width: 1.5;" width="418" x="30" y="327.9063"/><rect fill="#FFFFFF" height="1312.7969" rx="12.5" ry="12.5" style="stroke: #FFFFFF; stroke-width: 1.0;" width="412" x="33" y="404.1094"/><line style="stroke: #A80036; stroke-width: 1.5;" x1="30" x2="448" y1="401.1094" y2="401.1094"/><line style="stroke: #A80036; stroke-width: 1.5;" x1="30" x2="448" y1="354.2031" y2="354.2031"/><text fill="#000000" font-family="sans-serif" font-size="14" lengthAdjust="spacingAndGlyphs" textLength="217" x="76" y="344.9014">ConnectWithMasterConference</text><text fill="#000000" font-family="sans-serif" font-size="12" lengthAdjust="spacingAndGlyphs" textLength="290" x="35" y="367.8418">following steps are reposible for creating local</text><text fill="#000000" font-family="sans-serif" font-size="12" lengthAdjust="spacingAndGlyphs" textLength="284" x="35" y="381.8105">conference ep (on slave mediaserver) as well</text><text fill="#000000" font-family="sans-serif" font-size="12" lengthAdjust="spacingAndGlyphs" textLength="326" x="35" y="395.7793">connecting them with master  conference endpoint.</text><!--cluster unMuteMaster--><rect fill="#FEFECE" filter="url(#f5bgv9i)" height="624" rx="12.5" ry="12.5" style="stroke: #A80036; stroke-width: 1.5;" width="416" x="629" y="957.9063"/><rect fill="#FFFFFF" height="572.7344" rx="12.5" ry="12.5" style="stroke: #FFFFFF; stroke-width: 1.0;" width="410" x="632" y="1006.1719"/><line style="stroke: #A80036; stroke-width: 1.5;" x1="629" x2="1045" y1="1003.1719" y2="1003.1719"/><line style="stroke: #A80036; stroke-width: 1.5;" x1="629" x2="1045" y1="984.2031" y2="984.2031"/><text fill="#000000" font-family="sans-serif" font-size="14" lengthAdjust="spacingAndGlyphs" textLength="100" x="647" y="974.9014">unMuteMaster</text><text fill="#000000" font-family="sans-serif" font-size="12" lengthAdjust="spacingAndGlyphs" textLength="380" x="634" y="997.8418">following states are executed under a very special use case.</text><ellipse cx="261" cy="427.9063" fill="#000000" filter="url(#f5bgv9i)" rx="10" ry="10" style="stroke: none; stroke-width: 1.0;"/><rect fill="#FEFECE" filter="url(#f5bgv9i)" height="50.2656" rx="12.5" ry="12.5" style="stroke: #A80036; stroke-width: 1.5;" width="282" x="120" y="504.9063"/><line style="stroke: #A80036; stroke-width: 1.5;" x1="120" x2="402" y1="531.2031" y2="531.2031"/><text fill="#000000" font-family="sans-serif" font-size="14" lengthAdjust="spacingAndGlyphs" textLength="210" x="156" y="522.9014">acquiringMasterMediaGateway</text><text fill="#000000" font-family="sans-serif" font-size="12" lengthAdjust="spacingAndGlyphs" textLength="262" x="125" y="547.3418">get master mediagateway-actor from MRB</text><rect fill="#FEFECE" filter="url(#f5bgv9i)" height="64.2344" rx="12.5" ry="12.5" style="stroke: #A80036; stroke-width: 1.5;" width="277" x="122.5" y="621.9063"/><line style="stroke: #A80036; stroke-width: 1.5;" x1="122.5" x2="399.5" y1="648.2031" y2="648.2031"/><text fill="#000000" font-family="sans-serif" font-size="14" lengthAdjust="spacingAndGlyphs" textLength="257" x="132.5" y="639.9014">acquiringMediaSessionWithMasterMS</text><text fill="#000000" font-family="sans-serif" font-size="12" lengthAdjust="spacingAndGlyphs" textLength="179" x="127.5" y="664.3418">get mediasession(unique id)</text><text fill="#000000" font-family="sans-serif" font-size="12" lengthAdjust="spacingAndGlyphs" textLength="180" x="127.5" y="678.3105">from (master) mediagateway</text><rect fill="#FEFECE" filter="url(#f5bgv9i)" height="64.2344" rx="12.5" ry="12.5" style="stroke: #A80036; stroke-width: 1.5;" width="304" x="109" y="745.9063"/><line style="stroke: #A80036; stroke-width: 1.5;" x1="109" x2="413" y1="772.2031" y2="772.2031"/><text fill="#000000" font-family="sans-serif" font-size="14" lengthAdjust="spacingAndGlyphs" textLength="284" x="119" y="763.9014">acquiringRemoteConnectionWithLocalMS</text><text fill="#000000" font-family="sans-serif" font-size="12" lengthAdjust="spacingAndGlyphs" textLength="165" x="114" y="788.3418">get Connection-actor from</text><text fill="#000000" font-family="sans-serif" font-size="12" lengthAdjust="spacingAndGlyphs" textLength="123" x="114" y="802.3105">local mediagateway</text><rect fill="#FEFECE" filter="url(#f5bgv9i)" height="64.2344" rx="12.5" ry="12.5" style="stroke: #A80036; stroke-width: 1.5;" width="307" x="107.5" y="869.9063"/><line style="stroke: #A80036; stroke-width: 1.5;" x1="107.5" x2="414.5" y1="896.2031" y2="896.2031"/><text fill="#000000" font-family="sans-serif" font-size="14" lengthAdjust="spacingAndGlyphs" textLength="287" x="117.5" y="887.9014">initializingRemoteConnectionWithLocalMS</text><text fill="#000000" font-family="sans-serif" font-size="12" lengthAdjust="spacingAndGlyphs" textLength="160" x="112.5" y="912.3418">initialize connection-actor</text><text fill="#000000" font-family="sans-serif" font-size="12" lengthAdjust="spacingAndGlyphs" textLength="230" x="112.5" y="926.3105">with local conference-endpoint-actor</text><rect fill="#FEFECE" filter="url(#f5bgv9i)" height="64.2344" rx="12.5" ry="12.5" style="stroke: #A80036; stroke-width: 1.5;" width="298" x="112" y="997.9063"/><line style="stroke: #A80036; stroke-width: 1.5;" x1="112" x2="410" y1="1024.2031" y2="1024.2031"/><text fill="#000000" font-family="sans-serif" font-size="14" lengthAdjust="spacingAndGlyphs" textLength="278" x="122" y="1015.9014">openingRemoteConnectionWithLocalMS</text><text fill="#000000" font-family="sans-serif" font-size="12" lengthAdjust="spacingAndGlyphs" textLength="175" x="117" y="1040.3418">MGCP CRCX cnf/?@localRMS.</text><text fill="#000000" font-family="sans-serif" font-size="12" lengthAdjust="spacingAndGlyphs" textLength="216" x="117" y="1054.3105">get SDP of local/slave-mediaserver</text><rect fill="#FEFECE" filter="url(#f5bgv9i)" height="64.2344" rx="12.5" ry="12.5" style="stroke: #A80036; stroke-width: 1.5;" width="273" x="110.5" y="1121.9063"/><line style="stroke: #A80036; stroke-width: 1.5;" x1="110.5" x2="383.5" y1="1148.2031" y2="1148.2031"/><text fill="#000000" font-family="sans-serif" font-size="14" lengthAdjust="spacingAndGlyphs" textLength="253" x="120.5" y="1139.9014">acquiringMasterConferenceEndpoint</text><text fill="#000000" font-family="sans-serif" font-size="12" lengthAdjust="spacingAndGlyphs" textLength="193" x="115.5" y="1164.3418">get conference-endpoint-actor</text><text fill="#000000" font-family="sans-serif" font-size="12" lengthAdjust="spacingAndGlyphs" textLength="211" x="115.5" y="1178.3105">from master-mediagateway-actor.</text><rect fill="#FEFECE" filter="url(#f5bgv9i)" height="64.2344" rx="12.5" ry="12.5" style="stroke: #A80036; stroke-width: 1.5;" width="316" x="87" y="1245.9063"/><line style="stroke: #A80036; stroke-width: 1.5;" x1="87" x2="403" y1="1272.2031" y2="1272.2031"/><text fill="#000000" font-family="sans-serif" font-size="14" lengthAdjust="spacingAndGlyphs" textLength="296" x="97" y="1263.9014">acquiringRemoteConnectionWithMasterMS</text><text fill="#000000" font-family="sans-serif" font-size="12" lengthAdjust="spacingAndGlyphs" textLength="165" x="92" y="1288.3418">get Connection-actor from</text><text fill="#000000" font-family="sans-serif" font-size="12" lengthAdjust="spacingAndGlyphs" textLength="138" x="92" y="1302.3105">master mediagateway</text><rect fill="#FEFECE" filter="url(#f5bgv9i)" height="64.2344" rx="12.5" ry="12.5" style="stroke: #A80036; stroke-width: 1.5;" width="319" x="82.5" y="1369.9063"/><line style="stroke: #A80036; stroke-width: 1.5;" x1="82.5" x2="401.5" y1="1396.2031" y2="1396.2031"/><text fill="#000000" font-family="sans-serif" font-size="14" lengthAdjust="spacingAndGlyphs" textLength="299" x="92.5" y="1387.9014">initializingRemoteConnectionWithMasterMS</text><text fill="#000000" font-family="sans-serif" font-size="12" lengthAdjust="spacingAndGlyphs" textLength="160" x="87.5" y="1412.3418">initialize connection-actor</text><text fill="#000000" font-family="sans-serif" font-size="12" lengthAdjust="spacingAndGlyphs" textLength="245" x="87.5" y="1426.3105">with master conference-endpoint-actor</text><rect fill="#FEFECE" filter="url(#f5bgv9i)" height="78.2031" rx="12.5" ry="12.5" style="stroke: #A80036; stroke-width: 1.5;" width="362" x="54" y="1493.9063"/><line style="stroke: #A80036; stroke-width: 1.5;" x1="54" x2="416" y1="1520.2031" y2="1520.2031"/><text fill="#000000" font-family="sans-serif" font-size="14" lengthAdjust="spacingAndGlyphs" textLength="290" x="90" y="1511.9014">openingRemoteConnectionWithMasterMS</text><text fill="#000000" font-family="sans-serif" font-size="12" lengthAdjust="spacingAndGlyphs" textLength="219" x="59" y="1536.3418">MGCP/SDP CRCX cnf/?@masterRMS.</text><text fill="#000000" font-family="sans-serif" font-size="12" lengthAdjust="spacingAndGlyphs" textLength="342" x="59" y="1550.3105">pass SDP of slave media-server to master-mediaserver</text><text fill="#000000" font-family="sans-serif" font-size="12" lengthAdjust="spacingAndGlyphs" textLength="195" x="59" y="1564.2793">get SDP of master-mediaserver</text><rect fill="#FEFECE" filter="url(#f5bgv9i)" height="64.2344" rx="12.5" ry="12.5" style="stroke: #A80036; stroke-width: 1.5;" width="337" x="54.5" y="1631.9063"/><line style="stroke: #A80036; stroke-width: 1.5;" x1="54.5" x2="391.5" y1="1658.2031" y2="1658.2031"/><text fill="#000000" font-family="sans-serif" font-size="14" lengthAdjust="spacingAndGlyphs" textLength="282" x="82" y="1649.9014">updatingRemoteConnectionWithLocalMS</text><text fill="#000000" font-family="sans-serif" font-size="12" lengthAdjust="spacingAndGlyphs" textLength="207" x="59.5" y="1674.3418">MGCP/SDP MDCX cnf/?@localRMS.</text><text fill="#000000" font-family="sans-serif" font-size="12" lengthAdjust="spacingAndGlyphs" textLength="317" x="59.5" y="1688.3105">modify connection with SDP of master-mediaserver</text><ellipse cx="863" cy="1029.9063" fill="#000000" filter="url(#f5bgv9i)" rx="10" ry="10" style="stroke: none; stroke-width: 1.0;"/><rect fill="#FEFECE" filter="url(#f5bgv9i)" height="50.2656" rx="12.5" ry="12.5" style="stroke: #A80036; stroke-width: 1.5;" width="237" x="744.5" y="1128.9063"/><line style="stroke: #A80036; stroke-width: 1.5;" x1="744.5" x2="981.5" y1="1155.2031" y2="1155.2031"/><text fill="#000000" font-family="sans-serif" font-size="14" lengthAdjust="spacingAndGlyphs" textLength="217" x="754.5" y="1146.9014">acquiringMasterBridgeEndpoint</text><text fill="#000000" font-family="sans-serif" font-size="12" lengthAdjust="spacingAndGlyphs" textLength="122" x="749.5" y="1171.3418">create bridge-actor</text><rect fill="#FEFECE" filter="url(#f5bgv9i)" height="50.2656" rx="12.5" ry="12.5" style="stroke: #A80036; stroke-width: 1.5;" width="361" x="652.5" y="1252.9063"/><line style="stroke: #A80036; stroke-width: 1.5;" x1="652.5" x2="1013.5" y1="1279.2031" y2="1279.2031"/><text fill="#000000" font-family="sans-serif" font-size="14" lengthAdjust="spacingAndGlyphs" textLength="341" x="662.5" y="1270.9014">acquiringRemoteConnectionWithMasterBridgeMS</text><text fill="#000000" font-family="sans-serif" font-size="12" lengthAdjust="spacingAndGlyphs" textLength="152" x="657.5" y="1295.3418">create connection-actor</text><rect fill="#FEFECE" filter="url(#f5bgv9i)" height="50.2656" rx="12.5" ry="12.5" style="stroke: #A80036; stroke-width: 1.5;" width="317" x="674.5" y="1376.9063"/><line style="stroke: #A80036; stroke-width: 1.5;" x1="674.5" x2="991.5" y1="1403.2031" y2="1403.2031"/><text fill="#000000" font-family="sans-serif" font-size="14" lengthAdjust="spacingAndGlyphs" textLength="297" x="684.5" y="1394.9014">initializingRemoteConnectionWithBridgeMS</text><text fill="#000000" font-family="sans-serif" font-size="12" lengthAdjust="spacingAndGlyphs" textLength="269" x="679.5" y="1419.3418">introduce bridge-actor to connection-actor</text><rect fill="#FEFECE" filter="url(#f5bgv9i)" height="50.2656" rx="12.5" ry="12.5" style="stroke: #A80036; stroke-width: 1.5;" width="308" x="653" y="1507.9063"/><line style="stroke: #A80036; stroke-width: 1.5;" x1="653" x2="961" y1="1534.2031" y2="1534.2031"/><text fill="#000000" font-family="sans-serif" font-size="14" lengthAdjust="spacingAndGlyphs" textLength="288" x="663" y="1525.9014">openingRemoteConnectionWithBridgeMS</text><text fill="#000000" font-family="sans-serif" font-size="12" lengthAdjust="spacingAndGlyphs" textLength="236" x="658" y="1550.3418">MGCP CRCX with bridge/?@masterRMS</text><ellipse cx="490" cy="59.9063" fill="#000000" filter="url(#f5bgv9i)" rx="10" ry="10" style="stroke: none; stroke-width: 1.0;"/><rect fill="#FEFECE" filter="url(#f5bgv9i)" height="50" rx="12.5" ry="12.5" style="stroke: #A80036; stroke-width: 1.5;" width="101" x="439.5" y="129.9063"/><line style="stroke: #A80036; stroke-width: 1.5;" x1="439.5" x2="540.5" y1="156.2031" y2="156.2031"/><text fill="#000000" font-family="sans-serif" font-size="14" lengthAdjust="spacingAndGlyphs" textLength="81" x="449.5" y="147.9014">uninitialized</text><rect fill="#FEFECE" filter="url(#f5bgv9i)" height="64.2344" rx="12.5" ry="12.5" style="stroke: #A80036; stroke-width: 1.5;" width="189" x="395.5" y="239.9063"/><line style="stroke: #A80036; stroke-width: 1.5;" x1="395.5" x2="584.5" y1="266.2031" y2="266.2031"/><text fill="#000000" font-family="sans-serif" font-size="14" lengthAdjust="spacingAndGlyphs" textLength="169" x="405.5" y="257.9014">acquiringConferenceInfo</text><text fill="#000000" font-family="sans-serif" font-size="12" lengthAdjust="spacingAndGlyphs" textLength="96" x="400.5" y="282.3418">get conference</text><text fill="#000000" font-family="sans-serif" font-size="12" lengthAdjust="spacingAndGlyphs" textLength="94" x="400.5" y="296.3105">record from DB</text><rect fill="#FEFECE" filter="url(#f5bgv9i)" height="64.2344" rx="12.5" ry="12.5" style="stroke: #A80036; stroke-width: 1.5;" width="189" x="482.5" y="497.9063"/><line style="stroke: #A80036; stroke-width: 1.5;" x1="482.5" x2="671.5" y1="524.2031" y2="524.2031"/><text fill="#000000" font-family="sans-serif" font-size="14" lengthAdjust="spacingAndGlyphs" textLength="140" x="507" y="515.9014">creatingMediaGroup</text><text fill="#000000" font-family="sans-serif" font-size="12" lengthAdjust="spacingAndGlyphs" textLength="169" x="487.5" y="540.3418">create a mediagroup actor</text><text fill="#000000" font-family="sans-serif" font-size="12" lengthAdjust="spacingAndGlyphs" textLength="130" x="487.5" y="554.3105">pointing to masterivr</text><rect fill="#FEFECE" filter="url(#f5bgv9i)" height="50.2656" rx="12.5" ry="12.5" style="stroke: #A80036; stroke-width: 1.5;" width="164" x="1069" y="1128.9063"/><line style="stroke: #A80036; stroke-width: 1.5;" x1="1069" x2="1233" y1="1155.2031" y2="1155.2031"/><text fill="#000000" font-family="sans-serif" font-size="14" lengthAdjust="spacingAndGlyphs" textLength="40" x="1131" y="1146.9014">active</text><text fill="#000000" font-family="sans-serif" font-size="12" lengthAdjust="spacingAndGlyphs" textLength="144" x="1074" y="1171.3418">broadcast being active</text><rect fill="#FEFECE" filter="url(#f5bgv9i)" height="50.2656" rx="12.5" ry="12.5" style="stroke: #A80036; stroke-width: 1.5;" width="175" x="796.5" y="1755.9063"/><line style="stroke: #A80036; stroke-width: 1.5;" x1="796.5" x2="971.5" y1="1782.2031" y2="1782.2031"/><text fill="#000000" font-family="sans-serif" font-size="14" lengthAdjust="spacingAndGlyphs" textLength="52" x="858" y="1773.9014">inactive</text><text fill="#000000" font-family="sans-serif" font-size="12" lengthAdjust="spacingAndGlyphs" textLength="155" x="801.5" y="1798.3418">broadcast being inactive</text><rect fill="#FEFECE" filter="url(#f5bgv9i)" height="50.2656" rx="12.5" ry="12.5" style="stroke: #A80036; stroke-width: 1.5;" width="161" x="470.5" y="1755.9063"/><line style="stroke: #A80036; stroke-width: 1.5;" x1="470.5" x2="631.5" y1="1782.2031" y2="1782.2031"/><text fill="#000000" font-family="sans-serif" font-size="14" lengthAdjust="spacingAndGlyphs" textLength="36" x="533" y="1773.9014">failed</text><text fill="#000000" font-family="sans-serif" font-size="12" lengthAdjust="spacingAndGlyphs" textLength="141" x="475.5" y="1798.3418">broadcast being failed</text><rect fill="#FEFECE" filter="url(#f5bgv9i)" height="50.2656" rx="12.5" ry="12.5" style="stroke: #A80036; stroke-width: 1.5;" width="121" x="988.5" y="1638.9063"/><line style="stroke: #A80036; stroke-width: 1.5;" x1="988.5" x2="1109.5" y1="1665.2031" y2="1665.2031"/><text fill="#000000" font-family="sans-serif" font-size="14" lengthAdjust="spacingAndGlyphs" textLength="61" x="1018.5" y="1656.9014">stopping</text><text fill="#000000" font-family="sans-serif" font-size="12" lengthAdjust="spacingAndGlyphs" textLength="101" x="993.5" y="1681.3418">clean resources</text><rect fill="#FEFECE" filter="url(#f5bgv9i)" height="50" rx="12.5" ry="12.5" style="stroke: #A80036; stroke-width: 1.5;" width="84" x="1090" y="1004.9063"/><line style="stroke: #A80036; stroke-width: 1.5;" x1="1090" x2="1174" y1="1031.2031" y2="1031.2031"/><text fill="#000000" font-family="sans-serif" font-size="14" lengthAdjust="spacingAndGlyphs" textLength="64" x="1100" y="1022.9014">preActive</text><ellipse cx="652" cy="1875.9063" fill="none" filter="url(#f5bgv9i)" rx="10" ry="10" style="stroke: #000000; stroke-width: 1.0;"/><ellipse cx="652.5" cy="1876.4063" fill="#000000" rx="6" ry="6" style="stroke: none; stroke-width: 1.0;"/><path d="M490,70.1662 C490,82.7662 490,105.8863 490,124.6463 " fill="none" style="stroke: #A80036; stroke-width: 1.0;"/><polygon fill="#A80036" points="490,129.8163,494,120.8163,490,124.8163,486,120.8163,490,129.8163" style="stroke: #A80036; stroke-width: 1.0;"/><path d="M490,180.0162 C490,195.7762 490,216.6463 490,234.4262 " fill="none" style="stroke: #A80036; stroke-width: 1.0;"/><polygon fill="#A80036" points="490,239.8263,494,230.8263,490,234.8263,486,230.8263,490,239.8263" style="stroke: #A80036; stroke-width: 1.0;"/><path d="M500.58,304.0363 C516.77,351.6763 547.6,442.4063 564.74,492.8363 " fill="none" style="stroke: #A80036; stroke-width: 1.0;"/><polygon fill="#A80036" points="566.36,497.5863,567.2378,487.7766,564.7446,492.8544,559.6668,490.3612,566.36,497.5863" style="stroke: #A80036; stroke-width: 1.0;"/><path d="M261,438.1363 C261,451.9562 261,478.6263 261,499.4962 " fill="none" style="stroke: #A80036; stroke-width: 1.0;"/><polygon fill="#A80036" points="261,504.6663,265,495.6663,261,499.6663,257,495.6663,261,504.6663" style="stroke: #A80036; stroke-width: 1.0;"/><path d="M261,555.0062 C261,572.6063 261,596.7562 261,616.6663 " fill="none" style="stroke: #A80036; stroke-width: 1.0;"/><polygon fill="#A80036" points="261,621.8963,265,612.8963,261,616.8963,257,612.8963,261,621.8963" style="stroke: #A80036; stroke-width: 1.0;"/><path d="M261,686.0062 C261,702.6463 261,723.2163 261,740.5863 " fill="none" style="stroke: #A80036; stroke-width: 1.0;"/><polygon fill="#A80036" points="261,745.8663,265,736.8663,261,740.8663,257,736.8663,261,745.8663" style="stroke: #A80036; stroke-width: 1.0;"/><path d="M261,810.0062 C261,826.6463 261,847.2163 261,864.5863 " fill="none" style="stroke: #A80036; stroke-width: 1.0;"/><polygon fill="#A80036" points="261,869.8663,265,860.8663,261,864.8663,257,860.8663,261,869.8663" style="stroke: #A80036; stroke-width: 1.0;"/><path d="M261,934.0563 C261,951.7763 261,974.0563 261,992.5663 " fill="none" style="stroke: #A80036; stroke-width: 1.0;"/><polygon fill="#A80036" points="261,997.6863,265,988.6863,261,992.6863,257,988.6863,261,997.6863" style="stroke: #A80036; stroke-width: 1.0;"/><path d="M257.43,1062.0063 C255.52,1078.6463 253.16,1099.2163 251.17,1116.5862 " fill="none" style="stroke: #A80036; stroke-width: 1.0;"/><polygon fill="#A80036" points="250.56,1121.8663,255.5616,1113.3819,251.131,1116.899,247.6139,1112.4684,250.56,1121.8663" style="stroke: #A80036; stroke-width: 1.0;"/><path d="M246.49,1186.0063 C246.22,1202.6463 245.88,1223.2163 245.6,1240.5862 " fill="none" style="stroke: #A80036; stroke-width: 1.0;"/><polygon fill="#A80036" points="245.51,1245.8663,249.6382,1236.9243,245.5814,1240.8668,241.639,1236.81,245.51,1245.8663" style="stroke: #A80036; stroke-width: 1.0;"/><path d="M244.24,1310.0063 C243.83,1326.6463 243.32,1347.2163 242.89,1364.5862 " fill="none" style="stroke: #A80036; stroke-width: 1.0;"/><polygon fill="#A80036" points="242.76,1369.8663,246.99,1360.972,242.8885,1364.8679,238.9927,1360.7664,242.76,1369.8663" style="stroke: #A80036; stroke-width: 1.0;"/><path d="M240.31,1434.1363 C239.43,1450.3563 238.34,1470.4363 237.37,1488.1763 " fill="none" style="stroke: #A80036; stroke-width: 1.0;"/><polygon fill="#A80036" points="237.08,1493.5963,241.562,1484.8263,237.351,1488.6036,233.5737,1484.3927,237.08,1493.5963" style="stroke: #A80036; stroke-width: 1.0;"/><path d="M231.46,1571.9163 C229.86,1589.1563 227.97,1609.4563 226.39,1626.4963 " fill="none" style="stroke: #A80036; stroke-width: 1.0;"/><polygon fill="#A80036" points="225.9,1631.6763,230.7318,1623.0941,226.372,1626.6986,222.7675,1622.3388,225.9,1631.6763" style="stroke: #A80036; stroke-width: 1.0;"/><path d="M1135.75,1055.0063 C1138.82,1074.7263 1143.18,1102.6863 1146.45,1123.6763 " fill="none" style="stroke: #A80036; stroke-width: 1.0;"/><polygon fill="#A80036" points="1147.25,1128.8563,1149.8101,1119.346,1146.4768,1123.9164,1141.9064,1120.5831,1147.25,1128.8563" style="stroke: #A80036; stroke-width: 1.0;"/><path d="M479.88,304.0663 C472.69,326.2163 462.9175,356.3213 454.8463,381.1838 C452.8284,387.3994 450.917,393.2873 449.1787,398.6414 C448.9615,399.3107 448.7469,399.9716 448.5351,400.6238 C448.4293,400.9499 448.3241,401.2738 448.2197,401.5955 C448.1675,401.7563 448.1154,401.9166 448.0636,402.0763 " fill="none" style="stroke: #A80036; stroke-width: 1.0;"/><polygon fill="#A80036" points="448.0636,402.0763,454.6472,394.7513,449.6076,397.3206,447.0382,392.2809,448.0636,402.0763" style="stroke: #A80036; stroke-width: 1.0;"/><path d="M448.0493,434.7806 C448.1289,434.8387 448.209,434.8972 448.2896,434.9561 C448.4509,435.0738 448.6141,435.193 448.7794,435.3136 C449.11,435.555 449.4487,435.8023 449.7953,436.0553 C455.3406,440.1038 462.9038,445.625 471.5975,451.9713 C488.985,464.6638 510.895,480.6563 530.23,494.7662 " fill="none" style="stroke: #A80036; stroke-width: 1.0;"/><polygon fill="#A80036" points="534.41,497.8163,529.4876,489.2857,530.3676,494.8737,524.7796,495.7536,534.41,497.8163" style="stroke: #A80036; stroke-width: 1.0;"/><path d="M616.34,562.1463 C699.64,628.8863 898.83,791.5363 1053,941.9063 C1072.28,960.7163 1092.69,983.2563 1107.93,1000.6863 " fill="none" style="stroke: #A80036; stroke-width: 1.0;"/><polygon fill="#A80036" points="1111.29,1004.5463,1108.394,995.1328,1108.0056,1000.7763,1102.3621,1000.3879,1111.29,1004.5463" style="stroke: #A80036; stroke-width: 1.0;"/><path d="M1139.52,1128.8463 C1125.83,1111.2663 1103.755,1087.1213 1083.38,1067.2038 C1073.1925,1057.245 1063.43,1048.3431 1055.3531,1041.8472 C1053.3339,1040.2232 1051.42,1038.7496 1049.6312,1037.4474 C1048.7368,1036.7963 1047.8737,1036.1881 1047.0442,1035.6254 C1046.6295,1035.344 1046.2233,1035.0741 1045.8257,1034.8158 C1045.6269,1034.6866 1045.4304,1034.5604 1045.236,1034.4372 " fill="none" style="stroke: #A80036; stroke-width: 1.0;"/><polygon fill="#A80036" points="1045.236,1034.4372,1050.6946,1042.635,1049.4586,1037.1148,1054.9788,1035.8788,1045.236,1034.4372" style="stroke: #A80036; stroke-width: 1.0;"/><path d="M1045.0195,1049.6582 C1045.2003,1049.9006 1045.3832,1050.1448 1045.5682,1050.3908 C1045.9382,1050.8826 1046.3166,1051.3813 1046.703,1051.8866 C1049.7942,1055.9287 1053.4013,1060.3903 1057.3825,1065.12 C1073.3075,1084.0388 1095.22,1107.2463 1114.06,1125.0462 " fill="none" style="stroke: #A80036; stroke-width: 1.0;"/><polygon fill="#A80036" points="1118.13,1128.8463,1114.2987,1119.7731,1114.4819,1125.427,1108.828,1125.6101,1118.13,1128.8463" style="stroke: #A80036; stroke-width: 1.0;"/><path d="M863,1040.0763 C863,1057.5363 863,1096.2163 863,1123.4063 " fill="none" style="stroke: #A80036; stroke-width: 1.0;"/><polygon fill="#A80036" points="863,1128.6763,867,1119.6763,863,1123.6763,859,1119.6763,863,1128.6763" style="stroke: #A80036; stroke-width: 1.0;"/><path d="M857.07,1179.0063 C852.2,1198.8063 845.29,1226.9163 840.12,1247.9463 " fill="none" style="stroke: #A80036; stroke-width: 1.0;"/><polygon fill="#A80036" points="838.91,1252.8563,844.9519,1245.0783,840.1092,1248.0022,837.1854,1243.1596,838.91,1252.8563" style="stroke: #A80036; stroke-width: 1.0;"/><path d="M833,1303.0063 C833,1322.7263 833,1350.6863 833,1371.6763 " fill="none" style="stroke: #A80036; stroke-width: 1.0;"/><polygon fill="#A80036" points="833,1376.8563,837,1367.8563,833,1371.8563,829,1367.8563,833,1376.8563" style="stroke: #A80036; stroke-width: 1.0;"/><path d="M828.11,1427.1663 C823.79,1448.6163 817.48,1479.9263 812.88,1502.7363 " fill="none" style="stroke: #A80036; stroke-width: 1.0;"/><polygon fill="#A80036" points="811.87,1507.7463,817.5664,1499.7119,812.8561,1502.8444,809.7235,1498.1341,811.87,1507.7463" style="stroke: #A80036; stroke-width: 1.0;"/><path d="M938.2,1179.0662 C971.42,1193.4263 1008.06,1215.0063 1031,1245.9063 C1125.23,1372.8362 1118.79,1444.1663 1082,1597.9063 C1079.01,1610.3963 1073.2,1623.2063 1067.28,1634.1063 " fill="none" style="stroke: #A80036; stroke-width: 1.0;"/><polygon fill="#A80036" points="1064.75,1638.6563,1072.6322,1632.751,1067.1891,1634.2915,1065.6486,1628.8485,1064.75,1638.6563" style="stroke: #A80036; stroke-width: 1.0;"/><path d="M914.83,1303.0662 C948.96,1317.2063 985.96,1338.6063 1009,1369.9063 C1067.97,1450.0063 1060.59,1576.6963 1053.52,1633.5663 " fill="none" style="stroke: #A80036; stroke-width: 1.0;"/><polygon fill="#A80036" points="1052.83,1638.8463,1057.9542,1630.4354,1053.473,1633.8878,1050.0207,1629.4066,1052.83,1638.8463" style="stroke: #A80036; stroke-width: 1.0;"/><path d="M888.53,1427.0763 C918.64,1442.5263 954.57,1465.0863 979,1493.9063 C1014.32,1535.5863 1033.78,1597.5663 1042.75,1633.7463 " fill="none" style="stroke: #A80036; stroke-width: 1.0;"/><polygon fill="#A80036" points="1044,1638.8863,1045.7515,1629.1944,1042.8142,1634.0289,1037.9797,1631.0916,1044,1638.8863" style="stroke: #A80036; stroke-width: 1.0;"/><path d="M852.23,1558.0163 C893.94,1580.2563 955.75,1613.1963 998.93,1636.2163 " fill="none" style="stroke: #A80036; stroke-width: 1.0;"/><polygon fill="#A80036" points="1003.58,1638.6963,997.5251,1630.9285,999.1694,1636.3411,993.7568,1637.9854,1003.58,1638.6963" style="stroke: #A80036; stroke-width: 1.0;"/><path d="M1161.84,1179.1163 C1191.77,1249.9463 1267.84,1460.4063 1182,1597.9063 C1166.94,1622.0163 1140.07,1637.4363 1114.4,1647.1563 " fill="none" style="stroke: #A80036; stroke-width: 1.0;"/><polygon fill="#A80036" points="1109.62,1648.9063,1119.4475,1649.5538,1114.3127,1647.1804,1116.6861,1642.0455,1109.62,1648.9063" style="stroke: #A80036; stroke-width: 1.0;"/><path d="M1014.41,1689.0163 C987.68,1707.6463 950.68,1733.4363 922.92,1752.7863 " fill="none" style="stroke: #A80036; stroke-width: 1.0;"/><polygon fill="#A80036" points="918.54,1755.8263,928.2109,1753.9624,922.6422,1752.9676,923.637,1747.3989,918.54,1755.8263" style="stroke: #A80036; stroke-width: 1.0;"/><path d="M579.07,561.9563 C582,608.5963 587,699.5363 587,776.9063 C587,776.9063 587,776.9063 587,1533.9063 C587,1612.8763 568.61,1704.6063 558.12,1750.5363 " fill="none" style="stroke: #A80036; stroke-width: 1.0;"/><polygon fill="#A80036" points="556.94,1755.6363,562.8461,1747.7548,558.0549,1750.7621,555.0475,1745.9709,556.94,1755.6363" style="stroke: #A80036; stroke-width: 1.0;"/><path d="M331.69,1062.0063 C407.16,1100.5763 516,1174.0263 516,1276.9063 C516,1276.9063 516,1276.9063 516,1533.9063 C516,1612.8263 533.88,1704.5863 544.08,1750.5263 " fill="none" style="stroke: #A80036; stroke-width: 1.0;"/><polygon fill="#A80036" points="545.22,1755.6263,547.1394,1745.9662,544.1187,1750.749,539.3359,1747.7283,545.22,1755.6263" style="stroke: #A80036; stroke-width: 1.0;"/><path d="M318.17,1572.1063 C348.49,1588.1863 381.94,1608.6063 409,1631.9063 C453.39,1670.1363 447.82,1695.2463 490,1735.9063 C496,1741.6863 502.79,1747.3163 509.61,1752.5063 " fill="none" style="stroke: #A80036; stroke-width: 1.0;"/><polygon fill="#A80036" points="513.85,1755.6863,509.0353,1747.0945,509.8449,1752.6931,504.2463,1753.5027,513.85,1755.6863" style="stroke: #A80036; stroke-width: 1.0;"/><path d="M786.51,1558.0263 C752.49,1597.4063 681.32,1677.0163 613,1735.9063 C606.25,1741.7263 598.75,1747.5363 591.37,1752.9363 " fill="none" style="stroke: #A80036; stroke-width: 1.0;"/><polygon fill="#A80036" points="587.28,1755.8863,596.9139,1753.8398,591.3274,1752.9505,592.2167,1747.364,587.28,1755.8863" style="stroke: #A80036; stroke-width: 1.0;"/><path d="M307.25,1695.9663 C341.81,1708.5663 382.25,1723.1263 419,1735.9063 C436.31,1741.9263 454.95,1748.2463 472.62,1754.1463 " fill="none" style="stroke: #A80036; stroke-width: 1.0;"/><polygon fill="#A80036" points="477.57,1755.8063,470.3028,1749.1589,472.828,1754.2208,467.7661,1756.7461,477.57,1755.8063" style="stroke: #A80036; stroke-width: 1.0;"/><path d="M823.95,1805.9763 C770.65,1827.3463 696.61,1857.0263 666.05,1869.2763 " fill="none" style="stroke: #A80036; stroke-width: 1.0;"/><polygon fill="#A80036" points="661.2,1871.2163,671.0419,1871.5876,665.8424,1869.3593,668.0707,1864.1598,661.2,1871.2163" style="stroke: #A80036; stroke-width: 1.0;"/><path d="M577.27,1806.0963 C598,1825.1863 625.87,1850.8463 641.04,1864.8163 " fill="none" style="stroke: #A80036; stroke-width: 1.0;"/><polygon fill="#A80036" points="644.96,1868.4263,641.0555,1859.3844,641.2843,1865.0366,635.6321,1865.2655,644.96,1868.4263" style="stroke: #A80036; stroke-width: 1.0;"/></g></svg>