<?xml version="1.0" encoding="UTF-8" standalone="no"?><svg xmlns="http://www.w3.org/2000/svg" xmlns:xlink="http://www.w3.org/1999/xlink" contentScriptType="application/ecmascript" contentStyleType="text/css" height="948px" preserveAspectRatio="none" style="width:1399px;height:948px;" version="1.1" viewBox="0 0 1399 948" width="1399px" zoomAndPan="magnify"><defs><filter height="300%" id="fopfsj8" width="300%" x="-1" y="-1"><feGaussianBlur result="blurOut" stdDeviation="2.0"/><feColorMatrix in="blurOut" result="blurOut2" type="matrix" values="0 0 0 0 0 0 0 0 0 0 0 0 0 0 0 0 0 0 .4 0"/><feOffset dx="4.0" dy="4.0" in="blurOut2" result="blurOut3"/><feBlend in="SourceGraphic" in2="blurOut3" mode="normal"/></filter></defs><g><line style="stroke: #A80036; stroke-width: 1.0; stroke-dasharray: 5.0,5.0;" x1="72" x2="72" y1="38.2969" y2="910.3438"/><line style="stroke: #A80036; stroke-width: 1.0; stroke-dasharray: 5.0,5.0;" x1="220" x2="220" y1="38.2969" y2="910.3438"/><line style="stroke: #A80036; stroke-width: 1.0; stroke-dasharray: 5.0,5.0;" x1="386.5" x2="386.5" y1="38.2969" y2="910.3438"/><line style="stroke: #A80036; stroke-width: 1.0; stroke-dasharray: 5.0,5.0;" x1="541.5" x2="541.5" y1="38.2969" y2="910.3438"/><line style="stroke: #A80036; stroke-width: 1.0; stroke-dasharray: 5.0,5.0;" x1="820.5" x2="820.5" y1="38.2969" y2="910.3438"/><line style="stroke: #A80036; stroke-width: 1.0; stroke-dasharray: 5.0,5.0;" x1="1040.5" x2="1040.5" y1="38.2969" y2="910.3438"/><line style="stroke: #A80036; stroke-width: 1.0; stroke-dasharray: 5.0,5.0;" x1="1249" x2="1249" y1="38.2969" y2="910.3438"/><rect fill="#FEFECE" filter="url(#fopfsj8)" height="30.2969" style="stroke: #A80036; stroke-width: 1.5;" width="125" x="8" y="3"/><text fill="#000000" font-family="sans-serif" font-size="14" lengthAdjust="spacingAndGlyphs" textLength="111" x="15" y="22.9951">VoiceInterpreter</text><rect fill="#FEFECE" filter="url(#fopfsj8)" height="30.2969" style="stroke: #A80036; stroke-width: 1.5;" width="125" x="8" y="909.3438"/><text fill="#000000" font-family="sans-serif" font-size="14" lengthAdjust="spacingAndGlyphs" textLength="111" x="15" y="929.3389">VoiceInterpreter</text><rect fill="#FEFECE" filter="url(#fopfsj8)" height="30.2969" style="stroke: #A80036; stroke-width: 1.5;" width="142" x="147" y="3"/><text fill="#000000" font-family="sans-serif" font-size="14" lengthAdjust="spacingAndGlyphs" textLength="128" x="154" y="22.9951">ConferenceCenter</text><rect fill="#FEFECE" filter="url(#fopfsj8)" height="30.2969" style="stroke: #A80036; stroke-width: 1.5;" width="142" x="147" y="909.3438"/><text fill="#000000" font-family="sans-serif" font-size="14" lengthAdjust="spacingAndGlyphs" textLength="128" x="154" y="929.3389">ConferenceCenter</text><rect fill="#FEFECE" filter="url(#fopfsj8)" height="30.2969" style="stroke: #A80036; stroke-width: 1.5;" width="95" x="337.5" y="3"/><text fill="#000000" font-family="sans-serif" font-size="14" lengthAdjust="spacingAndGlyphs" textLength="81" x="344.5" y="22.9951">Conference</text><rect fill="#FEFECE" filter="url(#fopfsj8)" height="30.2969" style="stroke: #A80036; stroke-width: 1.5;" width="95" x="337.5" y="909.3438"/><text fill="#000000" font-family="sans-serif" font-size="14" lengthAdjust="spacingAndGlyphs" textLength="81" x="344.5" y="929.3389">Conference</text><rect fill="#FEFECE" filter="url(#fopfsj8)" height="30.2969" style="stroke: #A80036; stroke-width: 1.5;" width="183" x="448.5" y="3"/><text fill="#000000" font-family="sans-serif" font-size="14" lengthAdjust="spacingAndGlyphs" textLength="169" x="455.5" y="22.9951">MSConferenceController</text><rect fill="#FEFECE" filter="url(#fopfsj8)" height="30.2969" style="stroke: #A80036; stroke-width: 1.5;" width="183" x="448.5" y="909.3438"/><text fill="#000000" font-family="sans-serif" font-size="14" lengthAdjust="spacingAndGlyphs" textLength="169" x="455.5" y="929.3389">MSConferenceController</text><rect fill="#FEFECE" filter="url(#fopfsj8)" height="30.2969" style="stroke: #A80036; stroke-width: 1.5;" width="159" x="739.5" y="3"/><text fill="#000000" font-family="sans-serif" font-size="14" lengthAdjust="spacingAndGlyphs" textLength="145" x="746.5" y="22.9951">MediaRsourceBroker</text><rect fill="#FEFECE" filter="url(#fopfsj8)" height="30.2969" style="stroke: #A80036; stroke-width: 1.5;" width="159" x="739.5" y="909.3438"/><text fill="#000000" font-family="sans-serif" font-size="14" lengthAdjust="spacingAndGlyphs" textLength="145" x="746.5" y="929.3389">MediaRsourceBroker</text><rect fill="#FEFECE" filter="url(#fopfsj8)" height="30.2969" style="stroke: #A80036; stroke-width: 1.5;" width="45" x="1016.5" y="3"/><text fill="#000000" font-family="sans-serif" font-size="14" lengthAdjust="spacingAndGlyphs" textLength="31" x="1023.5" y="22.9951">DAO</text><rect fill="#FEFECE" filter="url(#fopfsj8)" height="30.2969" style="stroke: #A80036; stroke-width: 1.5;" width="45" x="1016.5" y="909.3438"/><text fill="#000000" font-family="sans-serif" font-size="14" lengthAdjust="spacingAndGlyphs" textLength="31" x="1023.5" y="929.3389">DAO</text><rect fill="#FEFECE" filter="url(#fopfsj8)" height="30.2969" style="stroke: #A80036; stroke-width: 1.5;" width="270" x="1112" y="3"/><text fill="#000000" font-family="sans-serif" font-size="14" lengthAdjust="spacingAndGlyphs" textLength="256" x="1119" y="22.9951">ConferenceMediaResourceController</text><rect fill="#FEFECE" filter="url(#fopfsj8)" height="30.2969" style="stroke: #A80036; stroke-width: 1.5;" width="270" x="1112" y="909.3438"/><text fill="#000000" font-family="sans-serif" font-size="14" lengthAdjust="spacingAndGlyphs" textLength="256" x="1119" y="929.3389">ConferenceMediaResourceController</text><polygon fill="#A80036" points="208,80.2969,218,84.2969,208,88.2969,212,84.2969" style="stroke: #A80036; stroke-width: 1.0;"/><line style="stroke: #A80036; stroke-width: 1.0;" x1="72.5" x2="214" y1="84.2969" y2="84.2969"/><text fill="#000000" font-family="sans-serif" font-size="13" lengthAdjust="spacingAndGlyphs" textLength="116" x="79.5" y="64.3638">CreateConference</text><text fill="#000000" font-family="sans-serif" font-size="13" lengthAdjust="spacingAndGlyphs" textLength="120" x="79.5" y="79.4966">(conferenceName)</text><line style="stroke: #A80036; stroke-width: 1.0;" x1="220" x2="262" y1="143.9609" y2="143.9609"/><line style="stroke: #A80036; stroke-width: 1.0;" x1="262" x2="262" y1="143.9609" y2="156.9609"/><line style="stroke: #A80036; stroke-width: 1.0;" x1="221" x2="262" y1="156.9609" y2="156.9609"/><polygon fill="#A80036" points="231,152.9609,221,156.9609,231,160.9609,227,156.9609" style="stroke: #A80036; stroke-width: 1.0;"/><text fill="#000000" font-family="sans-serif" font-size="13" lengthAdjust="spacingAndGlyphs" textLength="153" x="227" y="108.6294">create conference actor</text><text fill="#000000" font-family="sans-serif" font-size="13" lengthAdjust="spacingAndGlyphs" textLength="58" x="227" y="123.7622">providing</text><text fill="#000000" font-family="sans-serif" font-size="13" lengthAdjust="spacingAndGlyphs" textLength="110" x="227" y="138.895">conferenceName</text><polygon fill="#A80036" points="375,181.9609,385,185.9609,375,189.9609,379,185.9609" style="stroke: #A80036; stroke-width: 1.0;"/><line style="stroke: #A80036; stroke-width: 1.0;" x1="220" x2="381" y1="185.9609" y2="185.9609"/><text fill="#000000" font-family="sans-serif" font-size="13" lengthAdjust="spacingAndGlyphs" textLength="105" x="227" y="181.0278">StartConference</text><polygon fill="#A80036" points="530,226.0938,540,230.0938,530,234.0938,534,230.0938" style="stroke: #A80036; stroke-width: 1.0;"/><line style="stroke: #A80036; stroke-width: 1.0;" x1="387" x2="536" y1="230.0938" y2="230.0938"/><text fill="#000000" font-family="sans-serif" font-size="13" lengthAdjust="spacingAndGlyphs" textLength="131" x="394" y="210.1606">CreateMediaSession</text><text fill="#000000" font-family="sans-serif" font-size="13" lengthAdjust="spacingAndGlyphs" textLength="120" x="394" y="225.2935">(conferenceName)</text><polygon fill="#A80036" points="809,270.3594,819,274.3594,809,278.3594,813,274.3594" style="stroke: #A80036; stroke-width: 1.0;"/><line style="stroke: #A80036; stroke-width: 1.0;" x1="542" x2="815" y1="274.3594" y2="274.3594"/><text fill="#000000" font-family="sans-serif" font-size="13" lengthAdjust="spacingAndGlyphs" textLength="116" x="549" y="254.4263">GetMediaGateway</text><text fill="#000000" font-family="sans-serif" font-size="13" lengthAdjust="spacingAndGlyphs" textLength="120" x="549" y="269.5591">(conferenceName)</text><polygon fill="#A80036" points="1029,420.625,1039,424.625,1029,428.625,1033,424.625" style="stroke: #A80036; stroke-width: 1.0;"/><line style="stroke: #A80036; stroke-width: 1.0;" x1="821" x2="1035" y1="424.625" y2="424.625"/><text fill="#000000" font-family="sans-serif" font-size="13" lengthAdjust="spacingAndGlyphs" textLength="192" x="828" y="298.6919">*addConferenceDetailRecord*</text><text fill="#000000" font-family="sans-serif" font-size="13" lengthAdjust="spacingAndGlyphs" textLength="110" x="828" y="313.8247">this step involves</text><text fill="#000000" font-family="sans-serif" font-size="13" lengthAdjust="spacingAndGlyphs" textLength="184" x="828" y="328.9575">calling select-or-insert based</text><text fill="#000000" font-family="sans-serif" font-size="13" lengthAdjust="spacingAndGlyphs" textLength="167" x="828" y="344.0903">stored procedure to make</text><text fill="#000000" font-family="sans-serif" font-size="13" lengthAdjust="spacingAndGlyphs" textLength="154" x="828" y="359.2231">sure if this DB operation</text><text fill="#000000" font-family="sans-serif" font-size="13" lengthAdjust="spacingAndGlyphs" textLength="195" x="828" y="374.356">is called by multiple restcomm</text><text fill="#000000" font-family="sans-serif" font-size="13" lengthAdjust="spacingAndGlyphs" textLength="184" x="828" y="389.4888">instances, at the same time,</text><text fill="#000000" font-family="sans-serif" font-size="13" lengthAdjust="spacingAndGlyphs" textLength="185" x="828" y="404.6216">only one of them is succesful</text><text fill="#000000" font-family="sans-serif" font-size="13" lengthAdjust="spacingAndGlyphs" textLength="189" x="828" y="419.7544">to insert a conference record.</text><line style="stroke: #A80036; stroke-width: 1.0;" x1="1041" x2="1083" y1="499.3516" y2="499.3516"/><line style="stroke: #A80036; stroke-width: 1.0;" x1="1083" x2="1083" y1="499.3516" y2="512.3516"/><line style="stroke: #A80036; stroke-width: 1.0;" x1="1042" x2="1083" y1="512.3516" y2="512.3516"/><polygon fill="#A80036" points="1052,508.3516,1042,512.3516,1052,516.3516,1048,512.3516" style="stroke: #A80036; stroke-width: 1.0;"/><text fill="#000000" font-family="sans-serif" font-size="13" lengthAdjust="spacingAndGlyphs" textLength="161" x="1048" y="448.8872">if a conference with given</text><text fill="#000000" font-family="sans-serif" font-size="13" lengthAdjust="spacingAndGlyphs" textLength="162" x="1048" y="464.02">conferenceName is in DB</text><text fill="#000000" font-family="sans-serif" font-size="13" lengthAdjust="spacingAndGlyphs" textLength="114" x="1048" y="479.1528">with running state</text><text fill="#000000" font-family="sans-serif" font-size="13" lengthAdjust="spacingAndGlyphs" textLength="194" x="1048" y="494.2856">return it\or insert a new record</text><polygon fill="#A80036" points="1029,552.3516,1039,556.3516,1029,560.3516,1033,556.3516" style="stroke: #A80036; stroke-width: 1.0;"/><line style="stroke: #A80036; stroke-width: 1.0;" x1="821" x2="1035" y1="556.3516" y2="556.3516"/><text fill="#000000" font-family="sans-serif" font-size="13" lengthAdjust="spacingAndGlyphs" textLength="96" x="828" y="536.4185">GetConference</text><text fill="#000000" font-family="sans-serif" font-size="13" lengthAdjust="spacingAndGlyphs" textLength="0" x="832" y="551.5513"/><polygon fill="#A80036" points="832,581.6172,822,585.6172,832,589.6172,828,585.6172" style="stroke: #A80036; stroke-width: 1.0;"/><line style="stroke: #A80036; stroke-width: 1.0;" x1="826" x2="1040" y1="585.6172" y2="585.6172"/><text fill="#000000" font-family="sans-serif" font-size="13" lengthAdjust="spacingAndGlyphs" textLength="121" x="838" y="580.6841">Conference Record</text><polygon fill="#A80036" points="553,625.75,543,629.75,553,633.75,549,629.75" style="stroke: #A80036; stroke-width: 1.0;"/><line style="stroke: #A80036; stroke-width: 1.0;" x1="547" x2="820" y1="629.75" y2="629.75"/><text fill="#000000" font-family="sans-serif" font-size="13" lengthAdjust="spacingAndGlyphs" textLength="186" x="559" y="609.8169">MediaGatewayForConference</text><text fill="#000000" font-family="sans-serif" font-size="13" lengthAdjust="spacingAndGlyphs" textLength="231" x="559" y="624.9497">(conferenceSid, localMediaGateway)</text><polygon fill="#A80036" points="809,655.0156,819,659.0156,809,663.0156,813,659.0156" style="stroke: #A80036; stroke-width: 1.0;"/><line style="stroke: #A80036; stroke-width: 1.0;" x1="542" x2="815" y1="659.0156" y2="659.0156"/><text fill="#000000" font-family="sans-serif" font-size="13" lengthAdjust="spacingAndGlyphs" textLength="255" x="549" y="654.0825">GetConferenceMediaResourceController</text><polygon fill="#A80036" points="553,699.1484,543,703.1484,553,707.1484,549,703.1484" style="stroke: #A80036; stroke-width: 1.0;"/><line style="stroke: #A80036; stroke-width: 1.0;" x1="547" x2="820" y1="703.1484" y2="703.1484"/><text fill="#000000" font-family="sans-serif" font-size="13" lengthAdjust="spacingAndGlyphs" textLength="78" x="559" y="683.2153">new actor of</text><text fill="#000000" font-family="sans-serif" font-size="13" lengthAdjust="spacingAndGlyphs" textLength="232" x="559" y="698.3481">ConferenceMediaResourceController</text><polygon fill="#A80036" points="1237,728.4141,1247,732.4141,1237,736.4141,1241,732.4141" style="stroke: #A80036; stroke-width: 1.0;"/><line style="stroke: #A80036; stroke-width: 1.0;" x1="542" x2="1243" y1="732.4141" y2="732.4141"/><text fill="#000000" font-family="sans-serif" font-size="13" lengthAdjust="spacingAndGlyphs" textLength="105" x="549" y="727.481">StartConference</text><line style="stroke: #A80036; stroke-width: 1.0;" x1="1249" x2="1291" y1="791.9453" y2="791.9453"/><line style="stroke: #A80036; stroke-width: 1.0;" x1="1291" x2="1291" y1="791.9453" y2="804.9453"/><line style="stroke: #A80036; stroke-width: 1.0;" x1="1250" x2="1291" y1="804.9453" y2="804.9453"/><polygon fill="#A80036" points="1260,800.9453,1250,804.9453,1260,808.9453,1256,804.9453" style="stroke: #A80036; stroke-width: 1.0;"/><text fill="#000000" font-family="sans-serif" font-size="13" lengthAdjust="spacingAndGlyphs" textLength="85" x="1256" y="756.6138">create media</text><text fill="#000000" font-family="sans-serif" font-size="13" lengthAdjust="spacingAndGlyphs" textLength="142" x="1256" y="771.7466">connections explained</text><text fill="#000000" font-family="sans-serif" font-size="13" lengthAdjust="spacingAndGlyphs" textLength="96" x="1256" y="786.8794">later in the doc</text><polygon fill="#A80036" points="553,829.9453,543,833.9453,553,837.9453,549,833.9453" style="stroke: #A80036; stroke-width: 1.0;"/><line style="stroke: #A80036; stroke-width: 1.0;" x1="547" x2="1248" y1="833.9453" y2="833.9453"/><text fill="#000000" font-family="sans-serif" font-size="13" lengthAdjust="spacingAndGlyphs" textLength="45" x="559" y="829.0122">ACTIVE</text><polygon fill="#A80036" points="398,859.0781,388,863.0781,398,867.0781,394,863.0781" style="stroke: #A80036; stroke-width: 1.0;"/><line style="stroke: #A80036; stroke-width: 1.0;" x1="392" x2="541" y1="863.0781" y2="863.0781"/><text fill="#000000" font-family="sans-serif" font-size="13" lengthAdjust="spacingAndGlyphs" textLength="45" x="404" y="858.145">ACTIVE</text><polygon fill="#A80036" points="83.5,888.2109,73.5,892.2109,83.5,896.2109,79.5,892.2109" style="stroke: #A80036; stroke-width: 1.0;"/><line style="stroke: #A80036; stroke-width: 1.0;" x1="77.5" x2="386" y1="892.2109" y2="892.2109"/><text fill="#000000" font-family="sans-serif" font-size="13" lengthAdjust="spacingAndGlyphs" textLength="191" x="89.5" y="887.2778">Conference is RUNNING now!!</text></g></svg>