<?xml version="1.0" encoding="UTF-8" standalone="no"?><svg xmlns="http://www.w3.org/2000/svg" xmlns:xlink="http://www.w3.org/1999/xlink" contentScriptType="application/ecmascript" contentStyleType="text/css" height="1892px" preserveAspectRatio="none" style="width:1194px;height:1892px;" version="1.1" viewBox="0 0 1194 1892" width="1194px" zoomAndPan="magnify"><defs><filter height="300%" id="fpviczb" width="300%" x="-1" y="-1"><feGaussianBlur result="blurOut" stdDeviation="2.0"/><feColorMatrix in="blurOut" result="blurOut2" type="matrix" values="0 0 0 0 0 0 0 0 0 0 0 0 0 0 0 0 0 0 .4 0"/><feOffset dx="4.0" dy="4.0" in="blurOut2" result="blurOut3"/><feBlend in="SourceGraphic" in2="blurOut3" mode="normal"/></filter></defs><g><text fill="#000000" font-family="sans-serif" font-size="18" lengthAdjust="spacingAndGlyphs" textLength="370" x="420.5" y="16.708">ConferenceMediaResourceController FSM</text><text fill="#000000" font-family="sans-serif" font-size="18" lengthAdjust="spacingAndGlyphs" textLength="187" x="512" y="37.6611">for Slave Conference</text><!--cluster ConnectWithMasterConference--><rect fill="#FEFECE" filter="url(#fpviczb)" height="1392" rx="12.5" ry="12.5" style="stroke: #A80036; stroke-width: 1.5;" width="418" x="82" y="327.9063"/><rect fill="#FFFFFF" height="1312.7969" rx="12.5" ry="12.5" style="stroke: #FFFFFF; stroke-width: 1.0;" width="412" x="85" y="404.1094"/><line style="stroke: #A80036; stroke-width: 1.5;" x1="82" x2="500" y1="401.1094" y2="401.1094"/><line style="stroke: #A80036; stroke-width: 1.5;" x1="82" x2="500" y1="354.2031" y2="354.2031"/><text fill="#000000" font-family="sans-serif" font-size="14" lengthAdjust="spacingAndGlyphs" textLength="217" x="128" y="344.9014">ConnectWithMasterConference</text><text fill="#000000" font-family="sans-serif" font-size="12" lengthAdjust="spacingAndGlyphs" textLength="290" x="87" y="367.8418">following steps are reposible for creating local</text><text fill="#000000" font-family="sans-serif" font-size="12" lengthAdjust="spacingAndGlyphs" textLength="284" x="87" y="381.8105">conference ep (on slave mediaserver) as well</text><text fill="#000000" font-family="sans-serif" font-size="12" lengthAdjust="spacingAndGlyphs" textLength="326" x="87" y="395.7793">connecting them with master  conference endpoint.</text><!--cluster unMuteMaster--><rect fill="#FEFECE" filter="url(#fpviczb)" height="624" rx="12.5" ry="12.5" style="stroke: #A80036; stroke-width: 1.5;" width="416" x="587" y="957.9063"/><rect fill="#FFFFFF" height="572.7344" rx="12.5" ry="12.5" style="stroke: #FFFFFF; stroke-width: 1.0;" width="410" x="590" y="1006.1719"/><line style="stroke: #A80036; stroke-width: 1.5;" x1="587" x2="1003" y1="1003.1719" y2="1003.1719"/><line style="stroke: #A80036; stroke-width: 1.5;" x1="587" x2="1003" y1="984.2031" y2="984.2031"/><text fill="#000000" font-family="sans-serif" font-size="14" lengthAdjust="spacingAndGlyphs" textLength="100" x="605" y="974.9014">unMuteMaster</text><text fill="#000000" font-family="sans-serif" font-size="12" lengthAdjust="spacingAndGlyphs" textLength="380" x="592" y="997.8418">following states are executed under a very special use case.</text><ellipse cx="261" cy="427.9063" fill="#000000" filter="url(#fpviczb)" rx="10" ry="10" style="stroke: none; stroke-width: 1.0;"/><rect fill="#FEFECE" filter="url(#fpviczb)" height="50.2656" rx="12.5" ry="12.5" style="stroke: #A80036; stroke-width: 1.5;" width="282" x="120" y="504.9063"/><line style="stroke: #A80036; stroke-width: 1.5;" x1="120" x2="402" y1="531.2031" y2="531.2031"/><text fill="#000000" font-family="sans-serif" font-size="14" lengthAdjust="spacingAndGlyphs" textLength="210" x="156" y="522.9014">acquiringMasterMediaGateway</text><text fill="#000000" font-family="sans-serif" font-size="12" lengthAdjust="spacingAndGlyphs" textLength="262" x="125" y="547.3418">get master mediagateway-actor from MRB</text><rect fill="#FEFECE" filter="url(#fpviczb)" height="64.2344" rx="12.5" ry="12.5" style="stroke: #A80036; stroke-width: 1.5;" width="277" x="122.5" y="621.9063"/><line style="stroke: #A80036; stroke-width: 1.5;" x1="122.5" x2="399.5" y1="648.2031" y2="648.2031"/><text fill="#000000" font-family="sans-serif" font-size="14" lengthAdjust="spacingAndGlyphs" textLength="257" x="132.5" y="639.9014">acquiringMediaSessionWithMasterMS</text><text fill="#000000" font-family="sans-serif" font-size="12" lengthAdjust="spacingAndGlyphs" textLength="179" x="127.5" y="664.3418">get mediasession(unique id)</text><text fill="#000000" font-family="sans-serif" font-size="12" lengthAdjust="spacingAndGlyphs" textLength="180" x="127.5" y="678.3105">from (master) mediagateway</text><rect fill="#FEFECE" filter="url(#fpviczb)" height="64.2344" rx="12.5" ry="12.5" style="stroke: #A80036; stroke-width: 1.5;" width="304" x="109" y="745.9063"/><line style="stroke: #A80036; stroke-width: 1.5;" x1="109" x2="413" y1="772.2031" y2="772.2031"/><text fill="#000000" font-family="sans-serif" font-size="14" lengthAdjust="spacingAndGlyphs" textLength="284" x="119" y="763.9014">acquiringRemoteConnectionWithLocalMS</text><text fill="#000000" font-family="sans-serif" font-size="12" lengthAdjust="spacingAndGlyphs" textLength="165" x="114" y="788.3418">get Connection-actor from</text><text fill="#000000" font-family="sans-serif" font-size="12" lengthAdjust="spacingAndGlyphs" textLength="123" x="114" y="802.3105">local mediagateway</text><rect fill="#FEFECE" filter="url(#fpviczb)" height="64.2344" rx="12.5" ry="12.5" style="stroke: #A80036; stroke-width: 1.5;" width="307" x="107.5" y="869.9063"/><line style="stroke: #A80036; stroke-width: 1.5;" x1="107.5" x2="414.5" y1="896.2031" y2="896.2031"/><text fill="#000000" font-family="sans-serif" font-size="14" lengthAdjust="spacingAndGlyphs" textLength="287" x="117.5" y="887.9014">initializingRemoteConnectionWithLocalMS</text><text fill="#000000" font-family="sans-serif" font-size="12" lengthAdjust="spacingAndGlyphs" textLength="160" x="112.5" y="912.3418">initialize connection-actor</text><text fill="#000000" font-family="sans-serif" font-size="12" lengthAdjust="spacingAndGlyphs" textLength="230" x="112.5" y="926.3105">with local conference-endpoint-actor</text><rect fill="#FEFECE" filter="url(#fpviczb)" height="64.2344" rx="12.5" ry="12.5" style="stroke: #A80036; stroke-width: 1.5;" width="298" x="112" y="997.9063"/><line style="stroke: #A80036; stroke-width: 1.5;" x1="112" x2="410" y1="1024.2031" y2="1024.2031"/><text fill="#000000" font-family="sans-serif" font-size="14" lengthAdjust="spacingAndGlyphs" textLength="278" x="122" y="1015.9014">openingRemoteConnectionWithLocalMS</text><text fill="#000000" font-family="sans-serif" font-size="12" lengthAdjust="spacingAndGlyphs" textLength="175" x="117" y="1040.3418">MGCP CRCX cnf/?@localRMS.</text><text fill="#000000" font-family="sans-serif" font-size="12" lengthAdjust="spacingAndGlyphs" textLength="216" x="117" y="1054.3105">get SDP of local/slave-mediaserver</text><rect fill="#FEFECE" filter="url(#fpviczb)" height="64.2344" rx="12.5" ry="12.5" style="stroke: #A80036; stroke-width: 1.5;" width="273" x="126.5" y="1121.9063"/><line style="stroke: #A80036; stroke-width: 1.5;" x1="126.5" x2="399.5" y1="1148.2031" y2="1148.2031"/><text fill="#000000" font-family="sans-serif" font-size="14" lengthAdjust="spacingAndGlyphs" textLength="253" x="136.5" y="1139.9014">acquiringMasterConferenceEndpoint</text><text fill="#000000" font-family="sans-serif" font-size="12" lengthAdjust="spacingAndGlyphs" textLength="193" x="131.5" y="1164.3418">get conference-endpoint-actor</text><text fill="#000000" font-family="sans-serif" font-size="12" lengthAdjust="spacingAndGlyphs" textLength="211" x="131.5" y="1178.3105">from master-mediagateway-actor.</text><rect fill="#FEFECE" filter="url(#fpviczb)" height="64.2344" rx="12.5" ry="12.5" style="stroke: #A80036; stroke-width: 1.5;" width="316" x="107" y="1245.9063"/><line style="stroke: #A80036; stroke-width: 1.5;" x1="107" x2="423" y1="1272.2031" y2="1272.2031"/><text fill="#000000" font-family="sans-serif" font-size="14" lengthAdjust="spacingAndGlyphs" textLength="296" x="117" y="1263.9014">acquiringRemoteConnectionWithMasterMS</text><text fill="#000000" font-family="sans-serif" font-size="12" lengthAdjust="spacingAndGlyphs" textLength="165" x="112" y="1288.3418">get Connection-actor from</text><text fill="#000000" font-family="sans-serif" font-size="12" lengthAdjust="spacingAndGlyphs" textLength="138" x="112" y="1302.3105">master mediagateway</text><rect fill="#FEFECE" filter="url(#fpviczb)" height="64.2344" rx="12.5" ry="12.5" style="stroke: #A80036; stroke-width: 1.5;" width="319" x="116.5" y="1369.9063"/><line style="stroke: #A80036; stroke-width: 1.5;" x1="116.5" x2="435.5" y1="1396.2031" y2="1396.2031"/><text fill="#000000" font-family="sans-serif" font-size="14" lengthAdjust="spacingAndGlyphs" textLength="299" x="126.5" y="1387.9014">initializingRemoteConnectionWithMasterMS</text><text fill="#000000" font-family="sans-serif" font-size="12" lengthAdjust="spacingAndGlyphs" textLength="160" x="121.5" y="1412.3418">initialize connection-actor</text><text fill="#000000" font-family="sans-serif" font-size="12" lengthAdjust="spacingAndGlyphs" textLength="245" x="121.5" y="1426.3105">with master conference-endpoint-actor</text><rect fill="#FEFECE" filter="url(#fpviczb)" height="78.2031" rx="12.5" ry="12.5" style="stroke: #A80036; stroke-width: 1.5;" width="362" x="106" y="1493.9063"/><line style="stroke: #A80036; stroke-width: 1.5;" x1="106" x2="468" y1="1520.2031" y2="1520.2031"/><text fill="#000000" font-family="sans-serif" font-size="14" lengthAdjust="spacingAndGlyphs" textLength="290" x="142" y="1511.9014">openingRemoteConnectionWithMasterMS</text><text fill="#000000" font-family="sans-serif" font-size="12" lengthAdjust="spacingAndGlyphs" textLength="219" x="111" y="1536.3418">MGCP/SDP CRCX cnf/?@masterRMS.</text><text fill="#000000" font-family="sans-serif" font-size="12" lengthAdjust="spacingAndGlyphs" textLength="342" x="111" y="1550.3105">pass SDP of slave media-server to master-mediaserver</text><text fill="#000000" font-family="sans-serif" font-size="12" lengthAdjust="spacingAndGlyphs" textLength="195" x="111" y="1564.2793">get SDP of master-mediaserver</text><rect fill="#FEFECE" filter="url(#fpviczb)" height="64.2344" rx="12.5" ry="12.5" style="stroke: #A80036; stroke-width: 1.5;" width="337" x="130.5" y="1631.9063"/><line style="stroke: #A80036; stroke-width: 1.5;" x1="130.5" x2="467.5" y1="1658.2031" y2="1658.2031"/><text fill="#000000" font-family="sans-serif" font-size="14" lengthAdjust="spacingAndGlyphs" textLength="282" x="158" y="1649.9014">updatingRemoteConnectionWithLocalMS</text><text fill="#000000" font-family="sans-serif" font-size="12" lengthAdjust="spacingAndGlyphs" textLength="207" x="135.5" y="1674.3418">MGCP/SDP MDCX cnf/?@localRMS.</text><text fill="#000000" font-family="sans-serif" font-size="12" lengthAdjust="spacingAndGlyphs" textLength="317" x="135.5" y="1688.3105">modify connection with SDP of master-mediaserver</text><ellipse cx="829" cy="1029.9063" fill="#000000" filter="url(#fpviczb)" rx="10" ry="10" style="stroke: none; stroke-width: 1.0;"/><rect fill="#FEFECE" filter="url(#fpviczb)" height="50.2656" rx="12.5" ry="12.5" style="stroke: #A80036; stroke-width: 1.5;" width="237" x="710.5" y="1128.9063"/><line style="stroke: #A80036; stroke-width: 1.5;" x1="710.5" x2="947.5" y1="1155.2031" y2="1155.2031"/><text fill="#000000" font-family="sans-serif" font-size="14" lengthAdjust="spacingAndGlyphs" textLength="217" x="720.5" y="1146.9014">acquiringMasterBridgeEndpoint</text><text fill="#000000" font-family="sans-serif" font-size="12" lengthAdjust="spacingAndGlyphs" textLength="122" x="715.5" y="1171.3418">create bridge-actor</text><rect fill="#FEFECE" filter="url(#fpviczb)" height="50.2656" rx="12.5" ry="12.5" style="stroke: #A80036; stroke-width: 1.5;" width="361" x="618.5" y="1252.9063"/><line style="stroke: #A80036; stroke-width: 1.5;" x1="618.5" x2="979.5" y1="1279.2031" y2="1279.2031"/><text fill="#000000" font-family="sans-serif" font-size="14" lengthAdjust="spacingAndGlyphs" textLength="341" x="628.5" y="1270.9014">acquiringRemoteConnectionWithMasterBridgeMS</text><text fill="#000000" font-family="sans-serif" font-size="12" lengthAdjust="spacingAndGlyphs" textLength="152" x="623.5" y="1295.3418">create connection-actor</text><rect fill="#FEFECE" filter="url(#fpviczb)" height="50.2656" rx="12.5" ry="12.5" style="stroke: #A80036; stroke-width: 1.5;" width="317" x="640.5" y="1376.9063"/><line style="stroke: #A80036; stroke-width: 1.5;" x1="640.5" x2="957.5" y1="1403.2031" y2="1403.2031"/><text fill="#000000" font-family="sans-serif" font-size="14" lengthAdjust="spacingAndGlyphs" textLength="297" x="650.5" y="1394.9014">initializingRemoteConnectionWithBridgeMS</text><text fill="#000000" font-family="sans-serif" font-size="12" lengthAdjust="spacingAndGlyphs" textLength="269" x="645.5" y="1419.3418">introduce bridge-actor to connection-actor</text><rect fill="#FEFECE" filter="url(#fpviczb)" height="50.2656" rx="12.5" ry="12.5" style="stroke: #A80036; stroke-width: 1.5;" width="308" x="619" y="1507.9063"/><line style="stroke: #A80036; stroke-width: 1.5;" x1="619" x2="927" y1="1534.2031" y2="1534.2031"/><text fill="#000000" font-family="sans-serif" font-size="14" lengthAdjust="spacingAndGlyphs" textLength="288" x="629" y="1525.9014">openingRemoteConnectionWithBridgeMS</text><text fill="#000000" font-family="sans-serif" font-size="12" lengthAdjust="spacingAndGlyphs" textLength="236" x="624" y="1550.3418">MGCP CRCX with bridge/?@masterRMS</text><ellipse cx="537" cy="59.9063" fill="#000000" filter="url(#fpviczb)" rx="10" ry="10" style="stroke: none; stroke-width: 1.0;"/><rect fill="#FEFECE" filter="url(#fpviczb)" height="50" rx="12.5" ry="12.5" style="stroke: #A80036; stroke-width: 1.5;" width="101" x="486.5" y="129.9063"/><line style="stroke: #A80036; stroke-width: 1.5;" x1="486.5" x2="587.5" y1="156.2031" y2="156.2031"/><text fill="#000000" font-family="sans-serif" font-size="14" lengthAdjust="spacingAndGlyphs" textLength="81" x="496.5" y="147.9014">uninitialized</text><rect fill="#FEFECE" filter="url(#fpviczb)" height="64.2344" rx="12.5" ry="12.5" style="stroke: #A80036; stroke-width: 1.5;" width="189" x="442.5" y="239.9063"/><line style="stroke: #A80036; stroke-width: 1.5;" x1="442.5" x2="631.5" y1="266.2031" y2="266.2031"/><text fill="#000000" font-family="sans-serif" font-size="14" lengthAdjust="spacingAndGlyphs" textLength="169" x="452.5" y="257.9014">acquiringConferenceInfo</text><text fill="#000000" font-family="sans-serif" font-size="12" lengthAdjust="spacingAndGlyphs" textLength="96" x="447.5" y="282.3418">get conference</text><text fill="#000000" font-family="sans-serif" font-size="12" lengthAdjust="spacingAndGlyphs" textLength="94" x="447.5" y="296.3105">record from DB</text><rect fill="#FEFECE" filter="url(#fpviczb)" height="64.2344" rx="12.5" ry="12.5" style="stroke: #A80036; stroke-width: 1.5;" width="189" x="524.5" y="497.9063"/><line style="stroke: #A80036; stroke-width: 1.5;" x1="524.5" x2="713.5" y1="524.2031" y2="524.2031"/><text fill="#000000" font-family="sans-serif" font-size="14" lengthAdjust="spacingAndGlyphs" textLength="140" x="549" y="515.9014">creatingMediaGroup</text><text fill="#000000" font-family="sans-serif" font-size="12" lengthAdjust="spacingAndGlyphs" textLength="169" x="529.5" y="540.3418">create a mediagroup actor</text><text fill="#000000" font-family="sans-serif" font-size="12" lengthAdjust="spacingAndGlyphs" textLength="130" x="529.5" y="554.3105">pointing to masterivr</text><rect fill="#FEFECE" filter="url(#fpviczb)" height="50.2656" rx="12.5" ry="12.5" style="stroke: #A80036; stroke-width: 1.5;" width="164" x="595" y="876.9063"/><line style="stroke: #A80036; stroke-width: 1.5;" x1="595" x2="759" y1="903.2031" y2="903.2031"/><text fill="#000000" font-family="sans-serif" font-size="14" lengthAdjust="spacingAndGlyphs" textLength="40" x="657" y="894.9014">active</text><text fill="#000000" font-family="sans-serif" font-size="12" lengthAdjust="spacingAndGlyphs" textLength="144" x="600" y="919.3418">broadcast being active</text><rect fill="#FEFECE" filter="url(#fpviczb)" height="50.2656" rx="12.5" ry="12.5" style="stroke: #A80036; stroke-width: 1.5;" width="175" x="791.5" y="1755.9063"/><line style="stroke: #A80036; stroke-width: 1.5;" x1="791.5" x2="966.5" y1="1782.2031" y2="1782.2031"/><text fill="#000000" font-family="sans-serif" font-size="14" lengthAdjust="spacingAndGlyphs" textLength="52" x="853" y="1773.9014">inactive</text><text fill="#000000" font-family="sans-serif" font-size="12" lengthAdjust="spacingAndGlyphs" textLength="155" x="796.5" y="1798.3418">broadcast being inactive</text><rect fill="#FEFECE" filter="url(#fpviczb)" height="50.2656" rx="12.5" ry="12.5" style="stroke: #A80036; stroke-width: 1.5;" width="161" x="339.5" y="1755.9063"/><line style="stroke: #A80036; stroke-width: 1.5;" x1="339.5" x2="500.5" y1="1782.2031" y2="1782.2031"/><text fill="#000000" font-family="sans-serif" font-size="14" lengthAdjust="spacingAndGlyphs" textLength="36" x="402" y="1773.9014">failed</text><text fill="#000000" font-family="sans-serif" font-size="12" lengthAdjust="spacingAndGlyphs" textLength="141" x="344.5" y="1798.3418">broadcast being failed</text><rect fill="#FEFECE" filter="url(#fpviczb)" height="50.2656" rx="12.5" ry="12.5" style="stroke: #A80036; stroke-width: 1.5;" width="121" x="954.5" y="1638.9063"/><line style="stroke: #A80036; stroke-width: 1.5;" x1="954.5" x2="1075.5" y1="1665.2031" y2="1665.2031"/><text fill="#000000" font-family="sans-serif" font-size="14" lengthAdjust="spacingAndGlyphs" textLength="61" x="984.5" y="1656.9014">stopping</text><text fill="#000000" font-family="sans-serif" font-size="12" lengthAdjust="spacingAndGlyphs" textLength="101" x="959.5" y="1681.3418">clean resources</text><rect fill="#FEFECE" filter="url(#fpviczb)" height="50" rx="12.5" ry="12.5" style="stroke: #A80036; stroke-width: 1.5;" width="84" x="615" y="752.9063"/><line style="stroke: #A80036; stroke-width: 1.5;" x1="615" x2="699" y1="779.2031" y2="779.2031"/><text fill="#000000" font-family="sans-serif" font-size="14" lengthAdjust="spacingAndGlyphs" textLength="64" x="625" y="770.9014">preActive</text><ellipse cx="649" cy="1875.9063" fill="none" filter="url(#fpviczb)" rx="10" ry="10" style="stroke: #000000; stroke-width: 1.0;"/><ellipse cx="649.5" cy="1876.4063" fill="#000000" rx="6" ry="6" style="stroke: none; stroke-width: 1.0;"/><path d="M537,70.1662 C537,82.7662 537,105.8863 537,124.6463 " fill="none" style="stroke: #A80036; stroke-width: 1.0;"/><polygon fill="#A80036" points="537,129.8163,541,120.8163,537,124.8163,533,120.8163,537,129.8163" style="stroke: #A80036; stroke-width: 1.0;"/><path d="M537,180.0162 C537,195.7762 537,216.6463 537,234.4262 " fill="none" style="stroke: #A80036; stroke-width: 1.0;"/><polygon fill="#A80036" points="537,239.8263,541,230.8263,537,234.8263,533,230.8263,537,239.8263" style="stroke: #A80036; stroke-width: 1.0;"/><path d="M546.973,304.0363 C562.2,351.5763 591.176,442.0363 607.349,492.5262 " fill="none" style="stroke: #A80036; stroke-width: 1.0;"/><polygon fill="#A80036" points="608.968,497.5863,610.0522,487.7973,607.4526,492.8214,602.4285,490.2218,608.968,497.5863" style="stroke: #A80036; stroke-width: 1.0;"/><path d="M261,438.1363 C261,451.9562 261,478.6263 261,499.4962 " fill="none" style="stroke: #A80036; stroke-width: 1.0;"/><polygon fill="#A80036" points="261,504.6663,265,495.6663,261,499.6663,257,495.6663,261,504.6663" style="stroke: #A80036; stroke-width: 1.0;"/><path d="M261,555.0062 C261,572.6063 261,596.7562 261,616.6663 " fill="none" style="stroke: #A80036; stroke-width: 1.0;"/><polygon fill="#A80036" points="261,621.8963,265,612.8963,261,616.8963,257,612.8963,261,621.8963" style="stroke: #A80036; stroke-width: 1.0;"/><path d="M261,686.0062 C261,702.6463 261,723.2163 261,740.5863 " fill="none" style="stroke: #A80036; stroke-width: 1.0;"/><polygon fill="#A80036" points="261,745.8663,265,736.8663,261,740.8663,257,736.8663,261,745.8663" style="stroke: #A80036; stroke-width: 1.0;"/><path d="M261,810.0062 C261,826.6463 261,847.2163 261,864.5863 " fill="none" style="stroke: #A80036; stroke-width: 1.0;"/><polygon fill="#A80036" points="261,869.8663,265,860.8663,261,864.8663,257,860.8663,261,869.8663" style="stroke: #A80036; stroke-width: 1.0;"/><path d="M261,934.0523 C261,951.7713 261,974.0523 261,992.5663 " fill="none" style="stroke: #A80036; stroke-width: 1.0;"/><polygon fill="#A80036" points="261,997.6823,265,988.6823,261,992.6823,257,988.6823,261,997.6823" style="stroke: #A80036; stroke-width: 1.0;"/><path d="M261.51,1062.0073 C261.783,1078.6422 262.12,1099.2173 262.405,1116.5833 " fill="none" style="stroke: #A80036; stroke-width: 1.0;"/><polygon fill="#A80036" points="262.491,1121.8613,266.3413,1112.7962,262.4082,1116.8619,258.3424,1112.9288,262.491,1121.8613" style="stroke: #A80036; stroke-width: 1.0;"/><path d="M263.51,1186.0073 C263.783,1202.6422 264.12,1223.2173 264.405,1240.5833 " fill="none" style="stroke: #A80036; stroke-width: 1.0;"/><polygon fill="#A80036" points="264.491,1245.8613,268.3413,1236.7962,264.4082,1240.8619,260.3424,1236.9288,264.491,1245.8613" style="stroke: #A80036; stroke-width: 1.0;"/><path d="M267.804,1310.0073 C269.304,1326.6422 271.159,1347.2173 272.725,1364.5833 " fill="none" style="stroke: #A80036; stroke-width: 1.0;"/><polygon fill="#A80036" points="273.201,1369.8613,276.3748,1360.5378,272.751,1364.8815,268.4073,1361.2577,273.201,1369.8613" style="stroke: #A80036; stroke-width: 1.0;"/><path d="M278.663,1434.1332 C280.046,1450.3513 281.758,1470.4343 283.271,1488.1723 " fill="none" style="stroke: #A80036; stroke-width: 1.0;"/><polygon fill="#A80036" points="283.733,1493.5953,286.9548,1484.2883,283.3087,1488.6133,278.9836,1484.9672,283.733,1493.5953" style="stroke: #A80036; stroke-width: 1.0;"/><path d="M290.535,1571.9133 C292.139,1589.1553 294.028,1609.4543 295.613,1626.5003 " fill="none" style="stroke: #A80036; stroke-width: 1.0;"/><polygon fill="#A80036" points="296.095,1631.6793,299.2447,1622.3476,295.6321,1626.7007,291.279,1623.0882,296.095,1631.6793" style="stroke: #A80036; stroke-width: 1.0;"/><path d="M660.951,803.0062 C664.184,822.7262 668.767,850.6863 672.208,871.6763 " fill="none" style="stroke: #A80036; stroke-width: 1.0;"/><polygon fill="#A80036" points="673.057,876.8563,675.5382,867.3251,672.2429,871.923,667.645,868.6276,673.057,876.8563" style="stroke: #A80036; stroke-width: 1.0;"/><path d="M527.894,304.0663 C521.422,326.2163 512.6255,356.3213 505.3606,381.1838 C503.5444,387.3994 501.8239,393.2873 500.2594,398.6414 C500.2105,398.8088 500.1618,398.9756 500.1132,399.1418 " fill="none" style="stroke: #A80036; stroke-width: 1.0;"/><polygon fill="#A80036" points="500.1132,399.1418,506.4769,391.625,501.5156,394.3425,498.7981,389.3812,500.1132,399.1418" style="stroke: #A80036; stroke-width: 1.0;"/><path d="M500.0839,435.2727 C500.3883,435.5124 500.7001,435.7579 501.0191,436.0092 C506.124,440.0297 513.0873,445.5131 521.0965,451.82 C537.115,464.4338 557.3175,480.3412 575.205,494.4263 " fill="none" style="stroke: #A80036; stroke-width: 1.0;"/><polygon fill="#A80036" points="579.518,497.8163,574.9208,489.1062,575.5894,494.7234,569.9722,495.3919,579.518,497.8163" style="stroke: #A80036; stroke-width: 1.0;"/><path d="M623.813,562.0663 C631.197,609.8663 645.224,700.6763 652.448,747.4363 " fill="none" style="stroke: #A80036; stroke-width: 1.0;"/><polygon fill="#A80036" points="653.252,752.6463,655.8159,743.137,652.4808,747.7061,647.9117,744.3709,653.252,752.6463" style="stroke: #A80036; stroke-width: 1.0;"/><path d="M635.034,927.0953 C629.683,931.3233 624.79,936.2303 621,941.9063 C618.3258,945.9113 616.1918,950.261 614.4709,954.8085 C614.2558,955.3769 614.0471,955.9485 613.8446,956.5228 C613.7434,956.8099 613.6437,957.0978 613.5456,957.3863 C613.4965,957.5306 613.4478,957.675 613.3995,957.8196 " fill="none" style="stroke: #A80036; stroke-width: 1.0;"/><polygon fill="#A80036" points="613.3995,957.8196,620.0459,950.5515,614.9843,953.0774,612.4584,948.0158,613.3995,957.8196" style="stroke: #A80036; stroke-width: 1.0;"/><path d="M586.9307,1024.702 C586.8726,1024.6396 586.8147,1024.5766 586.757,1024.513 C586.6414,1024.3857 586.5264,1024.2559 586.412,1024.1236 C586.1831,1023.8592 585.9563,1023.5848 585.7319,1023.3009 C584.8342,1022.1654 583.9733,1020.877 583.1568,1019.454 C579.8909,1013.7623 577.3354,1005.9187 575.9737,997.1001 C573.2505,979.463 575.303,957.9263 586,941.9063 C588.843,937.6493 592.306,933.8243 596.208,930.3953 " fill="none" style="stroke: #A80036; stroke-width: 1.0;"/><polygon fill="#A80036" points="600.251,927.0953,590.7495,929.6879,596.3777,930.2571,595.8084,935.8852,600.251,927.0953" style="stroke: #A80036; stroke-width: 1.0;"/><path d="M829,1040.0763 C829,1057.5323 829,1096.2163 829,1123.4013 " fill="none" style="stroke: #A80036; stroke-width: 1.0;"/><polygon fill="#A80036" points="829,1128.6753,833,1119.6753,829,1123.6753,825,1119.6753,829,1128.6753" style="stroke: #A80036; stroke-width: 1.0;"/><path d="M823.073,1179.0093 C818.204,1198.8103 811.292,1226.9193 806.122,1247.9412 " fill="none" style="stroke: #A80036; stroke-width: 1.0;"/><polygon fill="#A80036" points="804.915,1252.8533,810.9466,1245.0674,806.1078,1247.9976,803.1776,1243.1588,804.915,1252.8533" style="stroke: #A80036; stroke-width: 1.0;"/><path d="M799,1303.0093 C799,1322.7273 799,1350.6822 799,1371.6753 " fill="none" style="stroke: #A80036; stroke-width: 1.0;"/><polygon fill="#A80036" points="799,1376.8533,803,1367.8533,799,1371.8533,795,1367.8533,799,1376.8533" style="stroke: #A80036; stroke-width: 1.0;"/><path d="M794.11,1427.1703 C789.788,1448.6113 783.476,1479.9303 778.88,1502.7323 " fill="none" style="stroke: #A80036; stroke-width: 1.0;"/><polygon fill="#A80036" points="777.868,1507.7513,783.5662,1499.7181,778.8552,1502.8497,775.7236,1498.1387,777.868,1507.7513" style="stroke: #A80036; stroke-width: 1.0;"/><path d="M903.717,1178.9203 C937.039,1193.2933 973.906,1214.9223 997,1245.9063 C1091.51,1372.7013 1086.74,1444.3333 1049,1597.9063 C1045.92,1610.4592 1039.93,1623.2763 1033.83,1634.1743 " fill="none" style="stroke: #A80036; stroke-width: 1.0;"/><polygon fill="#A80036" points="1031.22,1638.7213,1039.1681,1632.9051,1033.7081,1634.3843,1032.2289,1628.9242,1031.22,1638.7213" style="stroke: #A80036; stroke-width: 1.0;"/><path d="M880.827,1303.0662 C914.964,1317.2053 951.956,1338.6042 975,1369.9063 C1033.97,1450.0113 1026.59,1576.6943 1019.52,1633.5673 " fill="none" style="stroke: #A80036; stroke-width: 1.0;"/><polygon fill="#A80036" points="1018.83,1638.8493,1023.9495,1630.4355,1019.4702,1633.8904,1016.0153,1629.4112,1018.83,1638.8493" style="stroke: #A80036; stroke-width: 1.0;"/><path d="M853.738,1427.0233 C883.691,1442.5153 919.568,1465.1353 944,1493.9063 C979.44,1535.6393 999.312,1597.6042 1008.53,1633.7613 " fill="none" style="stroke: #A80036; stroke-width: 1.0;"/><polygon fill="#A80036" points="1009.82,1638.9033,1011.5164,1629.2016,1008.6066,1634.0527,1003.7555,1631.143,1009.82,1638.9033" style="stroke: #A80036; stroke-width: 1.0;"/><path d="M818.234,1558.0193 C859.945,1580.2533 921.753,1613.2002 964.933,1636.2173 " fill="none" style="stroke: #A80036; stroke-width: 1.0;"/><polygon fill="#A80036" points="969.577,1638.6933,963.5163,1630.93,965.1647,1636.3413,959.7533,1637.9897,969.577,1638.6933" style="stroke: #A80036; stroke-width: 1.0;"/><path d="M759.005,906.6393 C839.23,911.4103 955.009,921.6123 995,941.9063 C1109.68,1000.1023 1193,1024.3053 1193,1152.9063 C1193,1152.9063 1193,1152.9063 1193,1402.9063 C1193,1502.6053 1102.78,1592.1243 1050.81,1635.4283 " fill="none" style="stroke: #A80036; stroke-width: 1.0;"/><polygon fill="#A80036" points="1046.82,1638.7183,1056.306,1636.0693,1050.6745,1635.5335,1051.2104,1629.9021,1046.82,1638.7183" style="stroke: #A80036; stroke-width: 1.0;"/><path d="M986.49,1689.0143 C964.548,1707.5673 934.212,1733.2203 911.36,1752.5433 " fill="none" style="stroke: #A80036; stroke-width: 1.0;"/><polygon fill="#A80036" points="907.473,1755.8303,916.9283,1753.074,911.2912,1752.602,911.7631,1746.9649,907.473,1755.8303" style="stroke: #A80036; stroke-width: 1.0;"/><path d="M602.482,562.1563 C579.856,607.9563 542,696.5763 542,776.9063 C542,776.9063 542,776.9063 542,1533.9063 C542,1627.3113 538.58,1660.1063 484,1735.9063 C479.583,1742.0403 474.031,1747.5983 468.053,1752.5383 " fill="none" style="stroke: #A80036; stroke-width: 1.0;"/><polygon fill="#A80036" points="463.856,1755.8583,473.3958,1753.4105,467.777,1752.7557,468.4318,1747.1369,463.856,1755.8583" style="stroke: #A80036; stroke-width: 1.0;"/><path d="M190.307,1062.0093 C114.841,1100.5733 6,1174.0253 6,1276.9063 C6,1276.9063 6,1276.9063 6,1533.9063 C6,1630.3053 9.0998,1676.4753 85,1735.9063 C122.585,1765.3363 247.788,1775.1293 334.007,1778.3593 " fill="none" style="stroke: #A80036; stroke-width: 1.0;"/><polygon fill="#A80036" points="339.112,1778.5453,330.2631,1774.2213,334.1153,1778.3638,329.9728,1782.2161,339.112,1778.5453" style="stroke: #A80036; stroke-width: 1.0;"/><path d="M178.621,1572.1033 C152.619,1586.6583 128.046,1606.1643 113,1631.9063 C89.6758,1671.8123 82.7231,1700.9803 113,1735.9063 C141.127,1768.3513 253.376,1777.4473 334.006,1779.6943 " fill="none" style="stroke: #A80036; stroke-width: 1.0;"/><polygon fill="#A80036" points="339.27,1779.8323,330.3782,1775.5971,334.2717,1779.7008,330.168,1783.5943,339.27,1779.8323" style="stroke: #A80036; stroke-width: 1.0;"/><path d="M755.191,1557.9693 C722.685,1600.2043 649.526,1687.7543 568,1735.9063 C548.902,1747.1863 526.689,1755.7703 505.369,1762.2243 " fill="none" style="stroke: #A80036; stroke-width: 1.0;"/><polygon fill="#A80036" points="500.549,1763.6523,510.3145,1764.9308,505.343,1762.2319,508.042,1757.2604,500.549,1763.6523" style="stroke: #A80036; stroke-width: 1.0;"/><path d="M331.744,1696.0273 C350.094,1713.4663 372.792,1735.0393 390.574,1751.9393 " fill="none" style="stroke: #A80036; stroke-width: 1.0;"/><polygon fill="#A80036" points="394.52,1755.6903,390.7535,1746.5901,390.8963,1752.2451,385.2413,1752.3879,394.52,1755.6903" style="stroke: #A80036; stroke-width: 1.0;"/><path d="M819.47,1805.9771 C766.625,1827.345 693.229,1857.0222 662.932,1869.2728 " fill="none" style="stroke: #A80036; stroke-width: 1.0;"/><polygon fill="#A80036" points="658.119,1871.2189,667.9622,1871.5535,662.7544,1869.3446,664.9633,1864.1368,658.119,1871.2189" style="stroke: #A80036; stroke-width: 1.0;"/><path d="M479.271,1805.9771 C531.887,1827.345 604.963,1857.0222 635.128,1869.2728 " fill="none" style="stroke: #A80036; stroke-width: 1.0;"/><polygon fill="#A80036" points="639.92,1871.2189,633.0866,1864.1263,635.2875,1869.3374,630.0763,1871.5383,639.92,1871.2189" style="stroke: #A80036; stroke-width: 1.0;"/></g></svg>